<?xml version="1.0" standalone="no"?>
<!DOCTYPE svg PUBLIC "-//W3C//DTD SVG 1.1//EN" "http://www.w3.org/Graphics/SVG/1.1/DTD/svg11.dtd" >
<svg xmlns="http://www.w3.org/2000/svg">
<metadata></metadata>
<defs>
<font id="newjuneproheavyregular" horiz-adv-x="1208" >
<font-face units-per-em="2048" ascent="1597" descent="-451" />
<missing-glyph horiz-adv-x="530" />
<glyph unicode="IJ" horiz-adv-x="1597" d="M106 0v1524h412v-1524h-412zM657 57l48 301q150 -43 221 -43q87 0 124 42t37 135v1032h408v-1065q0 -224 -129 -342.5t-360 -118.5q-150 0 -349 59z" />
<glyph unicode="ij" horiz-adv-x="1099" d="M86 1411q0 76 49.5 122t136.5 46t137 -46t50 -122q0 -77 -50 -123.5t-137 -46.5t-136.5 46.5t-49.5 123.5zM106 0v1128h330v-1128h-330zM522 -131q76 1 109 37t33 110v1112h329v-1118q0 -188 -118.5 -284.5t-352.5 -96.5v240zM643 1411q0 76 49 122t137 46q87 0 136 -46 t49 -122q0 -78 -49 -124t-136 -46q-88 0 -137 46t-49 124z" />
<glyph unicode="&#x27;n" horiz-adv-x="1202" d="M102 0v897q0 77 38 121t116 67q188 54 369 54q243 0 359 -107t116 -295v-737h-334v707q0 72 -35 111.5t-119 39.5q-70 0 -170 -29v-829h-340zM117 1411l49 186h315l-73 -245q-32 -109 -150 -109q-86 0 -122.5 48.5t-18.5 119.5z" />
<glyph unicode="ff" horiz-adv-x="1634" d="M33 874v248h153v72q0 188 114.5 283.5t334.5 95.5q240 0 465 -76q103 70 262 70q125 0 293 -49l-39 -244q-136 35 -191 35q-77 0 -109 -31.5t-32 -112.5v-43h315v-248h-315v-874h-328v874h-442v-874h-328v874h-153zM514 1122h442v72q0 42 9 80q-162 43 -277 43 q-95 0 -134.5 -35t-39.5 -117v-43z" />
<glyph unicode="fi" horiz-adv-x="1394" d="M33 874v248h153v72q0 185 106 280t300 95q115 0 291 -49l-37 -244q-136 35 -191 35q-78 0 -109.5 -32.5t-31.5 -113.5v-43h774v-1122h-332v874h-442v-874h-328v874h-153zM936 1415q0 76 49.5 122t136.5 46t137 -46t50 -122q0 -77 -50 -123.5t-137 -46.5t-136.5 46.5 t-49.5 123.5z" />
<glyph unicode="fl" horiz-adv-x="1400" d="M33 874v248h153v72q0 185 111.5 282t312.5 97q151 0 344 -47l344 61v-1587h-344v1282q-168 33 -272 33q-92 0 -130 -34t-38 -116v-43h315v-248h-315v-874h-328v874h-153z" />
<glyph unicode="ffi" horiz-adv-x="2164" d="M33 874v248h153v72q0 188 114.5 283.5t334.5 95.5q238 0 463 -74q106 70 264 70q114 0 293 -49l-39 -244q-136 35 -191 35q-77 0 -109 -32.5t-32 -113.5v-43h774v-1122h-332v874h-442v-874h-328v874h-442v-874h-328v874h-153zM514 1122h442v72q0 42 9 80q-162 43 -277 43 q-95 0 -134.5 -35t-39.5 -117v-43zM1706 1415q0 76 50 122t138 46q85 0 135 -46t50 -122q0 -77 -49.5 -123.5t-135.5 -46.5q-88 0 -138 46t-50 124z" />
<glyph unicode="&#xd;" horiz-adv-x="530" />
<glyph unicode=" "  horiz-adv-x="530" />
<glyph unicode="&#x09;" horiz-adv-x="530" />
<glyph unicode="&#xa0;" horiz-adv-x="530" />
<glyph unicode="!" horiz-adv-x="524" d="M78 147q0 79 49 124.5t137 45.5q87 0 137 -46t50 -124q0 -77 -50 -122t-137 -45q-88 0 -137 45t-49 122zM98 459v1065h330v-1008z" />
<glyph unicode="&#x22;" horiz-adv-x="899" d="M92 1563h309l-28 -537h-252zM498 1563h309l-27 -537h-252z" />
<glyph unicode="#" d="M27 387l36 248h160l47 235h-166l37 246h176l76 408h271l-76 -408h168l75 408h271l-78 -408h158l-39 -246h-162l-43 -235h166l-37 -248h-176l-72 -387h-268l72 387h-174l-76 -387h-271l74 387h-149zM494 635h174l45 235h-172z" />
<glyph unicode="$" d="M74 84l55 319l123 -41q207 -69 377 -69q74 0 122 37t48 108q0 57 -32 92t-101 52l-209 49q-181 41 -282 148.5t-101 281.5q0 204 110 321t291 140v254h268v-252q136 -12 277 -58l125 -34l-55 -320l-125 43q-201 68 -371 68q-77 0 -123.5 -37.5t-46.5 -108.5 q0 -56 32.5 -90t102.5 -51l205 -49q385 -90 385 -428q0 -103 -31 -186t-86.5 -140t-128 -91.5t-160.5 -47.5v-258h-268v256q-138 12 -276 55z" />
<glyph unicode="%" horiz-adv-x="1517" d="M74 985v283q0 128 71.5 198t204.5 70q135 0 206 -69.5t71 -198.5v-281q0 -128 -71 -198t-204 -70q-135 0 -206.5 69t-71.5 197zM276 981q0 -98 74 -98q76 0 76 98v293q0 96 -76 96q-74 0 -74 -96v-293zM299 0l696 1524h224l-695 -1524h-225zM893 256v283q0 128 70.5 198 t203.5 70q135 0 206 -69.5t71 -198.5v-281q0 -130 -70.5 -199t-204.5 -69t-205 69t-71 197zM1094 252q0 -98 73 -98q76 0 76 98v291q0 98 -76 98q-73 0 -73 -98v-291z" />
<glyph unicode="&#x26;" horiz-adv-x="1538" d="M88 414q0 78 20 141.5t58 110t81 80t101 63.5q-135 161 -135 336q0 130 61 222.5t164 137.5t238 45q203 0 321.5 -98t118.5 -278q0 -71 -18.5 -131.5t-47 -102.5t-74 -79.5t-87 -61.5t-98.5 -51l256 -279q92 142 92 322v145h291v-148q0 -313 -187 -532l236 -256h-398 l-67 76q-193 -99 -414 -99q-124 0 -223 34t-161.5 94t-95 138.5t-32.5 170.5zM420 418q0 -80 54.5 -133.5t150.5 -53.5q106 0 204 45l-303 336q-106 -79 -106 -194zM516 1145q0 -55 25.5 -105.5t81.5 -109.5q93 43 142.5 96.5t49.5 136.5q0 64 -37.5 103t-107.5 39 q-76 0 -115 -43t-39 -117z" />
<glyph unicode="'" horiz-adv-x="524" d="M92 1563h340l-29 -537h-282z" />
<glyph unicode="(" horiz-adv-x="751" d="M80 696q0 149 19.5 270.5t51.5 206.5t80 149t98.5 101.5t113.5 61t119 31.5t120 8v-244q-24 -2 -44.5 -7t-49.5 -21t-51.5 -40t-46.5 -68.5t-40 -103.5t-26 -147.5t-10 -196.5q0 -114 10 -206.5t26 -153t40 -106.5t46.5 -70.5t51.5 -39.5t49 -19.5t45 -6.5v-246 q-58 0 -112 8.5t-115.5 33t-113.5 63.5t-101.5 105t-84 152.5t-55 210.5t-20.5 275z" />
<glyph unicode=")" horiz-adv-x="751" d="M72 94q25 2 45 6.5t48.5 19.5t51 39.5t46 70.5t39.5 106.5t26 153t10 206.5q0 108 -10 196.5t-26 147.5t-39.5 103.5t-46 68.5t-51 40t-49 21t-44.5 7v244q64 0 120 -8t119 -31.5t113.5 -61t98.5 -101.5t80 -149t51.5 -206.5t19.5 -270.5q0 -151 -20.5 -275t-55 -210.5 t-84 -152.5t-101.5 -105t-113.5 -63.5t-115.5 -33t-112 -8.5v246z" />
<glyph unicode="*" d="M102 1108l88 278l277 -116l-23 291h318l-23 -291l277 112l88 -276l-307 -74l202 -237l-254 -168l-141 256l-143 -254l-252 168l201 237z" />
<glyph unicode="+" d="M92 477v254h363v395h288v-395h371v-254h-371v-395h-288v395h-363z" />
<glyph unicode="," horiz-adv-x="524" d="M49 -86l90 401h340l-125 -462q-32 -107 -159 -107q-89 0 -126.5 48t-19.5 120z" />
<glyph unicode="-" horiz-adv-x="888" d="M80 512v256h729v-256h-729z" />
<glyph unicode="." horiz-adv-x="524" d="M76 156q0 80 50 128t138 48q87 0 136 -48t49 -128t-49 -128t-136 -48q-88 0 -138 48t-50 128z" />
<glyph unicode="/" horiz-adv-x="894" d="M14 0l580 1524h287l-570 -1524h-297z" />
<glyph unicode="0" d="M88 485v547q0 243 133.5 375.5t382.5 132.5q252 0 385 -131t133 -375v-545q0 -245 -131 -377t-381 -132q-253 0 -387.5 130.5t-134.5 374.5zM432 477q0 -215 174 -215q172 0 172 215v565q0 215 -172 215q-174 0 -174 -215v-565z" />
<glyph unicode="1" d="M80 0v272h395v967h-45q-51 0 -121 -14t-112 -41l-52 270q69 35 164.5 52.5t179.5 17.5h136q99 0 154 -52t55 -143v-1057h319v-272h-1073z" />
<glyph unicode="2" d="M70 164q0 95 59 149l438 406q108 103 151.5 172.5t43.5 163.5q0 97 -58.5 145.5t-162.5 48.5q-131 0 -316 -61l-100 -35l-45 281l108 34q210 70 404 70q117 0 211 -27.5t164 -82.5t108.5 -146t38.5 -211q0 -132 -62 -252.5t-210 -261.5l-320 -291h592v-266h-887 q-77 0 -117 44.5t-40 119.5z" />
<glyph unicode="3" d="M51 92l49 277l111 -37q200 -66 354 -66q114 0 173 44.5t59 123.5q0 77 -58 141l-53 60h-305v258h295l45 55q47 59 47 139q0 164 -217 164q-131 0 -318 -63l-100 -33l-45 279l107 34q224 70 403 70q516 0 516 -418q0 -148 -102 -278l-51 -68l57 -59q66 -68 96.5 -138.5 t30.5 -156.5q0 -213 -146.5 -323.5t-406.5 -110.5q-202 0 -428 71z" />
<glyph unicode="4" d="M33 406q0 74 47 145l514 856q74 131 233 131q217 0 217 -197v-831h140v-266h-140v-244h-337v244h-517q-79 0 -118 44t-39 118zM403 510h304v504z" />
<glyph unicode="5" d="M78 88l47 274l106 -32q206 -64 334 -64q120 0 179 61.5t59 174.5q0 235 -240 235q-99 0 -295 -51l-121 -35v873h945v-289h-658v-262q129 33 225 33q242 0 366 -126t124 -374q0 -254 -145.5 -387t-411.5 -133q-193 0 -406 67z" />
<glyph unicode="6" d="M80 514v537q0 226 149 355.5t394 129.5q172 0 389 -68l106 -34l-51 -279l-100 33q-193 61 -320 61q-221 0 -221 -196v-84q135 37 238 37q487 0 487 -490q0 -237 -141 -381.5t-398 -144.5q-251 0 -391.5 141.5t-140.5 382.5zM426 512q0 -118 48 -181t144 -63 q88 0 135.5 59t47.5 171q0 111 -47 171t-158 60q-20 0 -44.5 -3t-39.5 -6.5t-45.5 -10.5t-40.5 -9v-188z" />
<glyph unicode="7" d="M88 1239v285h889q88 0 132 -44.5t44 -123.5q0 -75 -39 -168l-483 -1188h-383l524 1239h-684z" />
<glyph unicode="8" d="M59 416q0 88 29.5 159t93.5 138l58 59l-52 68q-94 123 -94 282q0 199 138.5 308.5t371.5 109.5q236 0 374 -109.5t138 -308.5q0 -159 -94 -282l-51 -68l57 -59q64 -67 93.5 -138t29.5 -159q0 -209 -143.5 -320.5t-399.5 -111.5t-402.5 112t-146.5 320zM399 422 q0 -77 54 -124.5t153 -47.5q98 0 152.5 47t54.5 125q0 81 -59 149l-54 60h-190l-53 -60q-58 -70 -58 -149zM420 1096q0 -69 53 -148l39 -57h186l41 57q54 80 54 148q0 76 -48.5 122t-138.5 46q-89 0 -137.5 -46.5t-48.5 -121.5z" />
<glyph unicode="9" d="M59 1010q0 236 141 381t398 145q251 0 391.5 -141.5t140.5 -382.5v-537q0 -226 -148.5 -355.5t-393.5 -129.5q-184 0 -389 65l-107 35l51 279l101 -33q198 -63 319 -60q219 0 219 197v84q-113 -37 -235 -37q-488 0 -488 490zM410 1028q0 -113 46.5 -172t157.5 -59 q62 0 168 28v189q0 243 -190 243q-88 0 -135 -59.5t-47 -169.5z" />
<glyph unicode=":" horiz-adv-x="524" d="M76 156q0 80 50 128t138 48q87 0 136 -48t49 -128t-49 -128t-136 -48q-88 0 -138 48t-50 128zM76 948q0 80 50 128t138 48q87 0 136 -48t49 -128t-49 -128t-136 -48q-88 0 -138 48t-50 128z" />
<glyph unicode=";" horiz-adv-x="524" d="M47 -86l88 401h342l-127 -462q-12 -51 -53 -79t-107 -28q-88 0 -123.5 47.5t-19.5 120.5zM92 948q0 81 49.5 128.5t137.5 47.5q87 0 136.5 -48t49.5 -128t-49.5 -128t-136.5 -48q-88 0 -137.5 47.5t-49.5 128.5z" />
<glyph unicode="&#x3c;" d="M88 606q0 165 150 217l884 316v-334l-690 -201l690 -203v-321l-880 307q-154 49 -154 219z" />
<glyph unicode="=" d="M92 301v246h1022v-246h-1022zM92 676v244h1022v-244h-1022z" />
<glyph unicode="&#x3e;" d="M88 80v321l688 203l-688 201v334l883 -316q149 -51 149 -217q0 -171 -153 -219z" />
<glyph unicode="?" horiz-adv-x="962" d="M49 1450l103 29q164 49 323 49q204 0 321 -99.5t117 -275.5q0 -112 -41 -194t-124 -162l-144 -138v-143l-321 -57v137q0 75 14.5 119.5t64.5 93.5l138 137q48 49 68 88.5t20 91.5q0 125 -152 125q-101 0 -227 -37l-117 -32zM258 147q0 79 49 124.5t137 45.5q87 0 137 -46 t50 -124q0 -77 -50 -122t-137 -45q-88 0 -137 45t-49 122z" />
<glyph unicode="@" horiz-adv-x="1910" d="M168 715q0 234 108.5 423.5t298 296.5t422.5 107q220 0 390.5 -87t265 -248t94.5 -371q0 -114 -36 -211t-96.5 -161t-138.5 -100t-163 -36q-47 0 -105 18.5t-86 18.5q-34 0 -111 -16.5t-134 -16.5q-174 0 -262.5 94.5t-88.5 257.5q0 88 30 168t85 142t140 99t188 37 q65 0 135 -8l8 52h229l-90 -654q1 0 10.5 -4.5t17.5 -8t20.5 -6.5t23.5 -3q85 0 148 92t63 248q0 233 -141.5 368t-395.5 135q-177 0 -317 -83t-215.5 -225.5t-75.5 -317.5q0 -242 135.5 -393.5t374.5 -151.5q82 0 228 38t221 38q79 0 141 -37l125 -72l-80 -162l-127 60 q-28 14 -72 14q-47 0 -112.5 -18t-151.5 -36t-182 -18q-168 0 -305 57t-227.5 156.5t-139.5 234t-49 290.5zM770 680q0 -76 32 -120t99 -44q24 0 71 9t52 10l55 407q-108 8 -110 8q-97 0 -148 -77.5t-51 -192.5z" />
<glyph unicode="A" horiz-adv-x="1499" d="M16 0l463 1358q59 182 283 182q220 0 276 -180l445 -1360h-410l-78 254h-495l-78 -254h-406zM573 543h353l-172 590z" />
<glyph unicode="B" horiz-adv-x="1443" d="M106 195v1134q0 91 55 143t154 52h535q226 0 346.5 -100t120.5 -300q0 -142 -100 -278l-52 -68l60 -59q143 -137 143 -307q0 -197 -130.5 -304.5t-381.5 -107.5h-541q-98 0 -153.5 52t-55.5 143zM504 283h299q83 0 126.5 38.5t43.5 106.5q0 71 -53 127l-68 72h-348v-344z M504 903h342l49 72q41 61 41 129q0 64 -38 101.5t-118 37.5h-276v-340z" />
<glyph unicode="C" horiz-adv-x="1402" d="M76 762q0 189 54 337t151.5 243t229.5 144.5t292 49.5q203 0 428 -74l123 -39l-47 -319l-127 39q-165 57 -326 57q-356 0 -356 -438q0 -221 92 -329.5t264 -108.5q152 0 326 57l127 41l47 -326l-123 -37q-222 -73 -430 -73q-162 0 -294 48.5t-228.5 143.5t-149.5 244 t-53 340z" />
<glyph unicode="D" horiz-adv-x="1521" d="M106 195v1134q0 91 55.5 143t153.5 52h398q339 0 535 -203.5t196 -562.5q0 -357 -199.5 -557.5t-535.5 -200.5h-394q-98 0 -153.5 52t-55.5 143zM512 307h190q163 0 252.5 116t89.5 335q0 217 -93.5 340t-260.5 123h-178v-914z" />
<glyph unicode="E" horiz-adv-x="1296" d="M106 195v1134q0 91 55.5 143t153.5 52h899v-295h-702v-311h614v-285h-614v-338h707v-295h-904q-98 0 -153.5 52t-55.5 143z" />
<glyph unicode="F" horiz-adv-x="1257" d="M106 0v1329q0 91 55.5 143t153.5 52h881v-299h-682v-336h621v-287h-621v-602h-408z" />
<glyph unicode="G" horiz-adv-x="1531" d="M76 762q0 187 55 334.5t155 243.5t237 146t304 50q193 0 453 -76l129 -39l-53 -323l-133 41q-209 61 -355 61q-188 0 -289.5 -113t-101.5 -335q0 -235 101 -353t292 -118q95 0 185 16v254h-285v276h449q98 0 153 -51.5t55 -142.5v-385q0 -118 -127 -176 q-193 -86 -477 -86q-225 0 -391.5 86t-261 262.5t-94.5 427.5z" />
<glyph unicode="H" horiz-adv-x="1488" d="M106 0v1524h406v-604h463v604h407v-1524h-407v625h-463v-625h-406z" />
<glyph unicode="I" horiz-adv-x="624" d="M106 0v1524h412v-1524h-412z" />
<glyph unicode="J" horiz-adv-x="976" d="M37 57l47 301q150 -43 221 -43q87 0 124.5 42t37.5 135v1032h407v-1065q0 -224 -129 -342.5t-360 -118.5q-149 0 -348 59z" />
<glyph unicode="K" horiz-adv-x="1464" d="M106 0v1524h400v-621l469 621h452l-417 -531l411 -993h-430l-274 670l-109 -131q-29 -37 -42 -56t-30 -51.5t-23.5 -66.5t-6.5 -78v-287h-400z" />
<glyph unicode="L" horiz-adv-x="1241" d="M106 195v1329h410v-1198h655v-326h-856q-98 0 -153.5 52t-55.5 143z" />
<glyph unicode="M" horiz-adv-x="1880" d="M106 0v1288q0 120 81 184t221 64q141 0 217 -56.5t102 -162.5l215 -731l227 731q57 219 322 219q131 0 207 -62.5t76 -179.5v-1294h-363v1024l-270 -893q-37 -141 -209 -141q-176 0 -213 141l-264 895v-1026h-349z" />
<glyph unicode="N" horiz-adv-x="1554" d="M106 0v1290q0 120 75.5 184t211.5 64q65 0 113 -15t82 -46t56.5 -66.5t45.5 -89.5l408 -770v973h350v-1291q0 -119 -74.5 -182t-212.5 -63q-124 0 -187.5 53t-109.5 164l-407 770v-975h-351z" />
<glyph unicode="O" horiz-adv-x="1660" d="M76 760q0 242 96 418.5t266.5 266t395.5 89.5q170 0 308.5 -51.5t237 -149t152 -244t53.5 -329.5q0 -185 -55 -332t-155 -243.5t-240 -147.5t-310 -51q-169 0 -307.5 51.5t-236.5 149t-151.5 244t-53.5 329.5zM485 760q0 -232 92 -360t257 -128q164 0 252 126.5t88 361.5 q0 230 -91.5 356.5t-257.5 126.5q-164 0 -252 -126t-88 -357z" />
<glyph unicode="P" horiz-adv-x="1366" d="M106 0v1329q0 91 55.5 143t153.5 52h469q234 0 373 -134.5t139 -363.5q0 -232 -143.5 -366t-388.5 -134h-260v-526h-398zM504 819h223q93 0 148 55t55 152q0 96 -54 151.5t-143 55.5h-229v-414z" />
<glyph unicode="Q" horiz-adv-x="1660" d="M76 758q0 243 95.5 419.5t266 266.5t396.5 90q344 0 544.5 -202t200.5 -568q0 -215 -88 -370.5t-231 -229.5q116 -47 239 -47h66v-285h-97q-84 0 -158 17.5t-128.5 42t-105.5 49t-112 42t-126 17.5q-167 0 -305 47.5t-240.5 140t-159.5 238.5t-57 332zM485 760 q0 -232 92 -356.5t257 -124.5t252.5 123.5t87.5 357.5q0 230 -91.5 356.5t-257.5 126.5q-164 0 -252 -126t-88 -357z" />
<glyph unicode="R" horiz-adv-x="1447" d="M106 0v1329q0 91 55 143t154 52h539q232 0 363 -118t131 -335q0 -170 -136 -332l-75 -90l280 -649h-426l-215 537h-264v-537h-406zM512 823h330l53 74q66 89 66 162q0 84 -44.5 131t-134.5 47h-270v-414z" />
<glyph unicode="S" horiz-adv-x="1351" d="M80 104l61 332l140 -49q246 -88 428 -88q80 0 131 36t51 107q0 56 -35 89.5t-111 50.5l-253 51q-204 41 -306 144t-102 286q0 156 73.5 264.5t197 158.5t288.5 50q242 0 492 -78l139 -45l-66 -336l-139 51q-246 91 -422 91q-83 0 -131.5 -36.5t-48.5 -107.5 q0 -57 34.5 -90.5t110.5 -46.5l252 -53q204 -39 306 -140.5t102 -285.5q0 -117 -43 -209t-119 -150t-176.5 -88t-220.5 -30q-254 0 -494 75z" />
<glyph unicode="T" horiz-adv-x="1368" d="M61 1219v305h1246v-305h-420v-1219h-408v1219h-418z" />
<glyph unicode="U" horiz-adv-x="1499" d="M96 565v959h408v-957q0 -260 246 -260q245 0 245 260v957h408v-959q0 -281 -168.5 -436.5t-486.5 -155.5q-317 0 -484.5 155t-167.5 437z" />
<glyph unicode="V" horiz-adv-x="1468" d="M16 1524h412l303 -1092l313 1092h408l-457 -1364q-59 -174 -272 -174q-212 0 -268 174z" />
<glyph unicode="W" horiz-adv-x="2013" d="M23 1524h391l149 -1086l244 953q15 65 69.5 99t137.5 34q82 0 137 -34t70 -99l237 -955l152 1088h381l-256 -1354q-21 -91 -86 -139.5t-172 -48.5q-225 0 -271 176l-200 776l-205 -776q-47 -176 -269 -176q-109 0 -174 49t-84 141z" />
<glyph unicode="X" horiz-adv-x="1531" d="M41 0l477 766l-465 758h443l272 -484l266 484h439l-453 -748l469 -776h-442l-281 506l-289 -506h-436z" />
<glyph unicode="Y" horiz-adv-x="1511" d="M12 1524h443l309 -559l297 559h436l-534 -903v-621h-410v618z" />
<glyph unicode="Z" horiz-adv-x="1384" d="M70 186q0 83 61 164l674 877h-692v297h1009q91 0 137 -51t46 -136t-62 -163l-668 -877h721v-297h-1044q-89 0 -135.5 50.5t-46.5 135.5z" />
<glyph unicode="[" horiz-adv-x="751" d="M143 -133v1657h539v-244h-231v-1169h231v-244h-539z" />
<glyph unicode="\" horiz-adv-x="894" d="M14 1524h285l582 -1524h-297z" />
<glyph unicode="]" horiz-adv-x="751" d="M72 111h229v1169h-229v244h536v-1657h-536v244z" />
<glyph unicode="^" d="M74 88l311 885q48 153 215 153q166 0 217 -149l316 -889h-332l-201 686l-203 -686h-323z" />
<glyph unicode="_" horiz-adv-x="1024" d="M-4 -150h1032v-217h-1032v217z" />
<glyph unicode="`" horiz-adv-x="1101" d="M242 1563h420l147 -133q45 -45 45 -101q0 -41 -30 -71.5t-85 -30.5q-69 0 -139 53z" />
<glyph unicode="a" horiz-adv-x="1243" d="M74 324q0 356 491 356h207v55q0 142 -172 142q-141 0 -332 -58l-116 -39l-41 256l116 35q229 72 410 72q102 0 182.5 -21.5t142.5 -67t95 -122.5t33 -182v-492l120 -74l-123 -213l-100 56q-43 23 -99 23q-31 0 -65 -7l-57 -14q-180 -41 -287 -41q-191 0 -298 89t-107 247 zM399 334q0 -57 39 -85t107 -28q65 0 157 25l74 18v197h-201q-176 0 -176 -127z" />
<glyph unicode="b" horiz-adv-x="1232" d="M102 229v1301l334 59v-493q119 39 228 39q254 0 374.5 -144t120.5 -424q0 -268 -146.5 -422.5t-404.5 -154.5q-188 0 -360 53q-78 25 -112 67.5t-34 118.5zM436 270q96 -20 158 -20q235 0 235 311q0 156 -53 231.5t-170 75.5q-64 0 -170 -30v-568z" />
<glyph unicode="c" horiz-adv-x="1091" d="M74 563q0 278 147 428t393 150q146 0 324 -56l96 -28l-39 -269l-90 29q-160 49 -252 49q-119 0 -178 -74.5t-59 -228.5q0 -301 239 -301q101 0 250 49l90 27l39 -268l-96 -29q-174 -55 -324 -55q-247 0 -393.5 148t-146.5 429z" />
<glyph unicode="d" horiz-adv-x="1232" d="M74 559q0 276 128 426t378 150q91 0 215 -39v434l333 59v-1360q0 -76 -33.5 -118.5t-111.5 -67.5q-175 -53 -360 -53q-260 0 -404.5 149.5t-144.5 419.5zM403 561q0 -311 236 -311q56 0 156 20v568q-106 30 -168 30q-118 0 -171 -75t-53 -232z" />
<glyph unicode="e" horiz-adv-x="1200" d="M74 561q0 146 43 259.5t118 182.5t171 104.5t208 35.5q246 0 384.5 -138.5t138.5 -414.5q0 -67 -32 -98t-101 -31h-605q10 -105 81.5 -158t189.5 -53q147 0 305 49l106 33l41 -244l-108 -35q-207 -65 -371 -65q-264 0 -416.5 146.5t-152.5 426.5zM397 678h416 q0 101 -52 165t-157 64q-92 0 -146.5 -61t-60.5 -168z" />
<glyph unicode="f" horiz-adv-x="862" d="M33 874v248h153v72q0 184 106 278.5t300 94.5q127 0 291 -49l-37 -244q-136 35 -191 35q-79 0 -110 -31.5t-31 -112.5v-43h315v-248h-315v-874h-328v874h-153z" />
<glyph unicode="g" horiz-adv-x="1251" d="M74 760q0 182 134.5 272t371.5 90h108q120 0 201 25l276 80l58 -240l-187 -51q3 -2 7.5 -6.5t16 -21t20.5 -35t16.5 -49.5t7.5 -64q0 -171 -130.5 -257.5t-365.5 -86.5q-23 0 -44 1.5t-30 2.5l-10 2q15 -15 15 -57q0 -39 -29 -78h295q198 0 296.5 -77t98.5 -216 q0 -173 -148 -266t-436 -93q-160 0 -277 32t-188 106.5t-71 187.5q0 112 78 213l90 115q37 48 37 94q0 32 -14 54.5t-48 47.5q-29 23 -50 43t-46.5 54t-39 79t-13.5 99zM377 -33q0 -65 62 -92t186 -27q280 0 280 132q0 86 -127 86h-368q-13 -13 -23 -41t-10 -58zM385 760 q0 -148 203 -148q93 0 148 36.5t55 111.5q0 143 -203 143t-203 -143z" />
<glyph unicode="h" horiz-adv-x="1193" d="M102 0v1530l340 59v-493q124 39 232 39q119 0 203 -30t131 -86.5t67.5 -126t20.5 -159.5v-733h-332v705q0 70 -34.5 108.5t-117.5 38.5q-68 0 -170 -29v-823h-340z" />
<glyph unicode="i" horiz-adv-x="544" d="M86 1411q0 76 49.5 122t136.5 46t137 -46t50 -122q0 -77 -50 -123.5t-137 -46.5t-136.5 46.5t-49.5 123.5zM106 0v1128h330v-1128h-330z" />
<glyph unicode="j" horiz-adv-x="555" d="M-23 -131q76 1 109 37t33 110v1112h330v-1118q0 -188 -119 -284.5t-353 -96.5v240zM98 1411q0 76 49.5 122t137.5 46q86 0 135 -46t49 -122q0 -78 -48.5 -124t-135.5 -46q-88 0 -137.5 46t-49.5 124z" />
<glyph unicode="k" horiz-adv-x="1202" d="M102 0v1530l332 59v-889l346 428h398l-318 -376l324 -752h-381l-201 471l-76 -86q-48 -55 -70 -101t-22 -120v-164h-332z" />
<glyph unicode="l" horiz-adv-x="548" d="M102 0v1528l344 61v-1589h-344z" />
<glyph unicode="m" horiz-adv-x="1792" d="M102 0v897q0 77 38 120.5t116 67.5q173 54 348 54q205 0 305 -78q176 78 346 78q224 0 328.5 -104t104.5 -292v-743h-330v713q0 69 -32 107t-107 38q-17 0 -33 -1.5t-31.5 -4t-27 -5t-25.5 -7t-20.5 -6.5t-19.5 -7t-15 -6q16 -37 16 -94v-727h-332v713q0 69 -32 107 t-107 38q-70 0 -156 -29v-829h-334z" />
<glyph unicode="n" horiz-adv-x="1202" d="M102 0v897q0 77 38 121t116 67q188 54 369 54q243 0 359 -107t116 -295v-737h-334v707q0 72 -35 111.5t-119 39.5q-70 0 -170 -29v-829h-340z" />
<glyph unicode="o" horiz-adv-x="1269" d="M74 563q0 275 152 426.5t413 151.5q262 0 409.5 -151t147.5 -427q0 -274 -151 -424.5t-412 -150.5q-262 0 -410.5 151.5t-148.5 423.5zM414 563q0 -334 225 -334q108 0 163.5 84.5t55.5 249.5q0 164 -57.5 250t-167.5 86q-219 0 -219 -336z" />
<glyph unicode="p" horiz-adv-x="1232" d="M102 -381v1280q0 74 34.5 117.5t111.5 68.5q180 54 362 54q258 0 403.5 -150.5t145.5 -419.5q0 -275 -128.5 -425t-377.5 -150q-93 0 -217 39v-355zM436 291q101 -31 170 -31q117 0 170 75t53 230q0 309 -235 309q-67 0 -158 -20v-563z" />
<glyph unicode="q" horiz-adv-x="1232" d="M74 561q0 268 146.5 423t404.5 155q185 0 358 -54q78 -25 111.5 -68t33.5 -118v-1225l-333 -59v418q-119 -39 -228 -39q-253 0 -373 143.5t-120 423.5zM403 565q0 -155 53 -230t171 -75q67 0 168 31v563q-93 20 -156 20q-236 0 -236 -309z" />
<glyph unicode="r" horiz-adv-x="806" d="M102 0v893q0 77 38.5 122.5t115.5 67.5q109 29 225.5 41.5t290.5 12.5v-269q-217 0 -340 -37v-831h-330z" />
<glyph unicode="s" horiz-adv-x="1128" d="M80 84l45 258l117 -39q222 -70 346 -70q62 0 100.5 24t38.5 77q0 80 -119 94l-198 33q-326 50 -326 319q0 118 59 200.5t159.5 121.5t232.5 39q198 0 401 -62l113 -35l-48 -260l-114 39q-210 70 -346 70q-62 0 -101 -23.5t-39 -74.5q0 -80 117 -97l201 -30 q325 -50 325 -318q0 -175 -124 -268.5t-326 -93.5q-210 0 -401 61z" />
<glyph unicode="t" horiz-adv-x="915" d="M27 874v248h151v226l326 59v-285h327v-248h-327v-477q0 -82 32.5 -116.5t110.5 -34.5q57 0 182 33l39 -244q-158 -47 -288 -47q-192 0 -297 97.5t-105 283.5v505h-151z" />
<glyph unicode="u" horiz-adv-x="1202" d="M102 391v737h334v-706q0 -72 35 -112t119 -40q69 0 170 27v831h340v-897q0 -77 -38 -121t-116 -67q-185 -53 -368 -53q-244 0 -360 106.5t-116 294.5z" />
<glyph unicode="v" horiz-adv-x="1189" d="M23 1128h360l209 -768l219 768h356l-342 -999q-53 -152 -241 -152q-91 0 -152 38.5t-86 113.5z" />
<glyph unicode="w" horiz-adv-x="1697" d="M35 1128h346l115 -755l180 647q29 115 180 115q70 0 117.5 -29.5t60.5 -85.5l176 -649l117 757h336l-211 -985q-37 -166 -227 -166q-195 0 -236 154l-139 481l-148 -481q-40 -154 -233 -154q-192 0 -229 166z" />
<glyph unicode="x" horiz-adv-x="1224" d="M33 0l364 565l-356 563h385l190 -323l179 323h383l-344 -550l362 -578h-387l-197 340l-198 -340h-381z" />
<glyph unicode="y" horiz-adv-x="1198" d="M29 1128h370l228 -731l198 731h349l-402 -1208q-98 -295 -405 -295q-125 0 -279 49l41 242q5 -1 32.5 -8.5t35 -9.5t30 -7t34.5 -6.5t30.5 -3.5t34.5 -2q109 0 131 98l10 35z" />
<glyph unicode="z" horiz-adv-x="1140" d="M74 162q0 84 55 145l506 576h-539v245h813q79 0 119.5 -44t40.5 -119q0 -78 -55 -146l-504 -573h553v-246h-830q-79 0 -119 44t-40 118z" />
<glyph unicode="{" horiz-adv-x="747" d="M94 594v199q182 0 182 98q0 38 -25.5 94.5t-51 124.5t-25.5 135q0 132 88 205.5t252 73.5h164v-246h-92q-115 0 -115 -107q0 -55 47 -157.5t47 -159.5q0 -58 -28.5 -99t-73.5 -63q102 -50 102 -162q0 -56 -47 -160t-47 -159q0 -105 115 -105h92v-243h-164q-164 0 -252 73 t-88 205q0 67 25.5 135t51 125t25.5 95q0 98 -182 98z" />
<glyph unicode="|" horiz-adv-x="581" d="M131 -369v1932h320v-1932h-320z" />
<glyph unicode="}" horiz-adv-x="747" d="M72 106h94q113 0 113 105q0 55 -46.5 159t-46.5 160q0 111 101 162q-44 22 -72.5 63.5t-28.5 98.5t46.5 159.5t46.5 157.5q0 107 -113 107h-94v246h164q167 0 254.5 -73.5t87.5 -205.5q0 -53 -16.5 -107.5t-36 -92t-36 -80.5t-16.5 -74q0 -98 184 -98v-199 q-184 0 -184 -98q0 -31 16.5 -74t36 -80.5t36 -92.5t16.5 -108q0 -132 -87.5 -205t-254.5 -73h-164v243z" />
<glyph unicode="~" d="M45 547q60 157 158 229t217 72q118 0 209 -68l80 -55q47 -37 100 -37q46 0 83 35.5t73 118.5l196 -127q-60 -157 -158 -230t-217 -73q-113 0 -211 67l-77 58q-52 36 -101 36q-46 0 -84 -34.5t-73 -116.5z" />
<glyph unicode="&#xa1;" horiz-adv-x="524" d="M78 993q0 77 48.5 122.5t135.5 45.5q88 0 138.5 -45.5t50.5 -122.5t-50.5 -123.5t-138.5 -46.5q-87 0 -135.5 46t-48.5 124zM98 -381v1006l332 57v-1063h-332z" />
<glyph unicode="&#xa2;" d="M109 563q0 233 105 376.5t290 184.5v269h268v-265q91 -12 201 -43l96 -28l-39 -269l-90 27q-149 49 -252 49q-119 0 -178 -73.5t-59 -227.5q0 -301 239 -301q90 0 250 49l90 27l39 -268l-96 -29q-102 -34 -201 -43v-268h-268v272q-185 39 -290 181.5t-105 379.5z" />
<glyph unicode="&#xa3;" d="M51 127q0 58 29 93.5t94 35.5q102 0 147.5 49.5t45.5 130.5q0 44 -19 99h-252v208h144q-66 112 -95.5 186t-29.5 165q0 216 138 330t372 114q189 0 393 -68l106 -34l-45 -279l-100 35q-179 59 -307 59q-211 0 -211 -186q0 -71 22 -136t80 -184h303v-210h-231 q12 -53 12 -99q0 -54 -9.5 -93.5t-37.5 -82.5h170q64 0 105.5 36.5t42.5 113.5h249q0 -410 -393 -410h-600q-64 0 -93.5 34.5t-29.5 92.5z" />
<glyph unicode="&#xa4;" horiz-adv-x="1024" d="M41 178l102 111q-96 110 -96 284q0 180 98 283l-104 111l86 86l104 -103q111 97 279 97q170 0 278 -97l107 103l86 -86l-104 -111q96 -110 96 -283q0 -177 -96 -284l104 -111l-86 -84l-107 103q-111 -97 -278 -97q-171 0 -279 97l-104 -103zM182 573q0 -138 95 -237.5 t233 -99.5t233 99.5t95 237.5q0 137 -96 237.5t-232 100.5q-138 0 -233 -100t-95 -238z" />
<glyph unicode="&#xa5;" d="M20 1524h386l204 -582l195 582h381l-295 -615h248v-209h-336v-116h336v-211h-336v-373h-395v373h-336v211h336v116h-336v209h245z" />
<glyph unicode="&#xa6;" horiz-adv-x="581" d="M131 -369v770h320v-770h-320zM131 795v770h320v-770h-320z" />
<glyph unicode="&#xa7;" d="M74 635v416q0 226 148.5 355.5t395.5 129.5q172 0 386 -68l108 -34l-51 -279l-100 33q-193 61 -318 61q-227 0 -227 -196v-84q135 37 239 37q245 0 362.5 -122t117.5 -366v-416q0 -226 -148 -355.5t-395 -129.5q-179 0 -387 66l-107 34l49 279l101 -33q184 -62 319 -59 q228 0 228 196v84q-124 -39 -240 -39q-245 0 -363 123t-118 367zM416 633q0 -110 47.5 -166.5t159.5 -56.5q62 0 172 28v84q0 109 -47.5 165t-159.5 56q-44 0 -172 -28v-82z" />
<glyph unicode="&#xa8;" horiz-adv-x="1144" d="M195 1413q0 76 46 121t128 45q79 0 125.5 -45.5t46.5 -120.5q0 -77 -46.5 -122.5t-125.5 -45.5q-82 0 -128 45.5t-46 122.5zM635 1413q0 76 46.5 121t127.5 45t127.5 -45t46.5 -121q0 -77 -46.5 -122.5t-127.5 -45.5t-127.5 45.5t-46.5 122.5z" />
<glyph unicode="&#xa9;" horiz-adv-x="1910" d="M152 752q0 172 63.5 322t171.5 253.5t255.5 163t311.5 59.5q163 0 309.5 -58.5t255 -161.5t172.5 -253.5t64 -324.5q0 -171 -64 -321t-172 -255.5t-255.5 -166t-309.5 -60.5q-164 0 -311.5 60.5t-255.5 166t-171.5 255.5t-63.5 321zM373 752q0 -175 76.5 -312 t208.5 -211.5t296 -74.5q162 0 293.5 75t208 212t76.5 311q0 179 -76.5 316t-207.5 208.5t-294 71.5q-123 0 -230 -42.5t-184.5 -119t-122 -189t-44.5 -245.5zM555 750q0 207 110 316.5t296 109.5q120 0 241 -39l72 -23l-31 -199l-67 23q-125 33 -187 33q-180 0 -180 -221 q0 -220 182 -220q53 0 185 35l67 23l31 -199l-72 -22q-121 -39 -241 -39q-186 0 -296 108t-110 314z" />
<glyph unicode="&#xaa;" d="M178 909q0 277 383 277h152v35q0 58 -32 82t-93 24q-106 0 -254 -41l-94 -31l-35 201l98 29q168 53 313 53q349 0 349 -307v-375l90 -55l-97 -170l-79 43q-58 25 -134 10l-55 -12q-118 -27 -198 -27q-147 0 -230.5 71t-83.5 193zM438 920q0 -45 28 -68t79 -23 q40 0 114 19l54 12v150h-146q-64 0 -96.5 -20.5t-32.5 -69.5z" />
<glyph unicode="&#xab;" horiz-adv-x="1206" d="M63 578q0 70 54 127l258 274h327l-380 -401l380 -400h-327l-258 271q-54 57 -54 129zM524 578q0 67 54 127l264 274h327l-385 -401l385 -400h-327l-264 271q-54 60 -54 129z" />
<glyph unicode="&#xac;" d="M90 676v242h1022v-644h-266v402h-756z" />
<glyph unicode="&#xad;" d="M94 477v254h1020v-254h-1020z" />
<glyph unicode="&#xae;" horiz-adv-x="1910" d="M152 752q0 172 63.5 322t171.5 253.5t255.5 163t311.5 59.5q163 0 309.5 -58.5t255 -161.5t172.5 -253.5t64 -324.5q0 -171 -64 -321t-172 -255.5t-255.5 -166t-309.5 -60.5q-164 0 -311.5 60.5t-255.5 166t-171.5 255.5t-63.5 321zM373 752q0 -175 76.5 -312 t208.5 -211.5t296 -74.5q162 0 293.5 75t208 212t76.5 311q0 179 -76.5 316t-207.5 208.5t-294 71.5q-123 0 -230 -42.5t-184.5 -119t-122 -189t-44.5 -245.5zM618 362v697q0 57 32.5 86t90.5 29h299q126 0 199.5 -67.5t73.5 -182.5q0 -91 -68 -183l-43 -53l139 -326h-237 l-107 263h-149v-263h-230zM848 788h178l33 46q28 39 28 84q0 43 -24.5 67.5t-67.5 24.5h-147v-222z" />
<glyph unicode="&#xaf;" horiz-adv-x="1087" d="M162 1270v246h762v-246h-762z" />
<glyph unicode="&#xb0;" d="M201 1157q0 177 109 292.5t290 115.5q182 0 287.5 -115t105.5 -293q0 -180 -107.5 -294.5t-289.5 -114.5t-288.5 115t-106.5 294zM436 1155q0 -84 44 -136t120 -52q77 0 119.5 51.5t42.5 136.5q0 84 -44.5 135t-121.5 51q-76 0 -118 -50.5t-42 -135.5z" />
<glyph unicode="&#xb1;" d="M92 0v240h1022v-240h-1022zM92 594v252h363v280h288v-280h371v-252h-371v-268h-288v268h-363z" />
<glyph unicode="&#xb2;" horiz-adv-x="645" d="M37 1022q0 54 35 82l223 207q53 51 73.5 84t20.5 80q0 92 -102 92q-72 0 -158 -33l-59 -21l-29 162l63 21q101 37 211 37q128 0 202.5 -61.5t74.5 -186.5q0 -71 -32 -135.5t-109 -135.5l-144 -131h287v-155h-465q-44 0 -68 25.5t-24 68.5z" />
<glyph unicode="&#xb3;" horiz-adv-x="645" d="M27 977l28 162l66 -21q107 -35 180 -35q107 0 107 78q0 36 -27 66l-23 24h-161v152h155l19 24q22 25 22 64q0 76 -100 76q-65 0 -160 -31l-59 -23l-29 162l64 23q103 35 208 35q277 0 277 -224q0 -78 -55 -149l-21 -27l23 -24q69 -69 69 -158q0 -113 -78.5 -172 t-216.5 -59q-110 0 -223 36z" />
<glyph unicode="&#xb4;" horiz-adv-x="1101" d="M309 1329q0 56 47 101l148 133h420l-361 -283q-67 -53 -137 -53q-55 0 -86 31t-31 71z" />
<glyph unicode="&#xb5;" d="M102 -381v1509h334v-706q0 -72 35 -112t119 -40q70 0 170 29v829h340v-895q0 -77 -38.5 -122.5t-115.5 -67.5q-180 -49 -368 -49q-116 0 -142 26v-401h-334z" />
<glyph unicode="&#xb6;" horiz-adv-x="1300" d="M61 983q0 114 33.5 211t98.5 171.5t169.5 116.5t237.5 42h606v-1905h-262v1667h-180v-1667h-270v836q-210 27 -321.5 172.5t-111.5 355.5z" />
<glyph unicode="&#xb7;" horiz-adv-x="765" d="M201 743q0 81 49 128t137 47q87 0 136.5 -47.5t49.5 -127.5q0 -82 -49.5 -129t-136.5 -47q-89 0 -137.5 47t-48.5 129z" />
<glyph unicode="&#xb8;" horiz-adv-x="1087" d="M311 -360l41 127q90 -43 170 -43q58 0 58 38q0 32 -40 42.5t-128 5.5l-19 32l84 158h127l-41 -84q81 0 131.5 -37.5t50.5 -111.5q0 -83 -58.5 -130t-166.5 -47q-98 0 -209 50z" />
<glyph unicode="&#xb9;" horiz-adv-x="645" d="M39 928v157h203v474h-15q-23 0 -61 -8.5t-64 -24.5l-30 160q75 38 188 38h72q57 0 88 -28.5t31 -81.5v-529h163v-157h-575z" />
<glyph unicode="&#xba;" d="M172 1094q0 212 116.5 330t317.5 118t314.5 -117.5t113.5 -330.5q0 -212 -116 -331.5t-316 -119.5q-203 0 -316.5 118t-113.5 333zM444 1094q0 -258 162 -258q79 0 119.5 66.5t40.5 191.5q0 124 -42 189t-122 65q-158 0 -158 -254z" />
<glyph unicode="&#xbb;" horiz-adv-x="1206" d="M35 178l387 400l-387 401h330l262 -274q55 -58 55 -127q0 -71 -55 -129l-262 -271h-330zM504 178l379 400l-379 401h327l259 -274q53 -56 53 -127q0 -73 -53 -129l-259 -271h-327z" />
<glyph unicode="&#xbc;" horiz-adv-x="1523" d="M35 727v158h203v473h-15q-23 0 -61 -8.5t-64 -24.5l-30 160q77 39 188 39h72q57 0 87.5 -29t30.5 -82v-528h164v-158h-575zM356 0l699 1524h223l-696 -1524h-226zM868 213q0 32 25 80l260 434q43 76 131 76q125 0 125 -113v-416h70v-153h-70v-125h-199v125h-249 q-46 0 -69.5 25t-23.5 67zM1087 274h123v211z" />
<glyph unicode="&#xbd;" horiz-adv-x="1523" d="M35 727v158h203v473h-15q-23 0 -61 -8.5t-64 -24.5l-30 160q77 39 188 39h72q57 0 87.5 -29t30.5 -82v-528h164v-158h-575zM313 0l699 1524h223l-696 -1524h-226zM920 94q0 55 34 82l224 207q53 51 73.5 84t20.5 80q0 92 -103 92q-71 0 -157 -33l-60 -20l-28 162l63 20 q101 37 211 37q128 0 202.5 -61.5t74.5 -186.5q0 -70 -32.5 -134.5t-109.5 -135.5l-143 -131h287v-156h-465q-44 0 -68 25.5t-24 68.5z" />
<glyph unicode="&#xbe;" horiz-adv-x="1523" d="M23 776l28 162l66 -20q107 -35 180 -35q106 0 106 78q0 36 -26 65l-23 25h-161v151h155l19 25q22 25 22 63q0 76 -100 76q-65 0 -160 -31l-59 -22l-29 162l63 22q103 35 209 35q277 0 277 -223q0 -79 -55 -150l-21 -26l23 -25q69 -69 69 -158q0 -113 -78.5 -172 t-216.5 -59q-107 0 -223 37zM315 -2l699 1524h223l-696 -1524h-226zM872 217q0 32 25 80l260 434q43 76 131 76q125 0 125 -113v-415h70v-154h-70v-125h-199v125h-249q-46 0 -69.5 25t-23.5 67zM1092 279h122v210z" />
<glyph unicode="&#xbf;" horiz-adv-x="962" d="M49 -10q0 111 41.5 194t124.5 162l143 135v144l322 57v-137q0 -74 -15.5 -119t-64.5 -94l-137 -135q-51 -57 -69.5 -92.5t-18.5 -94.5q0 -58 38.5 -89.5t112.5 -31.5q102 0 228 37l116 33l45 -268l-104 -29q-164 -49 -324 -49q-204 0 -321 100t-117 277zM332 993 q0 77 49.5 122.5t136.5 45.5q88 0 137.5 -45.5t49.5 -122.5q0 -78 -49.5 -124t-137.5 -46q-87 0 -136.5 46.5t-49.5 123.5z" />
<glyph unicode="&#xc0;" horiz-adv-x="1499" d="M16 0l463 1358q59 182 283 182q220 0 276 -180l445 -1360h-410l-78 254h-495l-78 -254h-406zM408 1870h407l141 -101q45 -35 45 -83q0 -36 -28.5 -61.5t-81.5 -25.5q-71 0 -133 43zM573 543h353l-172 590z" />
<glyph unicode="&#xc1;" horiz-adv-x="1499" d="M16 0l463 1358q59 182 283 182q220 0 276 -180l445 -1360h-410l-78 254h-495l-78 -254h-406zM522 1686q0 50 45 83l142 101h405l-350 -228q-67 -43 -133 -43q-53 0 -81 25.5t-28 61.5zM573 543h353l-172 590z" />
<glyph unicode="&#xc2;" horiz-adv-x="1499" d="M16 0l463 1358q59 182 283 182q220 0 276 -180l445 -1360h-410l-78 254h-495l-78 -254h-406zM346 1608l242 211q64 57 172 57q111 0 174 -57l244 -211h-326l-92 92l-88 -92h-326zM573 543h353l-172 590z" />
<glyph unicode="&#xc3;" horiz-adv-x="1499" d="M16 0l463 1358q59 182 283 182q220 0 276 -180l445 -1360h-410l-78 254h-495l-78 -254h-406zM334 1688q91 202 287 202q91 0 165 -45l64 -35q33 -20 80 -20q35 0 62.5 22t54.5 76l157 -86q-91 -203 -286 -203q-87 0 -166 43l-64 37q-44 23 -78 23q-36 0 -63.5 -22 t-54.5 -76zM573 543h353l-172 590z" />
<glyph unicode="&#xc4;" horiz-adv-x="1499" d="M16 0l463 1358q59 182 283 182q220 0 276 -180l445 -1360h-410l-78 254h-495l-78 -254h-406zM383 1747q0 66 45 105.5t123 39.5q76 0 121 -39.5t45 -105.5q0 -68 -45 -108t-121 -40q-78 0 -123 40t-45 108zM573 543h353l-172 590zM809 1747q0 67 44.5 106t121.5 39 t121.5 -39t44.5 -106q0 -68 -44.5 -108t-121.5 -40t-121.5 40t-44.5 108z" />
<glyph unicode="&#xc5;" horiz-adv-x="1499" d="M16 0l463 1358q59 182 283 182q220 0 276 -180l445 -1360h-410l-78 254h-495l-78 -254h-406zM502 1808q0 95 71.5 152t186.5 57q114 0 186 -57.5t72 -151.5q0 -93 -73.5 -153t-184.5 -60q-113 0 -185.5 59.5t-72.5 153.5zM573 543h353l-172 590zM662 1808q0 -37 27 -60.5 t71 -23.5t72 23.5t28 60.5q0 34 -27.5 57t-72.5 23q-44 0 -71 -23t-27 -57z" />
<glyph unicode="&#xc6;" horiz-adv-x="2191" d="M16 0l543 1343q74 181 313 181h1237v-295h-700v-311h616v-285h-616v-338h707v-295h-904q-98 0 -153 49t-55 137v68h-486l-92 -254h-410zM614 543h390v684h-142z" />
<glyph unicode="&#xc7;" horiz-adv-x="1404" d="M76 762q0 189 54 337t151.5 243t229.5 144.5t292 49.5q203 0 428 -74l123 -39l-47 -319l-127 39q-165 57 -326 57q-356 0 -356 -438q0 -221 92 -329.5t264 -108.5q152 0 326 57l127 41l47 -326l-123 -37q-189 -62 -375 -71l-35 -72q81 0 132 -37.5t51 -111.5 q0 -83 -59 -130t-167 -47q-98 0 -209 50l41 127q90 -43 170 -43q58 0 58 38q0 32 -40 42.5t-128 5.5l-19 32l78 148q-302 21 -477.5 217.5t-175.5 554.5z" />
<glyph unicode="&#xc8;" horiz-adv-x="1296" d="M106 195v1134q0 91 55.5 143t153.5 52h899v-295h-702v-311h614v-285h-614v-338h707v-295h-904q-98 0 -153.5 52t-55.5 143zM307 1870h408l141 -101q45 -35 45 -83q0 -36 -28.5 -61.5t-81.5 -25.5q-72 0 -134 43z" />
<glyph unicode="&#xc9;" horiz-adv-x="1296" d="M106 195v1134q0 91 55.5 143t153.5 52h899v-295h-702v-311h614v-285h-614v-338h707v-295h-904q-98 0 -153.5 52t-55.5 143zM469 1686q0 50 45 83l141 101h406l-350 -228q-67 -43 -133 -43q-53 0 -81 25.5t-28 61.5z" />
<glyph unicode="&#xca;" horiz-adv-x="1296" d="M106 195v1134q0 91 55.5 143t153.5 52h899v-295h-702v-311h614v-285h-614v-338h707v-295h-904q-98 0 -153.5 52t-55.5 143zM256 1608l242 211q64 57 172 57q111 0 174 -57l243 -211h-325l-92 92l-88 -92h-326z" />
<glyph unicode="&#xcb;" horiz-adv-x="1296" d="M106 195v1134q0 91 55.5 143t153.5 52h899v-295h-702v-311h614v-285h-614v-338h707v-295h-904q-98 0 -153.5 52t-55.5 143zM303 1747q0 66 45 105.5t123 39.5q76 0 121 -39.5t45 -105.5q0 -68 -45 -108t-121 -40q-78 0 -123 40t-45 108zM729 1747q0 67 44.5 106t121.5 39 t121.5 -39t44.5 -106q0 -68 -44.5 -108t-121.5 -40t-121.5 40t-44.5 108z" />
<glyph unicode="&#xcc;" horiz-adv-x="624" d="M-49 1870h407l142 -101q45 -35 45 -83q0 -35 -29 -61t-82 -26q-71 0 -133 43zM106 0v1524h412v-1524h-412z" />
<glyph unicode="&#xcd;" horiz-adv-x="624" d="M90 1686q0 50 45 83l141 101h406l-350 -228q-67 -43 -133 -43q-53 0 -81 25.5t-28 61.5zM106 0v1524h412v-1524h-412z" />
<glyph unicode="&#xce;" horiz-adv-x="624" d="M-104 1608l241 211q64 57 172 57q111 0 174 -57l244 -211h-326l-92 92l-88 -92h-325zM106 0v1524h412v-1524h-412z" />
<glyph unicode="&#xcf;" horiz-adv-x="624" d="M-63 1747q0 66 44.5 105.5t122.5 39.5q76 0 121 -39.5t45 -105.5q0 -68 -45 -108t-121 -40q-78 0 -122.5 40t-44.5 108zM106 0v1524h412v-1524h-412zM362 1747q0 67 44.5 106t121.5 39t121.5 -39t44.5 -106q0 -68 -44.5 -108t-121.5 -40t-121.5 40t-44.5 108z" />
<glyph unicode="&#xd0;" horiz-adv-x="1550" d="M20 668v209h117v452q0 91 55 143t154 52h397q337 0 534.5 -204t197.5 -562q0 -357 -200.5 -557.5t-535.5 -200.5h-393q-99 0 -154 52t-55 143v473h-117zM543 307h190q163 0 251.5 116t88.5 335q0 218 -93 340.5t-261 122.5h-176v-344h301v-209h-301v-361z" />
<glyph unicode="&#xd1;" horiz-adv-x="1554" d="M106 0v1290q0 120 75.5 184t211.5 64q65 0 113 -15t82 -46t56.5 -66.5t45.5 -89.5l408 -770v973h350v-1291q0 -119 -74.5 -182t-212.5 -63q-124 0 -187.5 53t-109.5 164l-407 770v-975h-351zM365 1688q91 202 286 202q92 0 166 -45l64 -35q33 -20 80 -20q35 0 62 22 t54 76l158 -86q-47 -105 -122 -154t-165 -49q-87 0 -166 43l-63 37q-44 23 -78 23q-36 0 -64 -22t-55 -76z" />
<glyph unicode="&#xd2;" horiz-adv-x="1660" d="M76 760q0 242 96 418.5t266.5 266t395.5 89.5q170 0 308.5 -51.5t237 -149t152 -244t53.5 -329.5q0 -185 -55 -332t-155 -243.5t-240 -147.5t-310 -51q-169 0 -307.5 51.5t-236.5 149t-151.5 244t-53.5 329.5zM477 1870h408l141 -101q45 -35 45 -83q0 -36 -28.5 -61.5 t-81.5 -25.5q-72 0 -134 43zM485 760q0 -232 92 -360t257 -128q164 0 252 126.5t88 361.5q0 230 -91.5 356.5t-257.5 126.5q-164 0 -252 -126t-88 -357z" />
<glyph unicode="&#xd3;" horiz-adv-x="1660" d="M76 760q0 242 96 418.5t266.5 266t395.5 89.5q170 0 308.5 -51.5t237 -149t152 -244t53.5 -329.5q0 -185 -55 -332t-155 -243.5t-240 -147.5t-310 -51q-169 0 -307.5 51.5t-236.5 149t-151.5 244t-53.5 329.5zM485 760q0 -232 92 -360t257 -128q164 0 252 126.5t88 361.5 q0 230 -91.5 356.5t-257.5 126.5q-164 0 -252 -126t-88 -357zM639 1686q0 50 45 83l141 101h406l-350 -228q-67 -43 -133 -43q-53 0 -81 25.5t-28 61.5z" />
<glyph unicode="&#xd4;" horiz-adv-x="1660" d="M76 760q0 242 96 418.5t266.5 266t395.5 89.5q170 0 308.5 -51.5t237 -149t152 -244t53.5 -329.5q0 -185 -55 -332t-155 -243.5t-240 -147.5t-310 -51q-169 0 -307.5 51.5t-236.5 149t-151.5 244t-53.5 329.5zM424 1608l242 211q64 57 172 57q111 0 174 -57l243 -211 h-325l-92 92l-88 -92h-326zM485 760q0 -232 92 -360t257 -128q164 0 252 126.5t88 361.5q0 230 -91.5 356.5t-257.5 126.5q-164 0 -252 -126t-88 -357z" />
<glyph unicode="&#xd5;" horiz-adv-x="1660" d="M76 760q0 242 96 418.5t266.5 266t395.5 89.5q170 0 308.5 -51.5t237 -149t152 -244t53.5 -329.5q0 -185 -55 -332t-155 -243.5t-240 -147.5t-310 -51q-169 0 -307.5 51.5t-236.5 149t-151.5 244t-53.5 329.5zM414 1688q91 202 286 202q92 0 166 -45l64 -35 q33 -20 80 -20q35 0 62 22t54 76l158 -86q-47 -105 -122 -154t-165 -49q-87 0 -166 43l-63 37q-44 23 -78 23q-36 0 -64 -22t-55 -76zM485 760q0 -232 92 -360t257 -128q164 0 252 126.5t88 361.5q0 230 -91.5 356.5t-257.5 126.5q-164 0 -252 -126t-88 -357z" />
<glyph unicode="&#xd6;" horiz-adv-x="1660" d="M76 760q0 242 96 418.5t266.5 266t395.5 89.5q170 0 308.5 -51.5t237 -149t152 -244t53.5 -329.5q0 -185 -55 -332t-155 -243.5t-240 -147.5t-310 -51q-169 0 -307.5 51.5t-236.5 149t-151.5 244t-53.5 329.5zM453 1747q0 66 45 105.5t123 39.5q76 0 120.5 -39.5 t44.5 -105.5q0 -68 -44.5 -108t-120.5 -40q-78 0 -123 40t-45 108zM485 760q0 -232 92 -360t257 -128q164 0 252 126.5t88 361.5q0 230 -91.5 356.5t-257.5 126.5q-164 0 -252 -126t-88 -357zM879 1747q0 67 44 106t121 39t121.5 -39t44.5 -106q0 -68 -44.5 -108t-121.5 -40 t-121 40t-44 108z" />
<glyph unicode="&#xd7;" d="M90 287l305 309l-305 307l203 201l307 -305l307 305l203 -201l-307 -307l307 -309l-203 -201l-307 305l-307 -305z" />
<glyph unicode="&#xd8;" horiz-adv-x="1660" d="M76 760q0 242 96 418.5t266.5 266t395.5 89.5q146 0 264 -37l69 125h267l-127 -229q134 -98 206 -258.5t72 -374.5q0 -185 -55 -332t-155 -243.5t-240 -147.5t-310 -51q-147 0 -268 37l-72 -129h-268l129 235q-130 98 -200 258.5t-70 372.5zM485 760q0 -172 50 -287 l411 748q-58 22 -121 22q-164 0 -252 -126t-88 -357zM707 295q61 -23 127 -23q164 0 252 126.5t88 361.5q0 171 -54 291z" />
<glyph unicode="&#xd9;" horiz-adv-x="1499" d="M96 565v959h408v-957q0 -260 246 -260q245 0 245 260v957h408v-959q0 -281 -168.5 -436.5t-486.5 -155.5q-317 0 -484.5 155t-167.5 437zM342 1870h408l141 -101q45 -35 45 -83q0 -35 -29 -61t-82 -26q-71 0 -133 43z" />
<glyph unicode="&#xda;" horiz-adv-x="1499" d="M96 565v959h408v-957q0 -260 246 -260q245 0 245 260v957h408v-959q0 -281 -168.5 -436.5t-486.5 -155.5q-317 0 -484.5 155t-167.5 437zM584 1686q0 50 45 83l141 101h406l-351 -228q-67 -43 -133 -43q-53 0 -80.5 25.5t-27.5 61.5z" />
<glyph unicode="&#xdb;" horiz-adv-x="1499" d="M96 565v959h408v-957q0 -260 246 -260q245 0 245 260v957h408v-959q0 -281 -168.5 -436.5t-486.5 -155.5q-317 0 -484.5 155t-167.5 437zM334 1608l241 211q64 57 173 57q111 0 174 -57l243 -211h-325l-92 92l-89 -92h-325z" />
<glyph unicode="&#xdc;" horiz-adv-x="1499" d="M96 565v959h408v-957q0 -260 246 -260q245 0 245 260v957h408v-959q0 -281 -168.5 -436.5t-486.5 -155.5q-317 0 -484.5 155t-167.5 437zM377 1747q0 66 45 105.5t123 39.5q76 0 121 -39.5t45 -105.5q0 -68 -45 -108t-121 -40q-78 0 -123 40t-45 108zM803 1747 q0 67 44.5 106t121.5 39t121.5 -39t44.5 -106q0 -68 -44.5 -108t-121.5 -40t-121.5 40t-44.5 108z" />
<glyph unicode="&#xdd;" horiz-adv-x="1511" d="M12 1524h443l309 -559l297 559h436l-534 -903v-621h-410v618zM590 1686q0 50 45 83l141 101h406l-351 -228q-67 -43 -133 -43q-53 0 -80.5 25.5t-27.5 61.5z" />
<glyph unicode="&#xde;" horiz-adv-x="1366" d="M106 0v1524h398v-238h280q234 0 373 -133.5t139 -364.5t-143.5 -365t-388.5 -134h-260v-289h-398zM504 582h223q93 0 148 54.5t55 151.5q0 96 -54 152.5t-143 56.5h-229v-415z" />
<glyph unicode="&#xdf;" horiz-adv-x="1196" d="M100 0v1153q0 113 36 199t100.5 137t147 76.5t181.5 25.5q212 0 339.5 -104t127.5 -295q0 -144 -80 -274l-69 -103l102 -94q75 -72 111.5 -149t36.5 -175q0 -185 -121 -291t-336 -106h-135v266h118q74 0 113 42.5t39 111.5q0 75 -68 149l-108 117q-86 92 -21 217l60 117 q37 69 37 160q0 69 -38.5 109t-103.5 40q-135 0 -135 -168v-1161h-334z" />
<glyph unicode="&#xe0;" horiz-adv-x="1243" d="M74 324q0 356 491 356h207v55q0 142 -172 142q-141 0 -332 -58l-116 -39l-41 256l116 35q229 72 410 72q102 0 182.5 -21.5t142.5 -67t95 -122.5t33 -182v-492l120 -74l-123 -213l-100 56q-67 36 -164 16l-57 -14q-180 -41 -287 -41q-191 0 -298 89t-107 247zM266 1563 h420l148 -133q45 -45 45 -101q0 -41 -30 -71.5t-85 -30.5q-69 0 -139 53zM399 334q0 -57 39 -85t107 -28q65 0 157 25l74 18v197h-201q-176 0 -176 -127z" />
<glyph unicode="&#xe1;" horiz-adv-x="1243" d="M74 324q0 356 491 356h207v55q0 142 -172 142q-141 0 -332 -58l-116 -39l-41 256l116 35q229 72 410 72q102 0 182.5 -21.5t142.5 -67t95 -122.5t33 -182v-492l120 -74l-123 -213l-100 56q-67 36 -164 16l-57 -14q-180 -41 -287 -41q-191 0 -298 89t-107 247zM399 334 q0 -57 39 -85t107 -28q65 0 157 25l74 18v197h-201q-176 0 -176 -127zM432 1329q0 56 47 101l148 133h420l-361 -283q-67 -53 -137 -53q-55 0 -86 31t-31 71z" />
<glyph unicode="&#xe2;" horiz-adv-x="1243" d="M74 324q0 356 491 356h207v55q0 142 -172 142q-141 0 -332 -58l-116 -39l-41 256l116 35q229 72 410 72q102 0 182.5 -21.5t142.5 -67t95 -122.5t33 -182v-492l120 -74l-123 -213l-100 56q-67 36 -164 16l-57 -14q-180 -41 -287 -41q-191 0 -298 89t-107 247zM199 1229 l252 272q68 68 178 68t178 -68l256 -272h-336l-98 131l-94 -131h-336zM399 334q0 -57 39 -85t107 -28q65 0 157 25l74 18v197h-201q-176 0 -176 -127z" />
<glyph unicode="&#xe3;" horiz-adv-x="1243" d="M74 324q0 356 491 356h207v55q0 142 -172 142q-141 0 -332 -58l-116 -39l-41 256l116 35q229 72 410 72q102 0 182.5 -21.5t142.5 -67t95 -122.5t33 -182v-492l120 -74l-123 -213l-100 56q-67 36 -164 16l-57 -14q-180 -41 -287 -41q-191 0 -298 89t-107 247zM172 1327 q48 130 129 191t178 61q95 0 170 -57l66 -45q39 -27 80 -27q38 0 68 28.5t57 94.5l165 -105q-48 -129 -129 -189t-178 -60q-93 0 -172 55l-63 45q-45 31 -82 31q-72 0 -125 -123zM399 334q0 -57 39 -85t107 -28q65 0 157 25l74 18v197h-201q-176 0 -176 -127z" />
<glyph unicode="&#xe4;" horiz-adv-x="1243" d="M74 324q0 356 491 356h207v55q0 142 -172 142q-141 0 -332 -58l-116 -39l-41 256l116 35q229 72 410 72q102 0 182.5 -21.5t142.5 -67t95 -122.5t33 -182v-492l120 -74l-123 -213l-100 56q-67 36 -164 16l-57 -14q-180 -41 -287 -41q-191 0 -298 89t-107 247zM240 1413 q0 76 46 121t128 45q79 0 125.5 -45.5t46.5 -120.5q0 -77 -46.5 -122.5t-125.5 -45.5q-82 0 -128 45.5t-46 122.5zM399 334q0 -57 39 -85t107 -28q65 0 157 25l74 18v197h-201q-176 0 -176 -127zM680 1413q0 76 46.5 121t127.5 45t127.5 -45t46.5 -121q0 -77 -46.5 -122.5 t-127.5 -45.5t-127.5 45.5t-46.5 122.5z" />
<glyph unicode="&#xe5;" horiz-adv-x="1243" d="M74 324q0 356 491 356h207v55q0 142 -172 142q-141 0 -332 -58l-116 -39l-41 256l116 35q229 72 410 72q102 0 182.5 -21.5t142.5 -67t95 -122.5t33 -182v-492l120 -74l-123 -213l-100 56q-67 36 -164 16l-57 -14q-180 -41 -287 -41q-191 0 -298 89t-107 247zM358 1456 q0 114 77.5 184t195.5 70t196 -70t78 -184q0 -112 -79 -185t-195 -73t-194.5 72.5t-78.5 185.5zM399 334q0 -57 39 -85t107 -28q65 0 157 25l74 18v197h-201q-176 0 -176 -127zM524 1456q0 -45 30 -74.5t77 -29.5t77.5 29.5t30.5 74.5q0 42 -30 71t-78 29t-77.5 -29 t-29.5 -71z" />
<glyph unicode="&#xe6;" horiz-adv-x="1896" d="M74 324q0 356 491 356h207v55q0 142 -172 142q-141 0 -332 -58l-116 -39l-41 256l116 35q229 72 410 72q225 0 332 -121q136 121 342 121q246 0 384 -138.5t138 -414.5q0 -67 -32 -98t-101 -31h-604q10 -105 81 -158t189 -53q147 0 305 49l109 33l39 -244l-109 -35 q-207 -65 -369 -65q-169 0 -286 57q-65 31 -135 16l-152 -32q-205 -41 -289 -41q-191 0 -298 89t-107 247zM399 334q0 -57 39 -85t107 -28q69 0 157 21l132 28q-42 76 -54 191h-205q-176 0 -176 -127zM1094 678h415q0 101 -52 165t-157 64q-91 0 -144.5 -61t-61.5 -168z" />
<glyph unicode="&#xe7;" horiz-adv-x="1091" d="M74 563q0 278 147 428t393 150q146 0 324 -56l96 -28l-39 -269l-90 29q-160 49 -252 49q-119 0 -178 -74.5t-59 -228.5q0 -301 239 -301q101 0 250 49l90 27l39 -268l-96 -29q-146 -47 -279 -53l-34 -72q81 0 131.5 -37.5t50.5 -111.5q0 -83 -58.5 -130t-166.5 -47 q-98 0 -209 50l41 127q90 -43 170 -43q57 0 57 38q0 32 -40 42.5t-128 5.5l-18 32l77 148q-212 24 -335 170t-123 403z" />
<glyph unicode="&#xe8;" horiz-adv-x="1200" d="M74 561q0 146 43 259.5t118 182.5t171 104.5t208 35.5q246 0 384.5 -138.5t138.5 -414.5q0 -67 -32 -98t-101 -31h-605q10 -105 81.5 -158t189.5 -53q147 0 305 49l106 33l41 -244l-108 -35q-207 -65 -371 -65q-264 0 -416.5 146.5t-152.5 426.5zM221 1563h420l147 -133 q46 -46 46 -101q0 -41 -30 -71.5t-85 -30.5q-69 0 -139 53zM397 678h416q0 101 -52 165t-157 64q-92 0 -146.5 -61t-60.5 -168z" />
<glyph unicode="&#xe9;" horiz-adv-x="1200" d="M74 561q0 146 43 259.5t118 182.5t171 104.5t208 35.5q246 0 384.5 -138.5t138.5 -414.5q0 -67 -32 -98t-101 -31h-605q10 -105 81.5 -158t189.5 -53q147 0 305 49l106 33l41 -244l-108 -35q-207 -65 -371 -65q-264 0 -416.5 146.5t-152.5 426.5zM397 678h416 q0 101 -52 165t-157 64q-92 0 -146.5 -61t-60.5 -168zM420 1329q0 56 47 101l147 133h420l-360 -283q-67 -53 -137 -53q-55 0 -86 31t-31 71z" />
<glyph unicode="&#xea;" horiz-adv-x="1200" d="M74 561q0 146 43 259.5t118 182.5t171 104.5t208 35.5q246 0 384.5 -138.5t138.5 -414.5q0 -67 -32 -98t-101 -31h-605q10 -105 81.5 -158t189.5 -53q147 0 305 49l106 33l41 -244l-108 -35q-207 -65 -371 -65q-264 0 -416.5 146.5t-152.5 426.5zM186 1229l252 272 q68 68 178 68q111 0 179 -68l256 -272h-336l-99 131l-94 -131h-336zM397 678h416q0 101 -52 165t-157 64q-92 0 -146.5 -61t-60.5 -168z" />
<glyph unicode="&#xeb;" horiz-adv-x="1200" d="M74 561q0 146 43 259.5t118 182.5t171 104.5t208 35.5q246 0 384.5 -138.5t138.5 -414.5q0 -67 -32 -98t-101 -31h-605q10 -105 81.5 -158t189.5 -53q147 0 305 49l106 33l41 -244l-108 -35q-207 -65 -371 -65q-264 0 -416.5 146.5t-152.5 426.5zM225 1413q0 76 46 121 t128 45q79 0 125.5 -45.5t46.5 -120.5q0 -77 -46.5 -122.5t-125.5 -45.5q-82 0 -128 45.5t-46 122.5zM397 678h416q0 101 -52 165t-157 64q-92 0 -146.5 -61t-60.5 -168zM666 1413q0 76 46.5 121t127.5 45t127.5 -45t46.5 -121q0 -77 -46.5 -122.5t-127.5 -45.5t-127.5 45.5 t-46.5 122.5z" />
<glyph unicode="&#xec;" horiz-adv-x="544" d="M-113 1563h420l148 -133q45 -45 45 -101q0 -41 -30 -71.5t-85 -30.5q-69 0 -139 53zM106 0v1128h330v-1128h-330z" />
<glyph unicode="&#xed;" horiz-adv-x="544" d="M27 1329q0 56 47 101l147 133h420l-360 -283q-67 -53 -138 -53q-55 0 -85.5 31t-30.5 71zM106 0v1128h330v-1128h-330z" />
<glyph unicode="&#xee;" horiz-adv-x="544" d="M-154 1229l252 272q68 68 178 68q111 0 179 -68l256 -272h-336l-99 131l-94 -131h-336zM106 0v1128h330v-1128h-330z" />
<glyph unicode="&#xef;" horiz-adv-x="544" d="M-119 1413q0 76 46 121t128 45q79 0 125.5 -45.5t46.5 -120.5q0 -77 -46.5 -122.5t-125.5 -45.5q-82 0 -128 45.5t-46 122.5zM106 0v1128h330v-1128h-330zM322 1413q0 76 46.5 121t127.5 45t127.5 -45t46.5 -121q0 -77 -46.5 -122.5t-127.5 -45.5t-127.5 45.5 t-46.5 122.5z" />
<glyph unicode="&#xf0;" horiz-adv-x="1280" d="M80 532q0 232 128.5 373.5t358.5 141.5q44 0 89 -6t71.5 -12t65 -17t47.5 -13v66q0 85 -31 152l-283 -136v174l170 82q-68 33 -149 33h-119v193h174q224 0 371 -93l231 111v-172l-112 -55q86 -127 86 -318v-528q0 -237 -144 -377.5t-409 -140.5q-261 0 -403 148t-142 394 zM420 528q0 -141 54 -215.5t157 -74.5q106 0 156.5 69t50.5 209v254q-122 31 -197 31q-116 0 -168.5 -73t-52.5 -200z" />
<glyph unicode="&#xf1;" horiz-adv-x="1202" d="M102 0v897q0 77 38 121t116 67q188 54 369 54q243 0 359 -107t116 -295v-737h-334v707q0 72 -35 111.5t-119 39.5q-70 0 -170 -29v-829h-340zM150 1327q48 130 129 191t178 61q95 0 170 -57l65 -45q39 -27 80 -27q38 0 68 28.5t57 94.5l166 -105q-48 -129 -129 -189 t-178 -60q-93 0 -172 55l-64 45q-45 31 -82 31q-72 0 -125 -123z" />
<glyph unicode="&#xf2;" horiz-adv-x="1269" d="M74 563q0 275 152 426.5t413 151.5q262 0 409.5 -151t147.5 -427q0 -274 -151 -424.5t-412 -150.5q-262 0 -410.5 151.5t-148.5 423.5zM281 1563h419l148 -133q45 -45 45 -101q0 -41 -30 -71.5t-85 -30.5q-69 0 -139 53zM414 563q0 -334 225 -334q108 0 163.5 84.5 t55.5 249.5q0 164 -57.5 250t-167.5 86q-219 0 -219 -336z" />
<glyph unicode="&#xf3;" horiz-adv-x="1269" d="M74 563q0 275 152 426.5t413 151.5q262 0 409.5 -151t147.5 -427q0 -274 -151 -424.5t-412 -150.5q-262 0 -410.5 151.5t-148.5 423.5zM403 1329q0 55 48 101l147 133h420l-361 -283q-67 -53 -137 -53q-55 0 -86 31t-31 71zM414 563q0 -334 225 -334q108 0 163.5 84.5 t55.5 249.5q0 164 -57.5 250t-167.5 86q-219 0 -219 -336z" />
<glyph unicode="&#xf4;" horiz-adv-x="1269" d="M74 563q0 275 152 426.5t413 151.5q262 0 409.5 -151t147.5 -427q0 -274 -151 -424.5t-412 -150.5q-262 0 -410.5 151.5t-148.5 423.5zM205 1229l252 272q68 68 178 68t178 -68l256 -272h-336l-98 131l-94 -131h-336zM414 563q0 -334 225 -334q108 0 163.5 84.5 t55.5 249.5q0 164 -57.5 250t-167.5 86q-219 0 -219 -336z" />
<glyph unicode="&#xf5;" horiz-adv-x="1269" d="M74 563q0 275 152 426.5t413 151.5q262 0 409.5 -151t147.5 -427q0 -274 -151 -424.5t-412 -150.5q-262 0 -410.5 151.5t-148.5 423.5zM197 1327q48 130 129 191t178 61q95 0 170 -57l65 -45q39 -27 80 -27q38 0 68 28.5t57 94.5l166 -105q-48 -129 -129 -189t-178 -60 q-93 0 -172 55l-64 45q-45 31 -82 31q-72 0 -125 -123zM414 563q0 -334 225 -334q108 0 163.5 84.5t55.5 249.5q0 164 -57.5 250t-167.5 86q-219 0 -219 -336z" />
<glyph unicode="&#xf6;" horiz-adv-x="1269" d="M74 563q0 275 152 426.5t413 151.5q262 0 409.5 -151t147.5 -427q0 -274 -151 -424.5t-412 -150.5q-262 0 -410.5 151.5t-148.5 423.5zM248 1413q0 76 46 121t128 45q79 0 125.5 -45.5t46.5 -120.5q0 -77 -46.5 -122.5t-125.5 -45.5q-82 0 -128 45.5t-46 122.5zM414 563 q0 -334 225 -334q108 0 163.5 84.5t55.5 249.5q0 164 -57.5 250t-167.5 86q-219 0 -219 -336zM688 1413q0 76 46.5 121t127.5 45t127.5 -45t46.5 -121q0 -77 -46.5 -122.5t-127.5 -45.5t-127.5 45.5t-46.5 122.5z" />
<glyph unicode="&#xf7;" d="M92 475v252h1022v-252h-1022zM418 201q0 73 49.5 117t134.5 44t134.5 -44t49.5 -117t-49.5 -116.5t-134.5 -43.5t-134.5 43.5t-49.5 116.5zM418 999q0 72 49.5 117t134.5 45t134.5 -45t49.5 -117q0 -74 -49 -117.5t-135 -43.5t-135 43.5t-49 117.5z" />
<glyph unicode="&#xf8;" horiz-adv-x="1269" d="M74 563q0 275 152 426.5t413 151.5q92 0 182 -23l58 103h235l-106 -195q188 -149 188 -463q0 -274 -151 -424.5t-412 -150.5q-96 0 -182 22l-62 -114h-237l112 204q-190 151 -190 463zM414 563q0 -88 16 -157l266 485q-24 8 -63 8q-219 0 -219 -336zM575 238q27 -9 64 -9 q108 0 163.5 84.5t55.5 249.5q0 91 -18 158z" />
<glyph unicode="&#xf9;" horiz-adv-x="1202" d="M102 391v737h334v-706q0 -72 35 -112t119 -40q69 0 170 27v831h340v-897q0 -77 -38 -121t-116 -67q-185 -53 -368 -53q-244 0 -360 106.5t-116 294.5zM213 1563h420l147 -133q45 -45 45 -101q0 -41 -29.5 -71.5t-84.5 -30.5q-70 0 -140 53z" />
<glyph unicode="&#xfa;" horiz-adv-x="1202" d="M102 391v737h334v-706q0 -72 35 -112t119 -40q69 0 170 27v831h340v-897q0 -77 -38 -121t-116 -67q-185 -53 -368 -53q-244 0 -360 106.5t-116 294.5zM375 1329q0 56 47 101l147 133h420l-360 -283q-67 -53 -137 -53q-55 0 -86 31t-31 71z" />
<glyph unicode="&#xfb;" horiz-adv-x="1202" d="M102 391v737h334v-706q0 -72 35 -112t119 -40q69 0 170 27v831h340v-897q0 -77 -38 -121t-116 -67q-185 -53 -368 -53q-244 0 -360 106.5t-116 294.5zM170 1229l252 272q68 68 178 68t178 -68l256 -272h-336l-98 131l-94 -131h-336z" />
<glyph unicode="&#xfc;" horiz-adv-x="1202" d="M102 391v737h334v-706q0 -72 35 -112t119 -40q69 0 170 27v831h340v-897q0 -77 -38 -121t-116 -67q-185 -53 -368 -53q-244 0 -360 106.5t-116 294.5zM211 1413q0 76 46 121t128 45q79 0 125.5 -45.5t46.5 -120.5q0 -77 -46.5 -122.5t-125.5 -45.5q-82 0 -128 45.5 t-46 122.5zM651 1413q0 76 46.5 121t127.5 45t127.5 -45t46.5 -121q0 -77 -46.5 -122.5t-127.5 -45.5t-127.5 45.5t-46.5 122.5z" />
<glyph unicode="&#xfd;" horiz-adv-x="1198" d="M29 1128h370l228 -731l198 731h349l-402 -1208q-98 -295 -405 -295q-125 0 -279 49l41 242q5 -1 32.5 -8.5t35 -9.5t30 -7t34.5 -6.5t30.5 -3.5t34.5 -2q109 0 131 98l10 35zM446 1329q0 55 48 101l147 133h420l-361 -283q-67 -53 -137 -53q-55 0 -86 31t-31 71z" />
<glyph unicode="&#xfe;" horiz-adv-x="1232" d="M102 -381v1911l334 59v-487q162 33 226 33q497 0 497 -566q0 -275 -128.5 -425t-377.5 -150q-93 0 -217 39v-355zM436 291q101 -31 170 -31q117 0 170 75t53 230t-53.5 230t-171.5 75q-63 0 -168 -28v-551z" />
<glyph unicode="&#xff;" horiz-adv-x="1198" d="M29 1128h370l228 -731l198 731h349l-402 -1208q-98 -295 -405 -295q-125 0 -279 49l41 242q5 -1 32.5 -8.5t35 -9.5t30 -7t34.5 -6.5t30.5 -3.5t34.5 -2q109 0 131 98l10 35zM223 1413q0 76 46 121t128 45q79 0 125.5 -45.5t46.5 -120.5q0 -77 -46.5 -122.5t-125.5 -45.5 q-82 0 -128 45.5t-46 122.5zM664 1413q0 76 46.5 121t127.5 45t127.5 -45t46.5 -121q0 -77 -46.5 -122.5t-127.5 -45.5t-127.5 45.5t-46.5 122.5z" />
<glyph unicode="&#x100;" horiz-adv-x="1499" d="M16 0l463 1358q59 182 283 182q220 0 276 -180l445 -1360h-410l-78 254h-495l-78 -254h-406zM393 1618v205h733v-205h-733zM573 543h353l-172 590z" />
<glyph unicode="&#x101;" horiz-adv-x="1243" d="M74 324q0 356 491 356h207v55q0 142 -172 142q-141 0 -332 -58l-116 -39l-41 256l116 35q229 72 410 72q102 0 182.5 -21.5t142.5 -67t95 -122.5t33 -182v-492l120 -74l-123 -213l-100 56q-67 36 -164 16l-57 -14q-180 -41 -287 -41q-191 0 -298 89t-107 247zM233 1270 v246h762v-246h-762zM399 334q0 -57 39 -85t107 -28q65 0 157 25l74 18v197h-201q-176 0 -176 -127z" />
<glyph unicode="&#x102;" horiz-adv-x="1499" d="M16 0l463 1358q59 182 283 182q220 0 276 -180l445 -1360h-410l-78 254h-495l-78 -254h-406zM369 1874h272q0 -51 32.5 -80t88.5 -29t88.5 29t32.5 80h270q0 -125 -112 -200t-279 -75q-109 0 -198 32.5t-142 95.5t-53 147zM573 543h353l-172 590z" />
<glyph unicode="&#x103;" horiz-adv-x="1243" d="M74 324q0 356 491 356h207v55q0 142 -172 142q-141 0 -332 -58l-116 -39l-41 256l116 35q229 72 410 72q102 0 182.5 -21.5t142.5 -67t95 -122.5t33 -182v-492l120 -74l-123 -213l-100 56q-67 36 -164 16l-57 -14q-180 -41 -287 -41q-191 0 -298 89t-107 247zM199 1563 h284q0 -67 33.5 -105.5t89.5 -38.5t89.5 38.5t33.5 105.5h285q0 -154 -117 -248t-291 -94q-175 0 -291 94t-116 248zM399 334q0 -57 39 -85t107 -28q65 0 157 25l74 18v197h-201q-176 0 -176 -127z" />
<glyph unicode="&#x104;" horiz-adv-x="1499" d="M16 0l463 1358q59 182 283 182q220 0 276 -180l445 -1360q-90 -55 -90 -123q0 -65 86 -65q91 0 198 45l37 -154q-133 -53 -260 -53q-112 0 -182 43t-70 127q0 60 32.5 106.5t82.5 73.5h-244l-78 254h-495l-78 -254h-406zM573 543h353l-172 590z" />
<glyph unicode="&#x105;" horiz-adv-x="1243" d="M74 324q0 356 491 356h207v55q0 142 -172 142q-141 0 -332 -58l-116 -39l-41 256l116 35q229 72 410 72q102 0 182.5 -21.5t142.5 -67t95 -122.5t33 -182v-492l120 -74l-123 -213q-69 -39 -69 -108q0 -66 84 -66q94 0 201 45l36 -153q-136 -54 -262 -54 q-117 0 -184.5 48.5t-67.5 136.5q0 72 38 130.5t100 86.5q-63 22 -140 6l-57 -14q-180 -41 -287 -41q-191 0 -298 89t-107 247zM399 334q0 -57 39 -85t107 -28q65 0 157 25l74 18v197h-201q-176 0 -176 -127z" />
<glyph unicode="&#x106;" horiz-adv-x="1404" d="M76 762q0 189 54 337t151.5 243t229.5 144.5t292 49.5q203 0 428 -74l123 -39l-47 -319l-127 39q-165 57 -326 57q-356 0 -356 -438q0 -221 92 -329.5t264 -108.5q152 0 326 57l127 41l47 -326l-123 -37q-222 -73 -430 -73q-162 0 -294 48.5t-228.5 143.5t-149.5 244 t-53 340zM586 1686q0 50 45 83l141 101h406l-351 -228q-67 -43 -133 -43q-53 0 -80.5 25.5t-27.5 61.5z" />
<glyph unicode="&#x107;" horiz-adv-x="1091" d="M74 563q0 278 147 428t393 150q146 0 324 -56l96 -28l-39 -269l-90 29q-160 49 -252 49q-119 0 -178 -74.5t-59 -228.5q0 -301 239 -301q101 0 250 49l90 27l39 -268l-96 -29q-174 -55 -324 -55q-247 0 -393.5 148t-146.5 429zM397 1329q0 56 47 101l148 133h420 l-361 -283q-67 -53 -137 -53q-55 0 -86 31t-31 71z" />
<glyph unicode="&#x108;" horiz-adv-x="1404" d="M76 762q0 189 54 337t151.5 243t229.5 144.5t292 49.5q203 0 428 -74l123 -39l-47 -319l-127 39q-165 57 -326 57q-356 0 -356 -438q0 -221 92 -329.5t264 -108.5q152 0 326 57l127 41l47 -326l-123 -37q-222 -73 -430 -73q-162 0 -294 48.5t-228.5 143.5t-149.5 244 t-53 340zM391 1608l242 211q64 57 172 57q111 0 174 -57l244 -211h-326l-92 92l-88 -92h-326z" />
<glyph unicode="&#x109;" horiz-adv-x="1091" d="M74 563q0 278 147 428t393 150q146 0 324 -56l96 -28l-39 -269l-90 29q-160 49 -252 49q-119 0 -178 -74.5t-59 -228.5q0 -301 239 -301q101 0 250 49l90 27l39 -268l-96 -29q-174 -55 -324 -55q-247 0 -393.5 148t-146.5 429zM184 1229l252 272q68 68 178 68 q111 0 179 -68l256 -272h-336l-99 131l-94 -131h-336z" />
<glyph unicode="&#x10a;" horiz-adv-x="1404" d="M76 762q0 189 54 337t151.5 243t229.5 144.5t292 49.5q203 0 428 -74l123 -39l-47 -319l-127 39q-165 57 -326 57q-356 0 -356 -438q0 -221 92 -329.5t264 -108.5q152 0 326 57l127 41l47 -326l-123 -37q-222 -73 -430 -73q-162 0 -294 48.5t-228.5 143.5t-149.5 244 t-53 340zM621 1749q0 68 47.5 107.5t132.5 39.5q84 0 131 -39.5t47 -107.5t-47 -109t-131 -41q-85 0 -132.5 40.5t-47.5 109.5z" />
<glyph unicode="&#x10b;" horiz-adv-x="1091" d="M74 563q0 278 147 428t393 150q146 0 324 -56l96 -28l-39 -269l-90 29q-160 49 -252 49q-119 0 -178 -74.5t-59 -228.5q0 -301 239 -301q101 0 250 49l90 27l39 -268l-96 -29q-174 -55 -324 -55q-247 0 -393.5 148t-146.5 429zM430 1411q0 76 49 122t137 46q87 0 137 -46 t50 -122q0 -77 -50 -123.5t-137 -46.5q-88 0 -137 46t-49 124z" />
<glyph unicode="&#x10c;" horiz-adv-x="1404" d="M76 762q0 189 54 337t151.5 243t229.5 144.5t292 49.5q203 0 428 -74l123 -39l-47 -319l-127 39q-165 57 -326 57q-356 0 -356 -438q0 -221 92 -329.5t264 -108.5q152 0 326 57l127 41l47 -326l-123 -37q-222 -73 -430 -73q-162 0 -294 48.5t-228.5 143.5t-149.5 244 t-53 340zM393 1868h326l94 -94l88 94h326l-242 -213q-63 -56 -172 -56t-174 56z" />
<glyph unicode="&#x10d;" horiz-adv-x="1091" d="M74 563q0 278 147 428t393 150q146 0 324 -56l96 -28l-39 -269l-90 29q-160 49 -252 49q-119 0 -178 -74.5t-59 -228.5q0 -301 239 -301q101 0 250 49l90 27l39 -268l-96 -29q-174 -55 -324 -55q-247 0 -393.5 148t-146.5 429zM193 1565h335l99 -129l94 129h336 l-254 -271q-60 -67 -176 -67q-120 0 -178 67z" />
<glyph unicode="&#x10e;" horiz-adv-x="1521" d="M106 195v1134q0 91 55.5 143t153.5 52h398q339 0 535 -203.5t196 -562.5q0 -357 -199.5 -557.5t-535.5 -200.5h-394q-98 0 -153.5 52t-55.5 143zM291 1868h325l95 -94l88 94h325l-241 -213q-63 -56 -172 -56t-174 56zM512 307h190q163 0 252.5 116t89.5 335 q0 217 -93.5 340t-260.5 123h-178v-914z" />
<glyph unicode="&#x10f;" horiz-adv-x="1603" d="M74 559q0 276 128 426t378 150q91 0 215 -39v434l333 59v-1360q0 -76 -33.5 -118.5t-111.5 -67.5q-175 -53 -360 -53q-260 0 -404.5 149.5t-144.5 419.5zM403 561q0 -311 236 -311q56 0 156 20v568q-106 30 -168 30q-118 0 -171 -75t-53 -232zM1247 1223l82 352h295 l-121 -412q-29 -108 -137 -108q-81 0 -109.5 47.5t-9.5 120.5z" />
<glyph unicode="&#x110;" horiz-adv-x="1550" d="M20 668v209h117v452q0 91 55 143t154 52h397q337 0 534.5 -204t197.5 -562q0 -357 -200.5 -557.5t-535.5 -200.5h-393q-99 0 -154 52t-55 143v473h-117zM543 307h190q163 0 251.5 116t88.5 335q0 218 -93 340.5t-261 122.5h-176v-344h301v-209h-301v-361z" />
<glyph unicode="&#x111;" horiz-adv-x="1232" d="M74 559q0 276 128 426t378 150q91 0 215 -39v129h-291v209h291v96l333 59v-155h101v-209h-101v-996q0 -76 -33.5 -118.5t-111.5 -67.5q-175 -53 -360 -53q-260 0 -404.5 149.5t-144.5 419.5zM403 561q0 -311 236 -311q56 0 156 20v568q-106 30 -168 30q-118 0 -171 -75 t-53 -232z" />
<glyph unicode="&#x112;" horiz-adv-x="1296" d="M106 195v1134q0 91 55.5 143t153.5 52h899v-295h-702v-311h614v-285h-614v-338h707v-295h-904q-98 0 -153.5 52t-55.5 143zM313 1618v205h734v-205h-734z" />
<glyph unicode="&#x113;" horiz-adv-x="1200" d="M74 561q0 146 43 259.5t118 182.5t171 104.5t208 35.5q246 0 384.5 -138.5t138.5 -414.5q0 -67 -32 -98t-101 -31h-605q10 -105 81.5 -158t189.5 -53q147 0 305 49l106 33l41 -244l-108 -35q-207 -65 -371 -65q-264 0 -416.5 146.5t-152.5 426.5zM231 1270v246h762v-246 h-762zM397 678h416q0 101 -52 165t-157 64q-92 0 -146.5 -61t-60.5 -168z" />
<glyph unicode="&#x114;" horiz-adv-x="1296" d="M106 195v1134q0 91 55.5 143t153.5 52h899v-295h-702v-311h614v-285h-614v-338h707v-295h-904q-98 0 -153.5 52t-55.5 143zM293 1874h272q0 -51 32.5 -80t88.5 -29t88.5 29t32.5 80h270q0 -125 -112 -200t-279 -75q-109 0 -198 32.5t-142 95.5t-53 147z" />
<glyph unicode="&#x115;" horiz-adv-x="1200" d="M74 561q0 146 43 259.5t118 182.5t171 104.5t208 35.5q246 0 384.5 -138.5t138.5 -414.5q0 -67 -32 -98t-101 -31h-605q10 -105 81.5 -158t189.5 -53q147 0 305 49l106 33l41 -244l-108 -35q-207 -65 -371 -65q-264 0 -416.5 146.5t-152.5 426.5zM203 1563h284 q0 -67 33.5 -105.5t89.5 -38.5t89.5 38.5t33.5 105.5h285q0 -154 -117 -248t-291 -94q-175 0 -291 94t-116 248zM397 678h416q0 101 -52 165t-157 64q-92 0 -146.5 -61t-60.5 -168z" />
<glyph unicode="&#x116;" horiz-adv-x="1296" d="M106 195v1134q0 91 55.5 143t153.5 52h899v-295h-702v-311h614v-285h-614v-338h707v-295h-904q-98 0 -153.5 52t-55.5 143zM524 1749q0 68 48 107.5t133 39.5q84 0 131 -39.5t47 -107.5t-47 -109t-131 -41q-85 0 -133 41t-48 109z" />
<glyph unicode="&#x117;" horiz-adv-x="1200" d="M74 561q0 146 43 259.5t118 182.5t171 104.5t208 35.5q246 0 384.5 -138.5t138.5 -414.5q0 -67 -32 -98t-101 -31h-605q10 -105 81.5 -158t189.5 -53q147 0 305 49l106 33l41 -244l-108 -35q-207 -65 -371 -65q-264 0 -416.5 146.5t-152.5 426.5zM397 678h416 q0 101 -52 165t-157 64q-92 0 -146.5 -61t-60.5 -168zM426 1411q0 76 49 122t137 46q87 0 137 -46t50 -122q0 -77 -50 -123.5t-137 -46.5q-88 0 -137 46t-49 124z" />
<glyph unicode="&#x118;" horiz-adv-x="1296" d="M106 195v1134q0 91 55.5 143t153.5 52h899v-295h-702v-311h614v-285h-614v-338h707v-295h-162q-90 -55 -90 -123q0 -65 86 -65q91 0 198 45l37 -154q-133 -53 -260 -53q-112 0 -182 43t-70 127q0 60 32.5 106.5t82.5 73.5h-576q-98 0 -153.5 52t-55.5 143z" />
<glyph unicode="&#x119;" horiz-adv-x="1200" d="M74 561q0 146 43 259.5t118 182.5t171 104.5t208 35.5q246 0 384.5 -138.5t138.5 -414.5q0 -67 -32 -98t-101 -31h-605q10 -105 81.5 -158t189.5 -53q147 0 305 49l106 33l41 -244l-108 -35q-120 -35 -185 -49q-88 -50 -88 -121q0 -65 86 -65q92 0 199 45l37 -154 q-133 -53 -260 -53q-112 0 -182 43t-70 127q0 102 84 162q-262 3 -411.5 149t-149.5 424zM397 678h416q0 101 -52 165t-157 64q-92 0 -146.5 -61t-60.5 -168z" />
<glyph unicode="&#x11a;" horiz-adv-x="1296" d="M106 195v1134q0 91 55.5 143t153.5 52h899v-295h-702v-311h614v-285h-614v-338h707v-295h-904q-98 0 -153.5 52t-55.5 143zM264 1868h326l94 -94l88 94h326l-242 -213q-63 -56 -172 -56t-174 56z" />
<glyph unicode="&#x11b;" horiz-adv-x="1200" d="M74 561q0 146 43 259.5t118 182.5t171 104.5t208 35.5q246 0 384.5 -138.5t138.5 -414.5q0 -67 -32 -98t-101 -31h-605q10 -105 81.5 -158t189.5 -53q147 0 305 49l106 33l41 -244l-108 -35q-207 -65 -371 -65q-264 0 -416.5 146.5t-152.5 426.5zM176 1565h336l98 -129 l95 129h335l-254 -271q-60 -67 -176 -67q-120 0 -178 67zM397 678h416q0 101 -52 165t-157 64q-92 0 -146.5 -61t-60.5 -168z" />
<glyph unicode="&#x11c;" horiz-adv-x="1531" d="M76 762q0 187 55 334.5t155 243.5t237 146t304 50q193 0 453 -76l129 -39l-53 -323l-133 41q-209 61 -355 61q-188 0 -289.5 -113t-101.5 -335q0 -235 101 -353t292 -118q95 0 185 16v254h-285v276h449q98 0 153 -51.5t55 -142.5v-385q0 -118 -127 -176 q-193 -86 -477 -86q-225 0 -391.5 86t-261 262.5t-94.5 427.5zM410 1608l241 211q64 57 172 57q111 0 174 -57l244 -211h-326l-92 92l-88 -92h-325z" />
<glyph unicode="&#x11d;" horiz-adv-x="1251" d="M74 760q0 182 134.5 272t371.5 90h108q120 0 201 25l276 80l58 -240l-187 -51q3 -2 7.5 -6.5t16 -21t20.5 -35t16.5 -49.5t7.5 -64q0 -171 -130.5 -257.5t-365.5 -86.5q-23 0 -44 1.5t-30 2.5l-10 2q15 -15 15 -57q0 -39 -29 -78h295q198 0 296.5 -77t98.5 -216 q0 -173 -148 -266t-436 -93q-160 0 -277 32t-188 106.5t-71 187.5q0 112 78 213l90 115q37 48 37 94q0 32 -14 54.5t-48 47.5q-29 23 -50 43t-46.5 54t-39 79t-13.5 99zM180 1249l252 273q67 67 178 67t178 -67l256 -273h-335l-99 131l-94 -131h-336zM377 -33q0 -65 62 -92 t186 -27q280 0 280 132q0 86 -127 86h-368q-13 -13 -23 -41t-10 -58zM385 760q0 -148 203 -148q93 0 148 36.5t55 111.5q0 143 -203 143t-203 -143z" />
<glyph unicode="&#x11e;" horiz-adv-x="1531" d="M76 762q0 187 55 334.5t155 243.5t237 146t304 50q193 0 453 -76l129 -39l-53 -323l-133 41q-209 61 -355 61q-188 0 -289.5 -113t-101.5 -335q0 -235 101 -353t292 -118q95 0 185 16v254h-285v276h449q98 0 153 -51.5t55 -142.5v-385q0 -118 -127 -176 q-193 -86 -477 -86q-225 0 -391.5 86t-261 262.5t-94.5 427.5zM420 1874h272q0 -51 32.5 -80t88.5 -29t88.5 29t32.5 80h270q0 -125 -112 -200t-279 -75q-109 0 -198 32.5t-142 95.5t-53 147z" />
<glyph unicode="&#x11f;" horiz-adv-x="1251" d="M74 760q0 182 134.5 272t371.5 90h108q120 0 201 25l276 80l58 -240l-187 -51q3 -2 7.5 -6.5t16 -21t20.5 -35t16.5 -49.5t7.5 -64q0 -171 -130.5 -257.5t-365.5 -86.5q-23 0 -44 1.5t-30 2.5l-10 2q15 -15 15 -57q0 -39 -29 -78h295q198 0 296.5 -77t98.5 -216 q0 -173 -148 -266t-436 -93q-160 0 -277 32t-188 106.5t-71 187.5q0 112 78 213l90 115q37 48 37 94q0 32 -14 54.5t-48 47.5q-29 23 -50 43t-46.5 54t-39 79t-13.5 99zM207 1563h285q0 -67 33 -105.5t89 -38.5t89.5 38.5t33.5 105.5h285q0 -154 -117 -248t-291 -94 q-175 0 -291 94t-116 248zM377 -33q0 -65 62 -92t186 -27q280 0 280 132q0 86 -127 86h-368q-13 -13 -23 -41t-10 -58zM385 760q0 -148 203 -148q93 0 148 36.5t55 111.5q0 143 -203 143t-203 -143z" />
<glyph unicode="&#x120;" horiz-adv-x="1531" d="M76 762q0 187 55 334.5t155 243.5t237 146t304 50q193 0 453 -76l129 -39l-53 -323l-133 41q-209 61 -355 61q-188 0 -289.5 -113t-101.5 -335q0 -235 101 -353t292 -118q95 0 185 16v254h-285v276h449q98 0 153 -51.5t55 -142.5v-385q0 -118 -127 -176 q-193 -86 -477 -86q-225 0 -391.5 86t-261 262.5t-94.5 427.5zM641 1749q0 68 47.5 107.5t132.5 39.5q84 0 131 -39.5t47 -107.5t-47 -109t-131 -41q-85 0 -132.5 40.5t-47.5 109.5z" />
<glyph unicode="&#x121;" horiz-adv-x="1251" d="M74 760q0 182 134.5 272t371.5 90h108q120 0 201 25l276 80l58 -240l-187 -51q3 -2 7.5 -6.5t16 -21t20.5 -35t16.5 -49.5t7.5 -64q0 -171 -130.5 -257.5t-365.5 -86.5q-23 0 -44 1.5t-30 2.5l-10 2q15 -15 15 -57q0 -39 -29 -78h295q198 0 296.5 -77t98.5 -216 q0 -173 -148 -266t-436 -93q-160 0 -277 32t-188 106.5t-71 187.5q0 112 78 213l90 115q37 48 37 94q0 32 -14 54.5t-48 47.5q-29 23 -50 43t-46.5 54t-39 79t-13.5 99zM377 -33q0 -65 62 -92t186 -27q280 0 280 132q0 86 -127 86h-368q-13 -13 -23 -41t-10 -58zM385 760 q0 -148 203 -148q93 0 148 36.5t55 111.5q0 143 -203 143t-203 -143zM428 1411q0 76 49 122t137 46q87 0 137 -46t50 -122q0 -77 -50 -123.5t-137 -46.5q-88 0 -137 46t-49 124z" />
<glyph unicode="&#x122;" horiz-adv-x="1531" d="M76 762q0 187 55 334.5t155 243.5t237 146t304 50q193 0 453 -76l129 -39l-53 -323l-133 41q-209 61 -355 61q-188 0 -289.5 -113t-101.5 -335q0 -235 101 -353t292 -118q95 0 185 16v254h-285v276h449q98 0 153 -51.5t55 -142.5v-385q0 -118 -127 -176 q-193 -86 -477 -86q-225 0 -391.5 86t-261 262.5t-94.5 427.5zM596 -272l49 186h316l-74 -246q-16 -53 -51 -80.5t-99 -27.5q-86 0 -122.5 48.5t-18.5 119.5z" />
<glyph unicode="&#x123;" horiz-adv-x="1251" d="M74 760q0 182 134.5 272t371.5 90h108q120 0 201 25l276 80l58 -240l-187 -51q3 -2 7.5 -6.5t16 -21t20.5 -35t16.5 -49.5t7.5 -64q0 -171 -130.5 -257.5t-365.5 -86.5q-23 0 -44 1.5t-30 2.5l-10 2q15 -15 15 -57q0 -39 -29 -78h295q198 0 296.5 -77t98.5 -216 q0 -173 -148 -266t-436 -93q-160 0 -277 32t-188 106.5t-71 187.5q0 112 78 213l90 115q37 48 37 94q0 32 -14 54.5t-48 47.5q-29 23 -50 43t-46.5 54t-39 79t-13.5 99zM377 -33q0 -65 62 -92t186 -27q280 0 280 132q0 86 -127 86h-368q-13 -13 -23 -41t-10 -58zM385 760 q0 -148 203 -148q93 0 148 36.5t55 111.5q0 143 -203 143t-203 -143zM424 1231l98 336q32 106 154 106q85 0 119 -47.5t18 -120.5l-61 -274h-328z" />
<glyph unicode="&#x124;" horiz-adv-x="1488" d="M106 0v1524h406v-604h463v604h407v-1524h-407v625h-463v-625h-406zM332 1608l241 211q64 57 172 57q112 0 175 -57l243 -211h-325l-93 92l-88 -92h-325z" />
<glyph unicode="&#x125;" horiz-adv-x="1193" d="M102 0v1530l340 59v-493q124 39 232 39q119 0 203 -30t131 -86.5t67.5 -126t20.5 -159.5v-733h-332v705q0 70 -34.5 108.5t-117.5 38.5q-68 0 -170 -29v-823h-340zM186 1636l242 211q65 58 172 58q110 0 174 -58l244 -211h-326l-92 93l-88 -93h-326z" />
<glyph unicode="&#x126;" horiz-adv-x="1488" d="M0 1087v220h106v217h406v-217h463v217h407v-217h107v-220h-107v-1087h-407v625h-463v-625h-406v1087h-106zM512 920h463v167h-463v-167z" />
<glyph unicode="&#x127;" horiz-adv-x="1193" d="M4 1225v209h98v96l340 59v-155h287v-209h-287v-129q124 39 232 39q119 0 203 -30t131 -86.5t67.5 -126t20.5 -159.5v-733h-332v705q0 70 -34.5 108.5t-117.5 38.5q-68 0 -170 -29v-823h-340v1225h-98z" />
<glyph unicode="&#x128;" horiz-adv-x="624" d="M-117 1688q91 202 287 202q92 0 166 -45l63 -35q33 -20 80 -20q35 0 62.5 22t54.5 76l158 -86q-47 -105 -122 -154t-165 -49q-87 0 -166 43l-63 37q-44 23 -78 23q-36 0 -64 -22t-55 -76zM106 0v1524h412v-1524h-412z" />
<glyph unicode="&#x129;" horiz-adv-x="544" d="M-178 1327q48 130 129 191t178 61q95 0 170 -57l66 -45q39 -27 79 -27q38 0 68 28.5t57 94.5l166 -105q-48 -129 -129 -189t-178 -60q-93 0 -172 55l-63 45q-45 31 -82 31q-72 0 -125 -123zM106 0v1128h330v-1128h-330z" />
<glyph unicode="&#x12a;" horiz-adv-x="624" d="M-53 1618v205h733v-205h-733zM106 0v1524h412v-1524h-412z" />
<glyph unicode="&#x12b;" horiz-adv-x="544" d="M-104 1270v246h761v-246h-761zM106 0v1128h330v-1128h-330z" />
<glyph unicode="&#x12c;" horiz-adv-x="624" d="M-74 1874h273q0 -51 32 -80t88 -29t88.5 29t32.5 80h271q0 -125 -112.5 -200t-279.5 -75q-109 0 -198 32.5t-142 95.5t-53 147zM106 0v1524h412v-1524h-412z" />
<glyph unicode="&#x12d;" horiz-adv-x="544" d="M-133 1563h285q0 -67 33 -105.5t89 -38.5t89.5 38.5t33.5 105.5h285q0 -154 -117 -248t-291 -94q-175 0 -291 94t-116 248zM106 0v1128h330v-1128h-330z" />
<glyph unicode="&#x12e;" horiz-adv-x="624" d="M106 0v1524h412v-1524q-90 -55 -90 -123q0 -65 86 -65q92 0 199 45l37 -154q-133 -53 -261 -53q-112 0 -181.5 43t-69.5 127q0 61 32 107t82 73h-246z" />
<glyph unicode="&#x12f;" horiz-adv-x="544" d="M86 1411q0 76 49.5 122t136.5 46t137 -46t50 -122q0 -77 -50 -123.5t-137 -46.5t-136.5 46.5t-49.5 123.5zM106 0v1128h330v-1124l2 -4q-90 -55 -90 -123q0 -65 86 -65q92 0 199 45l37 -154q-133 -53 -260 -53q-112 0 -182 43t-70 127q0 61 32 107t82 73h-166z" />
<glyph unicode="&#x130;" horiz-adv-x="624" d="M106 0v1524h412v-1524h-412zM137 1749q0 68 47.5 107.5t132.5 39.5q84 0 131.5 -39.5t47.5 -107.5t-47.5 -109t-131.5 -41q-85 0 -132.5 40.5t-47.5 109.5z" />
<glyph unicode="&#x131;" horiz-adv-x="544" d="M106 0v1128h330v-1128h-330z" />
<glyph unicode="&#x134;" horiz-adv-x="972" d="M33 57l47 301q150 -43 221 -43q87 0 124.5 42t37.5 135v1032h407v-1065q0 -224 -129 -342.5t-360 -118.5q-149 0 -348 59zM250 1608l242 211q64 57 172 57q111 0 174 -57l243 -211h-325l-92 92l-89 -92h-325z" />
<glyph unicode="&#x135;" horiz-adv-x="555" d="M-152 1229l252 272q68 68 179 68q110 0 178 -68l256 -272h-336l-98 131l-95 -131h-336zM-23 -131q76 1 109 37t33 110v1112h330v-1118q0 -188 -119 -284.5t-353 -96.5v240z" />
<glyph unicode="&#x136;" horiz-adv-x="1464" d="M106 0v1524h400v-621l469 621h452l-417 -531l411 -993h-430l-274 670l-109 -131q-29 -37 -42 -56t-30 -51.5t-23.5 -66.5t-6.5 -78v-287h-400zM524 -272l49 186h316l-74 -246q-16 -54 -51 -81t-98 -27q-86 0 -123 48.5t-19 119.5z" />
<glyph unicode="&#x137;" horiz-adv-x="1128" d="M102 0v1530l332 59v-889l346 428h398l-318 -376l324 -752h-381l-201 471l-76 -86q-48 -55 -70 -101t-22 -120v-164h-332zM399 -272l50 186h315l-74 -246q-16 -54 -51 -81t-98 -27q-86 0 -123 48.5t-19 119.5z" />
<glyph unicode="&#x138;" horiz-adv-x="1239" d="M102 0v1128h332v-495q42 9 80.5 41.5t71 77t68 96.5t82.5 102t103.5 91t140.5 66.5t185 25.5v-306q-86 0 -149 -39.5t-127 -111.5l295 -676h-381l-180 420q-95 -88 -189 -105v-315h-332z" />
<glyph unicode="&#x139;" horiz-adv-x="1241" d="M106 195v1329h410v-1198h655v-326h-856q-98 0 -153.5 52t-55.5 143zM379 1686q0 50 45 83l141 101h406l-350 -228q-67 -43 -134 -43q-53 0 -80.5 25.5t-27.5 61.5z" />
<glyph unicode="&#x13a;" horiz-adv-x="548" d="M55 1694q0 51 45 84l142 100h405l-350 -227q-67 -43 -133 -43q-53 0 -81 25t-28 61zM102 0v1528l344 61v-1589h-344z" />
<glyph unicode="&#x13b;" horiz-adv-x="1241" d="M106 195v1329h410v-1198h655v-326h-856q-98 0 -153.5 52t-55.5 143zM434 -272l49 186h316l-74 -246q-16 -53 -51 -80.5t-99 -27.5q-86 0 -122.5 48.5t-18.5 119.5z" />
<glyph unicode="&#x13c;" horiz-adv-x="548" d="M55 -272l49 186h316l-74 -246q-16 -54 -51 -81t-98 -27q-86 0 -123 48.5t-19 119.5zM102 0v1528l344 61v-1589h-344z" />
<glyph unicode="&#x13d;" horiz-adv-x="1241" d="M106 195v1329h410v-1198h655v-326h-856q-98 0 -153.5 52t-55.5 143zM678 1194l86 369h303l-121 -424q-26 -97 -141 -97q-79 0 -111 43.5t-16 108.5z" />
<glyph unicode="&#x13e;" horiz-adv-x="917" d="M102 0v1528l344 61v-1589h-344zM561 1223l84 352h293l-119 -412q-16 -54 -48 -81t-89 -27q-82 0 -111 47.5t-10 120.5z" />
<glyph unicode="&#x13f;" horiz-adv-x="1241" d="M106 195v1329h410v-1198h655v-326h-856q-98 0 -153.5 52t-55.5 143zM692 743q0 80 49.5 127.5t137.5 47.5q87 0 136.5 -47.5t49.5 -127.5q0 -82 -49.5 -129t-136.5 -47q-89 0 -138 47t-49 129z" />
<glyph unicode="&#x140;" horiz-adv-x="899" d="M102 0v1528l344 61v-1589h-344zM537 743q0 81 49 128t137 47q87 0 136.5 -47.5t49.5 -127.5q0 -82 -49.5 -129t-136.5 -47q-89 0 -137.5 47t-48.5 129z" />
<glyph unicode="&#x141;" horiz-adv-x="1269" d="M20 618v234l115 43v629h410v-475l319 120v-233l-319 -121v-489h655v-326h-856q-98 0 -153.5 52t-55.5 143v467z" />
<glyph unicode="&#x142;" horiz-adv-x="616" d="M23 635v244l114 57v594l342 59v-477l117 59v-243l-117 -60v-868h-342v692z" />
<glyph unicode="&#x143;" horiz-adv-x="1509" d="M106 0v1290q0 120 75.5 184t211.5 64q65 0 113 -15t82 -46t56.5 -66.5t45.5 -89.5l408 -770v973h350v-1291q0 -119 -74.5 -182t-212.5 -63q-124 0 -187.5 53t-109.5 164l-407 770v-975h-351zM545 1686q0 50 45 83l141 101h406l-351 -228q-67 -43 -133 -43 q-53 0 -80.5 25.5t-27.5 61.5z" />
<glyph unicode="&#x144;" horiz-adv-x="1202" d="M102 0v897q0 77 38 121t116 67q188 54 369 54q243 0 359 -107t116 -295v-737h-334v707q0 72 -35 111.5t-119 39.5q-70 0 -170 -29v-829h-340zM332 1329q0 56 47 101l147 133h420l-360 -283q-67 -53 -137 -53q-55 0 -86 31t-31 71z" />
<glyph unicode="&#x145;" horiz-adv-x="1509" d="M106 0v1290q0 120 75.5 184t211.5 64q65 0 113 -15t82 -46t56.5 -66.5t45.5 -89.5l408 -770v973h350v-1291q0 -119 -74.5 -182t-212.5 -63q-124 0 -187.5 53t-109.5 164l-407 770v-975h-351zM563 -272l49 186h316l-74 -246q-16 -54 -51 -81t-98 -27q-86 0 -123 48.5 t-19 119.5z" />
<glyph unicode="&#x146;" horiz-adv-x="1202" d="M102 0v897q0 77 38 121t116 67q188 54 369 54q243 0 359 -107t116 -295v-737h-334v707q0 72 -35 111.5t-119 39.5q-70 0 -170 -29v-829h-340zM403 -272l50 186h315l-74 -246q-16 -54 -51 -81t-98 -27q-86 0 -123 48.5t-19 119.5z" />
<glyph unicode="&#x147;" horiz-adv-x="1509" d="M106 0v1290q0 120 75.5 184t211.5 64q65 0 113 -15t82 -46t56.5 -66.5t45.5 -89.5l408 -770v973h350v-1291q0 -119 -74.5 -182t-212.5 -63q-124 0 -187.5 53t-109.5 164l-407 770v-975h-351zM344 1868h326l94 -94l88 94h326l-242 -213q-63 -56 -172 -56t-174 56z" />
<glyph unicode="&#x148;" horiz-adv-x="1202" d="M102 0v897q0 77 38 121t116 67q188 54 369 54q243 0 359 -107t116 -295v-737h-334v707q0 72 -35 111.5t-119 39.5q-70 0 -170 -29v-829h-340zM164 1565h336l98 -129l94 129h336l-254 -271q-60 -67 -176 -67q-120 0 -178 67z" />
<glyph unicode="&#x14a;" horiz-adv-x="1554" d="M106 0v1290q0 120 75.5 184t211.5 64q65 0 113 -12t82 -38t56.5 -55t45.5 -73l408 -670v834h350v-1526q0 -375 -492 -375v225q77 3 109.5 34.5t32.5 99.5v18l-641 1004v-1004h-351z" />
<glyph unicode="&#x14b;" horiz-adv-x="1202" d="M102 0v897q0 77 38 121t116 67q188 54 369 54q243 0 359 -107t116 -295v-727q0 -188 -120 -284.5t-353 -96.5v240q76 1 107.5 37t31.5 110v691q0 72 -35 111.5t-119 39.5q-70 0 -170 -29v-829h-340z" />
<glyph unicode="&#x14c;" horiz-adv-x="1660" d="M76 760q0 242 96 418.5t266.5 266t395.5 89.5q170 0 308.5 -51.5t237 -149t152 -244t53.5 -329.5q0 -185 -55 -332t-155 -243.5t-240 -147.5t-310 -51q-169 0 -307.5 51.5t-236.5 149t-151.5 244t-53.5 329.5zM469 1618v205h733v-205h-733zM485 760q0 -232 92 -360 t257 -128q164 0 252 126.5t88 361.5q0 230 -91.5 356.5t-257.5 126.5q-164 0 -252 -126t-88 -357z" />
<glyph unicode="&#x14d;" horiz-adv-x="1269" d="M74 563q0 275 152 426.5t413 151.5q262 0 409.5 -151t147.5 -427q0 -274 -151 -424.5t-412 -150.5q-262 0 -410.5 151.5t-148.5 423.5zM260 1270v246h762v-246h-762zM414 563q0 -334 225 -334q108 0 163.5 84.5t55.5 249.5q0 164 -57.5 250t-167.5 86q-219 0 -219 -336z " />
<glyph unicode="&#x14e;" horiz-adv-x="1660" d="M76 760q0 242 96 418.5t266.5 266t395.5 89.5q170 0 308.5 -51.5t237 -149t152 -244t53.5 -329.5q0 -185 -55 -332t-155 -243.5t-240 -147.5t-310 -51q-169 0 -307.5 51.5t-236.5 149t-151.5 244t-53.5 329.5zM449 1874h272q0 -51 32.5 -80t88.5 -29t88.5 29t32.5 80h270 q0 -125 -112 -200t-279 -75q-109 0 -198 32.5t-142 95.5t-53 147zM485 760q0 -232 92 -360t257 -128q164 0 252 126.5t88 361.5q0 230 -91.5 356.5t-257.5 126.5q-164 0 -252 -126t-88 -357z" />
<glyph unicode="&#x14f;" horiz-adv-x="1269" d="M74 563q0 275 152 426.5t413 151.5q262 0 409.5 -151t147.5 -427q0 -274 -151 -424.5t-412 -150.5q-262 0 -410.5 151.5t-148.5 423.5zM229 1563h285q0 -67 33.5 -105.5t89.5 -38.5t89.5 38.5t33.5 105.5h284q0 -154 -116.5 -248t-290.5 -94q-175 0 -291.5 94t-116.5 248 zM414 563q0 -334 225 -334q108 0 163.5 84.5t55.5 249.5q0 164 -57.5 250t-167.5 86q-219 0 -219 -336z" />
<glyph unicode="&#x150;" horiz-adv-x="1660" d="M76 760q0 242 96 418.5t266.5 266t395.5 89.5q170 0 308.5 -51.5t237 -149t152 -244t53.5 -329.5q0 -185 -55 -332t-155 -243.5t-240 -147.5t-310 -51q-169 0 -307.5 51.5t-236.5 149t-151.5 244t-53.5 329.5zM485 760q0 -232 92 -360t257 -128q164 0 252 126.5t88 361.5 q0 230 -91.5 356.5t-257.5 126.5q-164 0 -252 -126t-88 -357zM489 1683q0 42 33 70l137 117h326l-262 -223q-51 -48 -131 -48q-48 0 -75.5 24.5t-27.5 59.5zM915 1681q0 40 33 70l135 119h332l-266 -225q-54 -48 -129 -48q-50 0 -77.5 24t-27.5 60z" />
<glyph unicode="&#x151;" horiz-adv-x="1269" d="M74 563q0 275 152 426.5t413 151.5q262 0 409.5 -151t147.5 -427q0 -274 -151 -424.5t-412 -150.5q-262 0 -410.5 151.5t-148.5 423.5zM293 1327q0 45 35 86l143 150h338l-270 -279q-56 -59 -138 -59q-50 0 -79 30t-29 72zM414 563q0 -334 225 -334q108 0 163.5 84.5 t55.5 249.5q0 164 -57.5 250t-167.5 86q-219 0 -219 -336zM735 1323q0 48 35 86l143 154h342l-274 -283q-56 -59 -135 -59q-53 0 -82 29t-29 73z" />
<glyph unicode="&#x152;" horiz-adv-x="2197" d="M76 758q0 358 197 562t534 204h1309v-295h-701v-311h613v-285h-613v-338h707v-295h-1309q-221 0 -386.5 88t-258 260t-92.5 410zM477 758q0 -220 89 -335.5t253 -115.5h189v914h-177q-168 0 -261 -122.5t-93 -340.5z" />
<glyph unicode="&#x153;" horiz-adv-x="1984" d="M74 563q0 275 152 426.5t413 151.5q253 0 389 -152q133 154 373 154q245 0 382.5 -138.5t137.5 -414.5q0 -68 -31 -98.5t-100 -30.5h-606q12 -105 83 -158t189 -53q145 0 303 49l109 33l39 -244l-109 -35q-207 -65 -368 -65q-269 0 -404 153q-138 -153 -393 -153 q-262 0 -410.5 151.5t-148.5 423.5zM414 563q0 -334 225 -334q108 0 163.5 84.5t55.5 249.5q0 164 -57.5 250t-167.5 86q-219 0 -219 -336zM1182 678h415q0 101 -51 165t-155 64q-93 0 -147 -61t-62 -168z" />
<glyph unicode="&#x154;" horiz-adv-x="1447" d="M106 0v1329q0 91 55 143t154 52h539q232 0 363 -118t131 -335q0 -170 -136 -332l-75 -90l280 -649h-426l-215 537h-264v-537h-406zM489 1686q0 49 46 83l141 101h405l-350 -228q-67 -43 -133 -43q-53 0 -81 25.5t-28 61.5zM512 823h330l53 74q66 89 66 162 q0 84 -44.5 131t-134.5 47h-270v-414z" />
<glyph unicode="&#x155;" horiz-adv-x="806" d="M102 0v893q0 77 38.5 122.5t115.5 67.5q109 29 225.5 41.5t290.5 12.5v-269q-217 0 -340 -37v-831h-330zM244 1329q0 56 47 101l147 133h420l-360 -283q-67 -53 -138 -53q-55 0 -85.5 31t-30.5 71z" />
<glyph unicode="&#x156;" horiz-adv-x="1447" d="M106 0v1329q0 91 55 143t154 52h539q232 0 363 -118t131 -335q0 -170 -136 -332l-75 -90l280 -649h-426l-215 537h-264v-537h-406zM512 823h330l53 74q66 89 66 162q0 84 -44.5 131t-134.5 47h-270v-414zM528 -272l50 186h315l-74 -246q-16 -54 -51 -81t-98 -27 q-86 0 -123 48.5t-19 119.5z" />
<glyph unicode="&#x157;" horiz-adv-x="806" d="M61 -272l50 186h315l-74 -246q-16 -54 -51 -81t-98 -27q-86 0 -123 48.5t-19 119.5zM102 0v893q0 77 38.5 122.5t115.5 67.5q109 29 225.5 41.5t290.5 12.5v-269q-217 0 -340 -37v-831h-330z" />
<glyph unicode="&#x158;" horiz-adv-x="1447" d="M106 0v1329q0 91 55 143t154 52h539q232 0 363 -118t131 -335q0 -170 -136 -332l-75 -90l280 -649h-426l-215 537h-264v-537h-406zM297 1868h326l94 -94l88 94h325l-241 -213q-63 -56 -172 -56t-174 56zM512 823h330l53 74q66 89 66 162q0 84 -44.5 131t-134.5 47h-270 v-414z" />
<glyph unicode="&#x159;" horiz-adv-x="806" d="M41 1565h336l98 -129l94 129h336l-254 -271q-60 -67 -176 -67q-120 0 -178 67zM102 0v893q0 77 38.5 122.5t115.5 67.5q109 29 225.5 41.5t290.5 12.5v-269q-217 0 -340 -37v-831h-330z" />
<glyph unicode="&#x15a;" horiz-adv-x="1351" d="M80 104l61 332l140 -49q246 -88 428 -88q80 0 131 36t51 107q0 56 -35 89.5t-111 50.5l-253 51q-204 41 -306 144t-102 286q0 156 73.5 264.5t197 158.5t288.5 50q242 0 492 -78l139 -45l-66 -336l-139 51q-246 91 -422 91q-83 0 -131.5 -36.5t-48.5 -107.5 q0 -57 34.5 -90.5t110.5 -46.5l252 -53q204 -39 306 -140.5t102 -285.5q0 -117 -43 -209t-119 -150t-176.5 -88t-220.5 -30q-254 0 -494 75zM451 1686q0 50 45 83l141 101h405l-350 -228q-67 -43 -133 -43q-53 0 -80.5 25.5t-27.5 61.5z" />
<glyph unicode="&#x15b;" horiz-adv-x="1128" d="M80 84l45 258l117 -39q222 -70 346 -70q62 0 100.5 24t38.5 77q0 80 -119 94l-198 33q-326 50 -326 319q0 118 59 200.5t159.5 121.5t232.5 39q198 0 401 -62l113 -35l-48 -260l-114 39q-210 70 -346 70q-62 0 -101 -23.5t-39 -74.5q0 -80 117 -97l201 -30 q325 -50 325 -318q0 -175 -124 -268.5t-326 -93.5q-210 0 -401 61zM362 1329q0 55 48 101l147 133h420l-361 -283q-67 -53 -137 -53q-55 0 -86 31t-31 71z" />
<glyph unicode="&#x15c;" horiz-adv-x="1351" d="M80 104l61 332l140 -49q246 -88 428 -88q80 0 131 36t51 107q0 56 -35 89.5t-111 50.5l-253 51q-204 41 -306 144t-102 286q0 156 73.5 264.5t197 158.5t288.5 50q242 0 492 -78l139 -45l-66 -336l-139 51q-246 91 -422 91q-83 0 -131.5 -36.5t-48.5 -107.5 q0 -57 34.5 -90.5t110.5 -46.5l252 -53q204 -39 306 -140.5t102 -285.5q0 -117 -43 -209t-119 -150t-176.5 -88t-220.5 -30q-254 0 -494 75zM268 1608l242 211q64 57 172 57q111 0 174 -57l244 -211h-326l-92 92l-88 -92h-326z" />
<glyph unicode="&#x15d;" horiz-adv-x="1128" d="M80 84l45 258l117 -39q222 -70 346 -70q62 0 100.5 24t38.5 77q0 80 -119 94l-198 33q-326 50 -326 319q0 118 59 200.5t159.5 121.5t232.5 39q198 0 401 -62l113 -35l-48 -260l-114 39q-210 70 -346 70q-62 0 -101 -23.5t-39 -74.5q0 -80 117 -97l201 -30 q325 -50 325 -318q0 -175 -124 -268.5t-326 -93.5q-210 0 -401 61zM133 1229l252 272q68 68 178 68t178 -68l256 -272h-335l-99 131l-94 -131h-336z" />
<glyph unicode="&#x15e;" horiz-adv-x="1351" d="M80 104l61 332l140 -49q246 -88 428 -88q80 0 131 36t51 107q0 56 -35 89.5t-111 50.5l-253 51q-204 41 -306 144t-102 286q0 156 73.5 264.5t197 158.5t288.5 50q242 0 492 -78l139 -45l-66 -336l-139 51q-246 91 -422 91q-83 0 -131.5 -36.5t-48.5 -107.5 q0 -57 34.5 -90.5t110.5 -46.5l252 -53q204 -39 306 -140.5t102 -285.5q0 -153 -73 -261.5t-193.5 -160.5t-278.5 -55l-31 -66q81 0 132 -37.5t51 -111.5q0 -83 -59 -130t-167 -47q-98 0 -209 50l41 127q90 -43 170 -43q58 0 58 38q0 32 -40 42.5t-128 5.5l-19 32l76 144 q-185 9 -383 71z" />
<glyph unicode="&#x15f;" horiz-adv-x="1128" d="M80 84l45 258l117 -39q222 -70 346 -70q62 0 100.5 24t38.5 77q0 80 -119 94l-198 33q-326 50 -326 319q0 118 59 200.5t159.5 121.5t232.5 39q198 0 401 -62l113 -35l-48 -260l-114 39q-210 70 -346 70q-62 0 -101 -23.5t-39 -74.5q0 -80 117 -97l201 -30 q325 -50 325 -318q0 -169 -116.5 -262.5t-306.5 -99.5l-35 -72q81 0 131.5 -37.5t50.5 -111.5q0 -83 -58.5 -130t-166.5 -47q-98 0 -209 50l41 127q90 -43 170 -43q57 0 57 38q0 32 -40 42.5t-128 5.5l-18 32l78 150q-157 9 -301 57z" />
<glyph unicode="&#x160;" horiz-adv-x="1347" d="M80 104l61 332l140 -49q246 -88 428 -88q80 0 131 36t51 107q0 56 -35 89.5t-111 50.5l-253 51q-204 41 -306 144t-102 286q0 156 73.5 264.5t197 158.5t288.5 50q242 0 492 -78l139 -45l-66 -336l-139 51q-246 91 -422 91q-83 0 -131.5 -36.5t-48.5 -107.5 q0 -57 34.5 -90.5t110.5 -46.5l252 -53q204 -39 306 -140.5t102 -285.5q0 -117 -43 -209t-119 -150t-176.5 -88t-220.5 -30q-254 0 -494 75zM279 1868h325l94 -94l88 94h326l-242 -213q-63 -56 -172 -56t-174 56z" />
<glyph unicode="&#x161;" horiz-adv-x="1128" d="M80 84l45 258l117 -39q222 -70 346 -70q62 0 100.5 24t38.5 77q0 80 -119 94l-198 33q-326 50 -326 319q0 118 59 200.5t159.5 121.5t232.5 39q198 0 401 -62l113 -35l-48 -260l-114 39q-210 70 -346 70q-62 0 -101 -23.5t-39 -74.5q0 -80 117 -97l201 -30 q325 -50 325 -318q0 -175 -124 -268.5t-326 -93.5q-210 0 -401 61zM156 1565h336l98 -129l94 129h336l-254 -271q-60 -67 -176 -67q-120 0 -178 67z" />
<glyph unicode="&#x162;" horiz-adv-x="1368" d="M63 1219v305h1246v-305h-420v-1219h-408v1219h-418zM473 -272l49 186h316l-74 -246q-16 -53 -51 -80.5t-99 -27.5q-86 0 -122.5 48.5t-18.5 119.5z" />
<glyph unicode="&#x163;" horiz-adv-x="915" d="M27 874v248h151v226l326 59v-285h327v-248h-327v-477q0 -82 32.5 -116.5t110.5 -34.5q57 0 182 33l39 -244q-158 -47 -288 -47q-192 0 -297 97.5t-105 283.5v505h-151zM270 -272l49 186h316l-74 -246q-16 -54 -51 -81t-98 -27q-86 0 -123 48.5t-19 119.5z" />
<glyph unicode="&#x164;" horiz-adv-x="1368" d="M63 1219v305h1246v-305h-420v-1219h-408v1219h-418zM272 1868h326l94 -94l88 94h326l-242 -213q-63 -56 -172 -56t-174 56z" />
<glyph unicode="&#x165;" horiz-adv-x="1044" d="M27 874v248h151v226l326 59v-285h327v-248h-327v-477q0 -82 32.5 -116.5t110.5 -34.5q57 0 182 33l39 -244q-158 -47 -288 -47q-192 0 -297 97.5t-105 283.5v505h-151zM596 1364l57 211h295l-96 -272q-29 -107 -137 -107q-82 0 -110.5 47t-8.5 121z" />
<glyph unicode="&#x166;" horiz-adv-x="1368" d="M61 1219v305h1246v-305h-420v-336h289v-238h-289v-645h-408v645h-270v238h270v336h-418z" />
<glyph unicode="&#x167;" horiz-adv-x="915" d="M25 498v245h153v131h-151v248h151v226l326 59v-285h327v-248h-327v-131h327v-245h-327v-101q0 -82 32.5 -116.5t110.5 -34.5q57 0 182 33l39 -244q-158 -47 -288 -47q-192 0 -297 97.5t-105 283.5v129h-153z" />
<glyph unicode="&#x168;" horiz-adv-x="1499" d="M96 565v959h408v-957q0 -260 246 -260q245 0 245 260v957h408v-959q0 -281 -168.5 -436.5t-486.5 -155.5q-317 0 -484.5 155t-167.5 437zM319 1688q91 202 287 202q92 0 166 -45l64 -35q33 -20 79 -20q35 0 62.5 22t54.5 76l158 -86q-47 -105 -122 -154t-165 -49 q-87 0 -166 43l-63 37q-44 23 -78 23q-36 0 -64 -22t-55 -76z" />
<glyph unicode="&#x169;" horiz-adv-x="1202" d="M102 391v737h334v-706q0 -72 35 -112t119 -40q69 0 170 27v831h340v-897q0 -77 -38 -121t-116 -67q-185 -53 -368 -53q-244 0 -360 106.5t-116 294.5zM145 1327q48 130 129.5 191t178.5 61q95 0 170 -57l65 -45q39 -27 80 -27q38 0 68 28.5t57 94.5l166 -105 q-48 -129 -129 -189t-178 -60q-93 0 -172 55l-64 45q-45 31 -82 31q-72 0 -125 -123z" />
<glyph unicode="&#x16a;" horiz-adv-x="1499" d="M96 565v959h408v-957q0 -260 246 -260q245 0 245 260v957h408v-959q0 -281 -168.5 -436.5t-486.5 -155.5q-317 0 -484.5 155t-167.5 437zM385 1618v205h733v-205h-733z" />
<glyph unicode="&#x16b;" horiz-adv-x="1202" d="M102 391v737h334v-706q0 -72 35 -112t119 -40q69 0 170 27v831h340v-897q0 -77 -38 -121t-116 -67q-185 -53 -368 -53q-244 0 -360 106.5t-116 294.5zM221 1270v246h762v-246h-762z" />
<glyph unicode="&#x16c;" horiz-adv-x="1499" d="M96 565v959h408v-957q0 -260 246 -260q245 0 245 260v957h408v-959q0 -281 -168.5 -436.5t-486.5 -155.5q-317 0 -484.5 155t-167.5 437zM358 1874h273q0 -51 32.5 -80t88.5 -29t88 29t32 80h271q0 -125 -112 -200t-279 -75q-168 0 -281 75t-113 200z" />
<glyph unicode="&#x16d;" horiz-adv-x="1202" d="M102 391v737h334v-706q0 -72 35 -112t119 -40q69 0 170 27v831h340v-897q0 -77 -38 -121t-116 -67q-185 -53 -368 -53q-244 0 -360 106.5t-116 294.5zM193 1563h284q0 -67 33.5 -105.5t89.5 -38.5t89.5 38.5t33.5 105.5h285q0 -154 -117 -248t-291 -94q-175 0 -291 94 t-116 248z" />
<glyph unicode="&#x16e;" horiz-adv-x="1499" d="M96 565v959h408v-957q0 -260 246 -260q245 0 245 260v957h408v-959q0 -281 -168.5 -436.5t-486.5 -155.5q-317 0 -484.5 155t-167.5 437zM492 1808q0 95 71.5 152t186.5 57q114 0 186 -57.5t72 -151.5q0 -93 -73.5 -153t-184.5 -60q-113 0 -185.5 59.5t-72.5 153.5z M651 1808q0 -37 27.5 -60.5t71.5 -23.5t72 23.5t28 60.5q0 34 -27.5 57t-72.5 23q-44 0 -71.5 -23t-27.5 -57z" />
<glyph unicode="&#x16f;" horiz-adv-x="1202" d="M102 391v737h334v-706q0 -72 35 -112t119 -40q69 0 170 27v831h340v-897q0 -77 -38 -121t-116 -67q-185 -53 -368 -53q-244 0 -360 106.5t-116 294.5zM326 1456q0 114 77.5 184t194.5 70q118 0 196 -70t78 -184q0 -112 -79 -185t-195 -73q-115 0 -193.5 72.5t-78.5 185.5 zM492 1456q0 -45 29.5 -74.5t76.5 -29.5t78 30t31 74q0 42 -30.5 71t-78.5 29t-77 -28.5t-29 -71.5z" />
<glyph unicode="&#x170;" horiz-adv-x="1499" d="M96 565v959h408v-957q0 -260 246 -260q245 0 245 260v957h408v-959q0 -281 -168.5 -436.5t-486.5 -155.5q-317 0 -484.5 155t-167.5 437zM403 1683q0 42 33 70l137 117h326l-262 -223q-51 -48 -131 -48q-48 0 -75.5 24.5t-27.5 59.5zM829 1681q0 40 33 70l135 119h332 l-266 -225q-54 -48 -129 -48q-50 0 -77.5 24t-27.5 60z" />
<glyph unicode="&#x171;" horiz-adv-x="1202" d="M102 391v737h334v-706q0 -72 35 -112t119 -40q69 0 170 27v831h340v-897q0 -77 -38 -121t-116 -67q-185 -53 -368 -53q-244 0 -360 106.5t-116 294.5zM240 1327q0 47 34 86l144 150h338l-271 -279q-56 -59 -137 -59q-50 0 -79 30t-29 72zM682 1323q0 48 35 86l143 154 h342l-274 -283q-56 -59 -135 -59q-53 0 -82 29t-29 73z" />
<glyph unicode="&#x172;" horiz-adv-x="1499" d="M96 565v959h408v-957q0 -260 246 -260q245 0 245 260v957h408v-959q0 -197 -84 -334.5t-246 -201.5q-74 -48 -74 -113q0 -66 86 -66q90 0 199 46l37 -154q-133 -53 -260 -53q-112 0 -182 43t-70 127q0 71 41 121q-58 -7 -102 -7q-317 0 -484.5 155t-167.5 437z" />
<glyph unicode="&#x173;" horiz-adv-x="1202" d="M102 391v737h334v-706q0 -72 35 -112t119 -40q69 0 170 27v831h340v-897q0 -77 -38 -121t-116 -67q-6 -2 -36 -10.5t-46 -12.5q-84 -52 -84 -118t86 -66q92 0 199 45l37 -153q-136 -54 -260 -54q-112 0 -182 43t-70 127q0 88 67 148q-29 -2 -79 -2q-244 0 -360 106.5 t-116 294.5z" />
<glyph unicode="&#x174;" horiz-adv-x="2013" d="M23 1524h391l149 -1086l244 953q15 65 69.5 99t137.5 34q82 0 137 -34t70 -99l237 -955l152 1088h381l-256 -1354q-21 -91 -86 -139.5t-172 -48.5q-225 0 -271 176l-200 776l-205 -776q-47 -176 -269 -176q-109 0 -174 49t-84 141zM602 1608l242 211q64 57 172 57 q111 0 174 -57l244 -211h-326l-92 92l-88 -92h-326z" />
<glyph unicode="&#x175;" horiz-adv-x="1697" d="M35 1128h346l115 -755l180 647q29 115 180 115q70 0 117.5 -29.5t60.5 -85.5l176 -649l117 757h336l-211 -985q-37 -166 -227 -166q-195 0 -236 154l-139 481l-148 -481q-40 -154 -233 -154q-192 0 -229 166zM426 1229l252 272q68 68 178 68t178 -68l256 -272h-336 l-98 131l-94 -131h-336z" />
<glyph unicode="&#x176;" horiz-adv-x="1511" d="M12 1524h443l309 -559l297 559h436l-534 -903v-621h-410v618zM340 1608l242 211q64 57 172 57q111 0 174 -57l243 -211h-325l-92 92l-88 -92h-326z" />
<glyph unicode="&#x177;" horiz-adv-x="1198" d="M29 1128h370l228 -731l198 731h349l-402 -1208q-98 -295 -405 -295q-125 0 -279 49l41 242q5 -1 32.5 -8.5t35 -9.5t30 -7t34.5 -6.5t30.5 -3.5t34.5 -2q109 0 131 98l10 35zM176 1241l252 272q68 68 178 68t178 -68l256 -272h-335l-99 131l-94 -131h-336z" />
<glyph unicode="&#x178;" horiz-adv-x="1511" d="M12 1524h443l309 -559l297 559h436l-534 -903v-621h-410v618zM383 1747q0 66 45 105.5t123 39.5q76 0 121 -39.5t45 -105.5q0 -68 -45 -108t-121 -40q-78 0 -123 40t-45 108zM809 1747q0 67 44.5 106t121.5 39t121.5 -39t44.5 -106q0 -68 -44.5 -108t-121.5 -40 t-121.5 40t-44.5 108z" />
<glyph unicode="&#x179;" horiz-adv-x="1384" d="M70 186q0 83 61 164l674 877h-692v297h1009q91 0 137 -51t46 -136t-62 -163l-668 -877h721v-297h-1044q-89 0 -135.5 50.5t-46.5 135.5zM461 1686q0 50 45 83l141 101h406l-351 -228q-67 -43 -133 -43q-53 0 -80.5 25.5t-27.5 61.5z" />
<glyph unicode="&#x17a;" horiz-adv-x="1140" d="M74 162q0 84 55 145l506 576h-539v245h813q79 0 119.5 -44t40.5 -119q0 -78 -55 -146l-504 -573h553v-246h-830q-79 0 -119 44t-40 118zM342 1329q0 56 47 101l148 133h419l-360 -283q-67 -53 -137 -53q-55 0 -86 31t-31 71z" />
<glyph unicode="&#x17b;" horiz-adv-x="1384" d="M70 186q0 83 61 164l674 877h-692v297h1009q91 0 137 -51t46 -136t-62 -163l-668 -877h721v-297h-1044q-89 0 -135.5 50.5t-46.5 135.5zM530 1749q0 68 48 107.5t133 39.5q84 0 131 -39.5t47 -107.5t-47 -109t-131 -41q-85 0 -133 41t-48 109z" />
<glyph unicode="&#x17c;" horiz-adv-x="1140" d="M74 162q0 84 55 145l506 576h-539v245h813q79 0 119.5 -44t40.5 -119q0 -78 -55 -146l-504 -573h553v-246h-830q-79 0 -119 44t-40 118zM391 1411q0 76 49.5 122t137.5 46q87 0 136.5 -46t49.5 -122q0 -77 -49.5 -123.5t-136.5 -46.5q-88 0 -137.5 46t-49.5 124z" />
<glyph unicode="&#x17d;" horiz-adv-x="1384" d="M70 186q0 83 61 164l674 877h-692v297h1009q91 0 137 -51t46 -136t-62 -163l-668 -877h721v-297h-1044q-89 0 -135.5 50.5t-46.5 135.5zM279 1868h325l94 -94l88 94h326l-242 -213q-63 -56 -172 -56t-174 56z" />
<glyph unicode="&#x17e;" horiz-adv-x="1140" d="M74 162q0 84 55 145l506 576h-539v245h813q79 0 119.5 -44t40.5 -119q0 -78 -55 -146l-504 -573h553v-246h-830q-79 0 -119 44t-40 118zM156 1565h336l98 -129l94 129h336l-254 -271q-60 -67 -176 -67q-120 0 -178 67z" />
<glyph unicode="&#x192;" d="M221 874v248h154v70q0 185 105.5 280t297.5 95q129 0 293 -49l-39 -244q-132 35 -188 35q-78 0 -111 -32.5t-33 -111.5v-43h316v-248h-316v-864q0 -188 -117.5 -284.5t-349.5 -96.5v240q76 1 109 37t33 110v858h-154z" />
<glyph unicode="&#x218;" horiz-adv-x="1351" d="M80 104l61 332l140 -49q246 -88 428 -88q80 0 131 36t51 107q0 56 -35 89.5t-111 50.5l-253 51q-204 41 -306 144t-102 286q0 156 73.5 264.5t197 158.5t288.5 50q242 0 492 -78l139 -45l-66 -336l-139 51q-246 91 -422 91q-83 0 -131.5 -36.5t-48.5 -107.5 q0 -57 34.5 -90.5t110.5 -46.5l252 -53q204 -39 306 -140.5t102 -285.5q0 -117 -43 -209t-119 -150t-176.5 -88t-220.5 -30q-254 0 -494 75zM471 -272l49 186h316l-74 -246q-16 -53 -51 -80.5t-99 -27.5q-86 0 -122.5 48.5t-18.5 119.5z" />
<glyph unicode="&#x219;" horiz-adv-x="1128" d="M80 84l45 258l117 -39q222 -70 346 -70q62 0 100.5 24t38.5 77q0 80 -119 94l-198 33q-326 50 -326 319q0 118 59 200.5t159.5 121.5t232.5 39q198 0 401 -62l113 -35l-48 -260l-114 39q-210 70 -346 70q-62 0 -101 -23.5t-39 -74.5q0 -80 117 -97l201 -30 q325 -50 325 -318q0 -175 -124 -268.5t-326 -93.5q-210 0 -401 61zM354 -272l49 186h316l-74 -246q-16 -54 -51 -81t-98 -27q-86 0 -123 48.5t-19 119.5z" />
<glyph unicode="&#x237;" horiz-adv-x="555" d="M-23 -131q76 1 109 37t33 110v1112h330v-1118q0 -188 -119 -284.5t-353 -96.5v240z" />
<glyph unicode="&#x2c6;" horiz-adv-x="1087" d="M145 1229l252 272q68 68 178 68q111 0 179 -68l256 -272h-336l-99 131l-94 -131h-336z" />
<glyph unicode="&#x2c7;" horiz-adv-x="1087" d="M143 1565h336l99 -129l94 129h336l-254 -271q-60 -67 -176 -67q-121 0 -179 67z" />
<glyph unicode="&#x2d8;" horiz-adv-x="1087" d="M129 1563h285q0 -67 33.5 -105.5t89.5 -38.5t89 38.5t33 105.5h285q0 -154 -116.5 -248t-290.5 -94q-175 0 -291.5 94t-116.5 248z" />
<glyph unicode="&#x2d9;" horiz-adv-x="1087" d="M358 1411q0 76 49.5 122t137.5 46q87 0 136.5 -46t49.5 -122q0 -77 -49.5 -123.5t-136.5 -46.5q-88 0 -137.5 46t-49.5 124z" />
<glyph unicode="&#x2da;" horiz-adv-x="1087" d="M297 1456q0 114 77.5 184t194.5 70q118 0 196.5 -70.5t78.5 -183.5q0 -112 -79.5 -185t-195.5 -73q-115 0 -193.5 72.5t-78.5 185.5zM463 1456q0 -45 29.5 -74.5t76.5 -29.5t78 30t31 74q0 42 -30.5 71t-78.5 29t-77 -28.5t-29 -71.5z" />
<glyph unicode="&#x2db;" horiz-adv-x="1087" d="M287 -180q0 61 32 107t82 73l156 18l10 -18q-90 -55 -90 -123q0 -65 86 -65q92 0 199 45l37 -154q-133 -53 -260 -53q-112 0 -182 43t-70 127z" />
<glyph unicode="&#x2dc;" horiz-adv-x="1087" d="M88 1327q48 130 129 191t178 61q95 0 170 -57l66 -45q39 -27 80 -27q38 0 68 28.5t57 94.5l165 -105q-48 -129 -129 -189t-178 -60q-93 0 -172 55l-63 45q-45 31 -82 31q-72 0 -125 -123z" />
<glyph unicode="&#x2dd;" horiz-adv-x="1087" d="M86 1327q0 45 35 86l143 150h338l-270 -279q-56 -59 -137 -59q-50 0 -79.5 30t-29.5 72zM528 1323q0 48 35 86l144 154h342l-275 -283q-56 -59 -135 -59q-53 0 -82 29t-29 73z" />
<glyph unicode="&#x3c0;" horiz-adv-x="1474" d="M51 883v245h1350v-245h-328v-486q0 -82 32.5 -116.5t108.5 -34.5q57 0 185 33l37 -244q-158 -47 -287 -47q-194 0 -299 97.5t-105 283.5v514h-217v-883h-329v883h-148z" />
<glyph unicode="&#x1e80;" horiz-adv-x="2013" d="M23 1524h391l149 -1086l244 953q15 65 69.5 99t137.5 34q82 0 137 -34t70 -99l237 -955l152 1088h381l-256 -1354q-21 -91 -86 -139.5t-172 -48.5q-225 0 -271 176l-200 776l-205 -776q-47 -176 -269 -176q-109 0 -174 49t-84 141zM610 1870h408l141 -101q45 -35 45 -83 q0 -36 -28.5 -61.5t-81.5 -25.5q-71 0 -133 43z" />
<glyph unicode="&#x1e81;" horiz-adv-x="1697" d="M35 1128h346l115 -755l180 647q29 115 180 115q70 0 117.5 -29.5t60.5 -85.5l176 -649l117 757h336l-211 -985q-37 -166 -227 -166q-195 0 -236 154l-139 481l-148 -481q-40 -154 -233 -154q-192 0 -229 166zM451 1563h419l148 -133q45 -45 45 -101q0 -41 -30 -71.5 t-85 -30.5q-69 0 -139 53z" />
<glyph unicode="&#x1e82;" horiz-adv-x="2013" d="M23 1524h391l149 -1086l244 953q15 65 69.5 99t137.5 34q82 0 137 -34t70 -99l237 -955l152 1088h381l-256 -1354q-21 -91 -86 -139.5t-172 -48.5q-225 0 -271 176l-200 776l-205 -776q-47 -176 -269 -176q-109 0 -174 49t-84 141zM772 1686q0 50 45 83l141 101h406 l-350 -228q-67 -43 -133 -43q-53 0 -81 25.5t-28 61.5z" />
<glyph unicode="&#x1e83;" horiz-adv-x="1697" d="M35 1128h346l115 -755l180 647q29 115 180 115q70 0 117.5 -29.5t60.5 -85.5l176 -649l117 757h336l-211 -985q-37 -166 -227 -166q-195 0 -236 154l-139 481l-148 -481q-40 -154 -233 -154q-192 0 -229 166zM618 1329q0 55 48 101l147 133h420l-361 -283 q-67 -53 -137 -53q-55 0 -86 31t-31 71z" />
<glyph unicode="&#x1e84;" horiz-adv-x="2013" d="M23 1524h391l149 -1086l244 953q15 65 69.5 99t137.5 34q82 0 137 -34t70 -99l237 -955l152 1088h381l-256 -1354q-21 -91 -86 -139.5t-172 -48.5q-225 0 -271 176l-200 776l-205 -776q-47 -176 -269 -176q-109 0 -174 49t-84 141zM635 1747q0 66 45 105.5t123 39.5 q76 0 121 -39.5t45 -105.5q0 -68 -45 -108t-121 -40q-78 0 -123 40t-45 108zM1061 1747q0 67 44.5 106t121.5 39t121.5 -39t44.5 -106q0 -68 -44.5 -108t-121.5 -40t-121.5 40t-44.5 108z" />
<glyph unicode="&#x1e85;" horiz-adv-x="1697" d="M35 1128h346l115 -755l180 647q29 115 180 115q70 0 117.5 -29.5t60.5 -85.5l176 -649l117 757h336l-211 -985q-37 -166 -227 -166q-195 0 -236 154l-139 481l-148 -481q-40 -154 -233 -154q-192 0 -229 166zM463 1413q0 76 46 121t128 45q79 0 125.5 -45.5t46.5 -120.5 q0 -77 -46.5 -122.5t-125.5 -45.5q-82 0 -128 45.5t-46 122.5zM903 1413q0 76 46.5 121t127.5 45t127.5 -45t46.5 -121q0 -77 -46.5 -122.5t-127.5 -45.5t-127.5 45.5t-46.5 122.5z" />
<glyph unicode="&#x1ef2;" horiz-adv-x="1511" d="M12 1524h443l309 -559l297 559h436l-534 -903v-621h-410v618zM340 1870h408l141 -101q45 -35 45 -83q0 -35 -29 -61t-82 -26q-71 0 -133 43z" />
<glyph unicode="&#x1ef3;" horiz-adv-x="1198" d="M29 1128h370l228 -731l198 731h349l-402 -1208q-98 -295 -405 -295q-125 0 -279 49l41 242q5 -1 32.5 -8.5t35 -9.5t30 -7t34.5 -6.5t30.5 -3.5t34.5 -2q109 0 131 98l10 35zM193 1563h419l148 -133q45 -45 45 -101q0 -41 -30 -71.5t-85 -30.5q-69 0 -139 53z" />
<glyph unicode="&#x2000;" horiz-adv-x="1008" />
<glyph unicode="&#x2001;" horiz-adv-x="2017" />
<glyph unicode="&#x2002;" horiz-adv-x="1008" />
<glyph unicode="&#x2003;" horiz-adv-x="2017" />
<glyph unicode="&#x2004;" horiz-adv-x="672" />
<glyph unicode="&#x2005;" horiz-adv-x="504" />
<glyph unicode="&#x2006;" horiz-adv-x="336" />
<glyph unicode="&#x2007;" horiz-adv-x="336" />
<glyph unicode="&#x2008;" horiz-adv-x="252" />
<glyph unicode="&#x2009;" horiz-adv-x="403" />
<glyph unicode="&#x200a;" horiz-adv-x="112" />
<glyph unicode="&#x2010;" horiz-adv-x="888" d="M80 512v256h729v-256h-729z" />
<glyph unicode="&#x2011;" horiz-adv-x="888" d="M80 512v256h729v-256h-729z" />
<glyph unicode="&#x2012;" d="M80 524v254h1048v-254h-1048z" />
<glyph unicode="&#x2013;" d="M94 510v254h1020v-254h-1020z" />
<glyph unicode="&#x2014;" horiz-adv-x="2048" d="M94 510v252h1860v-252h-1860z" />
<glyph unicode="&#x2018;" horiz-adv-x="524" d="M41 999l125 455q29 109 160 109q88 0 123.5 -48t19.5 -120l-88 -396h-340z" />
<glyph unicode="&#x2019;" horiz-adv-x="524" d="M47 1163l88 400h342l-125 -459q-29 -109 -159 -109q-89 0 -125.5 48t-20.5 120z" />
<glyph unicode="&#x201a;" horiz-adv-x="524" d="M47 -86l88 401h342l-127 -462q-29 -107 -160 -107q-88 0 -123.5 47.5t-19.5 120.5z" />
<glyph unicode="&#x201c;" horiz-adv-x="915" d="M41 995l123 459q32 109 149 109q79 0 110 -48t17 -122l-90 -398h-309zM459 995l123 459q29 109 147 109q81 0 112 -48t15 -122l-88 -398h-309z" />
<glyph unicode="&#x201d;" horiz-adv-x="915" d="M47 1161l90 402h309l-122 -463q-32 -109 -150 -109q-79 0 -111 48.5t-16 121.5zM465 1161l90 402h309l-125 -463q-29 -109 -147 -109q-81 0 -112 48t-15 122z" />
<glyph unicode="&#x201e;" horiz-adv-x="915" d="M43 -90l92 405h309l-125 -469q-32 -106 -149 -106q-80 0 -111.5 47.5t-15.5 122.5zM461 -90l90 405h309l-125 -469q-29 -106 -147 -106q-81 0 -112 47.5t-15 122.5z" />
<glyph unicode="&#x2020;" d="M82 768v346l379 -31l-35 441h362l-32 -441l370 29v-344l-378 35l34 -1184h-354l37 1186z" />
<glyph unicode="&#x2021;" d="M82 31v344l387 -35l-45 233l45 232l-387 -37v346l379 -31l-35 441h362l-32 -441l370 29v-344l-383 35l50 -230l-50 -231l383 33v-344l-370 30l32 -442h-362l35 442z" />
<glyph unicode="&#x2022;" horiz-adv-x="946" d="M145 678q0 166 87.5 259t240.5 93q154 0 242 -93t88 -259t-88 -259t-242 -93q-153 0 -240.5 93t-87.5 259z" />
<glyph unicode="&#x2026;" horiz-adv-x="1574" d="M76 156q0 80 50 128t138 48q87 0 136 -48t49 -128t-49 -128t-136 -48q-88 0 -138 48t-50 128zM602 156q0 81 49 128.5t137 47.5q87 0 137 -48t50 -128t-50 -128t-137 -48q-88 0 -137 47.5t-49 128.5zM1126 156q0 80 50 128t137 48t136.5 -48t49.5 -128t-49.5 -128 t-136.5 -48t-137 48t-50 128z" />
<glyph unicode="&#x202f;" horiz-adv-x="403" />
<glyph unicode="&#x2030;" horiz-adv-x="2162" d="M74 985v283q0 128 71.5 198t204.5 70q135 0 206 -69.5t71 -198.5v-281q0 -128 -71 -198t-204 -70q-135 0 -206.5 69t-71.5 197zM276 981q0 -98 74 -98q76 0 76 98v293q0 96 -76 96q-74 0 -74 -96v-293zM299 0l696 1524h224l-695 -1524h-225zM893 256v283q0 128 70.5 198 t203.5 70q135 0 206 -69.5t71 -198.5v-281q0 -130 -70.5 -199t-204.5 -69t-205 69t-71 197zM1094 252q0 -98 73 -98q76 0 76 98v291q0 98 -76 98q-73 0 -73 -98v-291zM1538 256v283q0 128 70.5 198t203.5 70q135 0 206 -69.5t71 -198.5v-281q0 -130 -70 -199t-204 -69 t-205.5 69t-71.5 197zM1739 252q0 -98 73 -98q76 0 76 98v291q0 98 -76 98q-73 0 -73 -98v-291z" />
<glyph unicode="&#x2039;" horiz-adv-x="772" d="M61 578q0 70 54 127l264 274h358l-381 -401l381 -400h-358l-264 271q-54 57 -54 129z" />
<glyph unicode="&#x203a;" horiz-adv-x="772" d="M35 178l381 400l-381 401h358l264 -274q54 -57 54 -127q0 -72 -54 -129l-264 -271h-358z" />
<glyph unicode="&#x2044;" horiz-adv-x="40" d="M-440 0l698 1524h223l-696 -1524h-225z" />
<glyph unicode="&#x205f;" horiz-adv-x="504" />
<glyph unicode="&#x2070;" horiz-adv-x="645" d="M45 1184v282q0 128 72 198.5t205 70.5q134 0 205 -69.5t71 -199.5v-280q0 -129 -70.5 -198.5t-203.5 -69.5q-135 0 -207 69t-72 197zM248 1180q0 -99 74 -99q75 0 75 99v290q0 99 -75 99q-74 0 -74 -99v-290z" />
<glyph unicode="&#x2074;" horiz-adv-x="645" d="M18 1145q0 32 25 80l260 434q43 76 131 76q125 0 125 -113v-416h70v-153h-70v-125h-199v125h-249q-46 0 -69.5 25t-23.5 67zM238 1206h122v211z" />
<glyph unicode="&#x2075;" horiz-adv-x="645" d="M35 977l28 160l64 -21q109 -33 168 -33q111 0 111 111q0 109 -111 109q-56 0 -150 -27l-71 -19v467h504v-165h-336v-113q35 14 106 14q258 0 258 -264q0 -135 -77 -205.5t-218 -70.5q-121 0 -213 34z" />
<glyph unicode="&#x2076;" horiz-adv-x="645" d="M43 1198v277q0 120 80 189t211 69q91 0 201 -35l63 -21l-31 -161l-61 20q-85 29 -160 29q-100 0 -100 -88v-33q56 16 110 16q256 0 256 -258q0 -127 -74 -203.5t-210 -76.5q-133 0 -209 75t-76 201zM246 1198q0 -113 84 -113q39 0 60.5 27.5t21.5 79.5q0 106 -93 106 q-25 0 -73 -12v-88z" />
<glyph unicode="&#x2077;" horiz-adv-x="645" d="M45 1559v165h467q50 0 75 -26t25 -72q0 -32 -18 -88l-250 -610h-221l266 631h-344z" />
<glyph unicode="&#x2078;" horiz-adv-x="645" d="M33 1149q0 90 67 160l23 24l-21 27q-51 66 -51 151q0 106 74 165t199 59t198.5 -59t73.5 -165q0 -83 -49 -151l-23 -27l23 -24q67 -70 67 -160q0 -111 -76.5 -170t-211.5 -59q-137 0 -215 59t-78 170zM231 1155q0 -36 25 -58t68 -22q44 0 69 21.5t25 58.5q0 36 -29 68 l-22 26h-86l-23 -26q-27 -34 -27 -68zM242 1497q0 -33 26 -70l17 -26h80l16 24q25 41 25 72q0 35 -21 55.5t-61 20.5q-37 0 -59.5 -21.5t-22.5 -54.5z" />
<glyph unicode="&#x2079;" horiz-adv-x="645" d="M33 1452q0 126 75.5 203.5t213.5 77.5q133 0 207.5 -75.5t74.5 -203.5v-274q0 -120 -80 -189t-211 -69q-88 0 -200 34l-64 19l29 164l63 -21q86 -28 158 -28q53 0 77.5 21.5t24.5 66.5v32q-43 -16 -110 -16q-258 0 -258 258zM238 1462q0 -51 20 -78.5t70 -27.5 q33 0 73 10v90q0 113 -84 113q-79 0 -79 -107z" />
<glyph unicode="&#x207a;" horiz-adv-x="645" d="M49 1180v147h184v203h170v-203h189v-147h-189v-203h-170v203h-184z" />
<glyph unicode="&#x207b;" horiz-adv-x="645" d="M49 1180v147h543v-147h-543z" />
<glyph unicode="&#x207c;" horiz-adv-x="645" d="M49 1085v140h543v-140h-543zM49 1284v143h543v-143h-543z" />
<glyph unicode="&#x207d;" horiz-adv-x="415" d="M43 1292q0 108 20.5 188.5t52 126t77.5 73t88.5 36t93.5 8.5v-141q-137 -12 -137 -291q0 -78 10 -135t24 -87t35 -48t35.5 -22.5t32.5 -6.5v-143q-46 0 -87.5 9t-88 38t-79.5 75.5t-55 128.5t-22 191z" />
<glyph unicode="&#x207e;" horiz-adv-x="415" d="M39 850v143q18 2 32.5 6.5t35.5 22.5t35 48t24 87t10 135q0 279 -137 291v141q51 0 93.5 -8.5t88.5 -36t77.5 -73t52 -126t20.5 -188.5q0 -109 -22 -191t-55 -128.5t-79.5 -75.5t-88 -38t-87.5 -9z" />
<glyph unicode="&#x207f;" horiz-adv-x="782" d="M86 844v534q0 94 98 121q121 31 217 31q146 0 216.5 -65.5t70.5 -178.5v-442h-217v426q0 78 -78 78q-32 0 -88 -15v-489h-219z" />
<glyph unicode="&#x2080;" horiz-adv-x="645" d="M45 51v283q0 128 72 198t205 70q134 0 205 -69t71 -199v-281q0 -129 -70.5 -198.5t-203.5 -69.5q-135 0 -207 69t-72 197zM248 47q0 -98 74 -98q75 0 75 98v291q0 98 -75 98q-74 0 -74 -98v-291z" />
<glyph unicode="&#x2081;" horiz-adv-x="645" d="M39 -47h203v473h-15q-23 0 -61 -8.5t-64 -24.5l-30 160q77 39 188 39h72q57 0 88 -29t31 -82v-528h163v-158h-575v158z" />
<glyph unicode="&#x2082;" horiz-adv-x="645" d="M37 -111q0 54 35 82l223 207q53 51 73.5 84t20.5 80q0 92 -102 92q-72 0 -158 -33l-59 -20l-29 162l63 20q101 37 211 37q128 0 202.5 -61.5t74.5 -186.5q0 -70 -32 -134.5t-109 -135.5l-144 -131h287v-156h-465q-44 0 -68 25.5t-24 68.5z" />
<glyph unicode="&#x2083;" horiz-adv-x="645" d="M27 -156l28 162l66 -20q107 -35 180 -35q107 0 107 78q0 35 -27 65l-23 25h-161v151h155l19 25q22 25 22 63q0 76 -100 76q-65 0 -160 -31l-59 -22l-29 162l64 22q103 35 208 35q277 0 277 -223q0 -79 -55 -150l-21 -26l23 -25q69 -69 69 -158q0 -113 -78.5 -172 t-216.5 -59q-107 0 -223 37z" />
<glyph unicode="&#x2084;" horiz-adv-x="645" d="M18 12q0 32 25 80l260 434q43 76 131 76q125 0 125 -113v-415h70v-154h-70v-125h-199v125h-249q-46 0 -69.5 25t-23.5 67zM238 74h122v211z" />
<glyph unicode="&#x2085;" horiz-adv-x="645" d="M35 -156l28 160l64 -20q109 -33 168 -33q111 0 111 110q0 109 -111 109q-56 0 -150 -27l-71 -18v467h504v-166h-336v-113q38 15 106 15q258 0 258 -265q0 -135 -77 -205.5t-218 -70.5q-118 0 -213 35z" />
<glyph unicode="&#x2086;" horiz-adv-x="645" d="M43 66v276q0 120 80 189t211 69q91 0 201 -35l63 -20l-31 -162l-61 20q-85 29 -160 29q-100 0 -100 -88v-33q60 17 110 17q256 0 256 -258q0 -127 -74 -204t-210 -77q-133 0 -209 75.5t-76 201.5zM246 66q0 -113 84 -113q39 0 60.5 27t21.5 79q0 107 -93 107 q-25 0 -73 -12v-88z" />
<glyph unicode="&#x2087;" horiz-adv-x="645" d="M45 426v166h467q50 0 75 -26t25 -72q0 -32 -18 -88l-250 -611h-221l266 631h-344z" />
<glyph unicode="&#x2088;" horiz-adv-x="645" d="M33 16q0 90 67 160l23 25l-21 26q-51 66 -51 152q0 106 74 164.5t199 58.5t198.5 -58.5t73.5 -164.5q0 -84 -49 -152l-23 -26l23 -25q67 -70 67 -160q0 -111 -76.5 -170t-211.5 -59q-137 0 -215 59t-78 170zM231 23q0 -36 25 -58t68 -22q44 0 69 21.5t25 58.5 q0 35 -29 67l-22 27h-86l-23 -27q-27 -34 -27 -67zM242 365q0 -33 26 -70l17 -27h80l16 25q25 41 25 72q0 35 -21 55t-61 20q-38 0 -60 -21t-22 -54z" />
<glyph unicode="&#x2089;" horiz-adv-x="645" d="M33 319q0 126 75.5 203.5t213.5 77.5q133 0 207.5 -75t74.5 -203v-275q0 -120 -80 -189t-211 -69q-84 0 -200 35l-64 18l29 164l63 -20q89 -29 158 -29q53 0 77.5 21.5t24.5 66.5v33q-45 -17 -110 -17q-258 0 -258 258zM238 330q0 -107 90 -107q33 0 73 10v91 q0 112 -84 112q-79 0 -79 -106z" />
<glyph unicode="&#x208d;" horiz-adv-x="415" d="M43 160q0 108 20.5 188.5t52 126t77.5 73t88.5 36t93.5 8.5v-141q-137 -12 -137 -291q0 -78 10 -135t24 -87t35 -48t35.5 -22.5t32.5 -6.5v-144q-46 0 -87.5 9t-88 38t-79.5 76t-55 129t-22 191z" />
<glyph unicode="&#x208e;" horiz-adv-x="415" d="M39 -139q18 2 32.5 6.5t35.5 22.5t35 48t24 87t10 135q0 279 -137 291v141q51 0 93.5 -8.5t88.5 -36t77.5 -73t52 -126t20.5 -188.5q0 -109 -22 -191t-55 -129t-79.5 -76t-88 -38t-87.5 -9v144z" />
<glyph unicode="&#x20ac;" d="M49 500v207h135v116h-135v209h139q15 242 163 375t380 133q150 0 324 -55l96 -29l-39 -270l-92 28q-153 48 -250 48q-107 0 -168 -57t-67 -173h372v-209h-381v-116h381v-207h-375q6 -119 68 -178.5t170 -59.5q105 0 250 49l92 27l39 -270l-96 -29q-168 -53 -324 -53 q-232 0 -381 134t-162 380h-139z" />
<glyph unicode="&#x2113;" horiz-adv-x="800" d="M31 434l151 115v244q0 127 16 234t49 192.5t88.5 133.5t129.5 48q91 0 138.5 -75t47.5 -181q0 -108 -41.5 -210.5t-105 -184t-160.5 -172.5v-168q0 -185 46.5 -257.5t141.5 -72.5q130 0 230 149l39 -34q-128 -220 -342 -220q-70 0 -118.5 16t-85.5 55.5t-55 110 t-18 175.5v147l-125 -92zM344 662q91 106 146 229t55 248q0 86 -26 143t-73 57q-57 0 -79.5 -98t-22.5 -330v-249z" />
<glyph unicode="&#x2122;" horiz-adv-x="1892" d="M80 1341v183h700v-183h-229v-673h-242v673h-229zM866 668v721q0 70 46.5 107.5t129.5 37.5q156 0 185 -127l102 -385l111 383q29 127 188 127q77 0 120.5 -36.5t43.5 -102.5v-725h-213v542l-133 -467q-21 -81 -121 -81q-102 0 -123 81l-129 465v-540h-207z" />
<glyph unicode="&#x2126;" horiz-adv-x="1660" d="M76 0v246h342q-59 32 -113.5 79.5t-108.5 119t-87 174.5t-33 221q0 215 96.5 373.5t265.5 239.5t391 81q166 0 305.5 -47.5t239.5 -135t155.5 -218.5t55.5 -293q0 -118 -33 -221t-87 -174.5t-108.5 -119t-113.5 -79.5h342v-246h-553q-149 0 -149 162q0 42 17 82.5 t50 62.5q48 31 85 68.5t71.5 93t53 136t18.5 179.5q0 220 -94.5 342.5t-254.5 122.5q-161 0 -253.5 -122t-92.5 -343q0 -99 18.5 -179.5t53 -136t71.5 -93t85 -68.5q32 -22 48.5 -62.5t16.5 -82.5q0 -75 -40.5 -118.5t-119.5 -43.5h-540z" />
<glyph unicode="&#x212e;" horiz-adv-x="1560" d="M59 627q0 175 96.5 324t262.5 236t360 87q149 0 283.5 -53t230 -142.5t151.5 -212.5t56 -258h-1165q-10 0 -10 -8v-352q0 -23 16 -39q156 -162 440 -162q304 0 463 184h105q-98 -116 -248.5 -182.5t-321.5 -66.5q-194 0 -360 86.5t-262.5 235t-96.5 323.5zM324 686 q0 -12 10 -12h893q8 0 8 12v324q0 23 -18 41q-166 163 -437 163t-438 -170q-18 -15 -18 -43v-315z" />
<glyph unicode="&#x2153;" horiz-adv-x="1523" d="M33 727v158h203v473h-15q-23 0 -61 -8.5t-64 -24.5l-30 160q77 39 188 39h72q57 0 87.5 -29t30.5 -82v-528h164v-158h-575zM309 0l699 1524h223l-696 -1524h-226zM895 49l29 162l65 -21q104 -34 180 -34q107 0 107 77q0 36 -27 66l-22 25h-162v151h156l18 25q23 26 23 63 q0 76 -101 76q-65 0 -160 -31l-59 -22l-29 162l64 22q103 35 209 35q276 0 276 -223q0 -79 -55 -150l-21 -26l23 -25q70 -70 70 -158q0 -113 -78.5 -172t-216.5 -59q-107 0 -223 37z" />
<glyph unicode="&#x2154;" horiz-adv-x="1523" d="M33 821q0 54 35 82l223 207q53 51 73.5 84t20.5 80q0 92 -102 92q-72 0 -158 -33l-59 -20l-29 162l63 20q101 37 211 37q128 0 202.5 -61.5t74.5 -186.5q0 -70 -32.5 -134.5t-109.5 -135.5l-143 -131h287v-156h-465q-44 0 -68 25.5t-24 68.5zM301 0l698 1524h224 l-697 -1524h-225zM895 49l29 162l65 -21q104 -34 180 -34q107 0 107 77q0 36 -27 66l-22 25h-162v151h156l18 25q23 26 23 63q0 76 -101 76q-65 0 -160 -31l-59 -22l-29 162l64 22q103 35 209 35q276 0 276 -223q0 -79 -55 -150l-21 -26l23 -25q70 -70 70 -158 q0 -113 -78.5 -172t-216.5 -59q-107 0 -223 37z" />
<glyph unicode="&#x2155;" horiz-adv-x="1523" d="M35 727v158h203v473h-15q-23 0 -61 -8.5t-64 -24.5l-30 160q77 39 188 39h72q57 0 87.5 -29t30.5 -82v-528h164v-158h-575zM309 0l699 1524h223l-696 -1524h-226zM899 49l29 160l63 -21q106 -32 168 -32q111 0 111 110q0 109 -111 109q-55 0 -149 -27l-72 -18v467h504 v-166h-336v-113q35 14 106 14q258 0 258 -264q0 -135 -76.5 -205.5t-217.5 -70.5q-118 0 -213 35z" />
<glyph unicode="&#x2156;" horiz-adv-x="1523" d="M23 821q0 55 34 82l224 207q53 51 73.5 84t20.5 80q0 92 -103 92q-71 0 -157 -33l-60 -20l-28 162l63 20q101 37 211 37q128 0 202.5 -61.5t74.5 -186.5q0 -70 -32.5 -134.5t-109.5 -135.5l-143 -131h287v-156h-465q-44 0 -68 25.5t-24 68.5zM297 0l698 1524h224 l-697 -1524h-225zM899 49l29 160l63 -21q106 -32 168 -32q111 0 111 110q0 109 -111 109q-55 0 -149 -27l-72 -18v467h504v-166h-336v-113q35 14 106 14q258 0 258 -264q0 -135 -76.5 -205.5t-217.5 -70.5q-118 0 -213 35z" />
<glyph unicode="&#x2157;" horiz-adv-x="1523" d="M25 776l28 162l66 -20q107 -35 180 -35q107 0 107 78q0 35 -27 65l-23 25h-161v151h155l19 25q22 25 22 63q0 76 -100 76q-65 0 -160 -31l-59 -22l-29 162l63 22q103 35 209 35q277 0 277 -223q0 -79 -55 -150l-21 -26l23 -25q69 -69 69 -158q0 -113 -78.5 -172 t-216.5 -59q-107 0 -223 37zM285 0l698 1524h223l-696 -1524h-225zM901 49l29 160l63 -21q106 -32 168 -32q111 0 111 110q0 109 -111 109q-55 0 -149 -27l-72 -18v467h504v-166h-336v-113q35 14 106 14q259 0 259 -264q0 -135 -77 -205.5t-218 -70.5q-118 0 -213 35z" />
<glyph unicode="&#x2158;" horiz-adv-x="1523" d="M18 944q0 32 25 80l260 434q43 76 131 76q125 0 125 -113v-415h70v-154h-70v-125h-199v125h-249q-46 0 -69.5 25t-23.5 67zM238 1006h122v211zM299 0l698 1524h224l-697 -1524h-225zM901 49l29 160l63 -21q106 -32 168 -32q111 0 111 110q0 109 -111 109q-55 0 -149 -27 l-72 -18v467h504v-166h-336v-113q35 14 106 14q259 0 259 -264q0 -135 -77 -205.5t-218 -70.5q-118 0 -213 35z" />
<glyph unicode="&#x2159;" horiz-adv-x="1523" d="M35 727v158h203v473h-15q-23 0 -61 -8.5t-64 -24.5l-30 160q77 39 188 39h72q57 0 87.5 -29t30.5 -82v-528h164v-158h-575zM322 0l698 1524h223l-696 -1524h-225zM913 270v277q0 120 80 189t211 69q91 0 201 -35l63 -20l-30 -162l-62 20q-85 29 -159 29q-101 0 -101 -88 v-33q56 16 111 16q256 0 256 -258q0 -126 -74.5 -203t-210.5 -77q-133 0 -209 75t-76 201zM1116 270q0 -112 84 -112q39 0 60.5 27t21.5 79q0 107 -92 107q-22 0 -74 -13v-88z" />
<glyph unicode="&#x215a;" horiz-adv-x="1523" d="M33 776l28 160l64 -21q106 -32 168 -32q110 0 110 110q0 109 -110 109q-55 0 -150 -27l-71 -18v467h503v-166h-335v-113q38 15 106 15q258 0 258 -265q0 -135 -77 -205.5t-218 -70.5q-118 0 -213 35zM297 0l698 1524h224l-697 -1524h-225zM913 270v277q0 120 80 189 t211 69q91 0 201 -35l63 -20l-30 -162l-62 20q-85 29 -159 29q-101 0 -101 -88v-33q56 16 111 16q256 0 256 -258q0 -126 -74.5 -203t-210.5 -77q-133 0 -209 75t-76 201zM1116 270q0 -112 84 -112q39 0 60.5 27t21.5 79q0 107 -92 107q-22 0 -74 -13v-88z" />
<glyph unicode="&#x215b;" horiz-adv-x="1523" d="M23 727v158h202v473h-14q-23 0 -61 -8.5t-64 -24.5l-31 160q77 39 189 39h71q57 0 88 -29t31 -82v-528h164v-158h-575zM317 0l699 1524h223l-696 -1524h-226zM901 221q0 89 68 160l22 25l-20 26q-51 66 -51 152q0 106 73.5 164.5t198.5 58.5t198.5 -58.5t73.5 -164.5 q0 -84 -49 -152l-22 -26l22 -25q68 -71 68 -160q0 -111 -76.5 -170t-212.5 -59q-137 0 -215 59t-78 170zM1100 227q0 -36 24.5 -58t67.5 -22q44 0 69 21.5t25 58.5q0 36 -29 68l-22 27h-86l-23 -27q-26 -33 -26 -68zM1110 569q0 -30 27 -69l16 -27h80l16 25q25 41 25 71 q0 35 -21 55.5t-61 20.5q-37 0 -59.5 -21.5t-22.5 -54.5z" />
<glyph unicode="&#x215c;" horiz-adv-x="1523" d="M25 778l28 162l66 -20q107 -35 180 -35q107 0 107 78q0 35 -27 65l-23 25h-161v151h155l19 25q22 25 22 63q0 76 -100 76q-65 0 -160 -31l-59 -22l-29 162l63 22q103 35 209 35q277 0 277 -223q0 -79 -55 -150l-21 -26l23 -25q69 -69 69 -158q0 -113 -78.5 -172 t-216.5 -59q-107 0 -223 37zM303 0l698 1524h224l-697 -1524h-225zM901 221q0 89 68 160l22 25l-20 26q-51 66 -51 152q0 106 73.5 164.5t198.5 58.5t198.5 -58.5t73.5 -164.5q0 -84 -49 -152l-22 -26l22 -25q68 -71 68 -160q0 -111 -76.5 -170t-212.5 -59q-137 0 -215 59 t-78 170zM1100 227q0 -36 24.5 -58t67.5 -22q44 0 69 21.5t25 58.5q0 36 -29 68l-22 27h-86l-23 -27q-26 -33 -26 -68zM1110 569q0 -30 27 -69l16 -27h80l16 25q25 41 25 71q0 35 -21 55.5t-61 20.5q-37 0 -59.5 -21.5t-22.5 -54.5z" />
<glyph unicode="&#x215d;" horiz-adv-x="1523" d="M31 776l28 160l64 -21q106 -32 168 -32q110 0 110 110q0 109 -110 109q-56 0 -150 -27l-71 -18v467h503v-166h-335v-113q38 15 106 15q258 0 258 -265q0 -135 -77 -205.5t-218 -70.5q-118 0 -213 35zM299 0l698 1524h224l-697 -1524h-225zM901 221q0 89 68 160l22 25 l-20 26q-51 66 -51 152q0 106 73.5 164.5t198.5 58.5t198.5 -58.5t73.5 -164.5q0 -84 -49 -152l-22 -26l22 -25q68 -71 68 -160q0 -111 -76.5 -170t-212.5 -59q-137 0 -215 59t-78 170zM1100 227q0 -36 24.5 -58t67.5 -22q44 0 69 21.5t25 58.5q0 36 -29 68l-22 27h-86 l-23 -27q-26 -33 -26 -68zM1110 569q0 -30 27 -69l16 -27h80l16 25q25 41 25 71q0 35 -21 55.5t-61 20.5q-37 0 -59.5 -21.5t-22.5 -54.5z" />
<glyph unicode="&#x215e;" horiz-adv-x="1523" d="M39 1358v166h467q50 0 75 -26.5t25 -72.5q0 -32 -18 -88l-250 -610h-221l266 631h-344zM260 0l698 1524h224l-697 -1524h-225zM901 221q0 89 68 160l22 25l-20 26q-51 66 -51 152q0 106 73.5 164.5t198.5 58.5t198.5 -58.5t73.5 -164.5q0 -84 -49 -152l-22 -26l22 -25 q68 -71 68 -160q0 -111 -76.5 -170t-212.5 -59q-137 0 -215 59t-78 170zM1100 227q0 -36 24.5 -58t67.5 -22q44 0 69 21.5t25 58.5q0 36 -29 68l-22 27h-86l-23 -27q-26 -33 -26 -68zM1110 569q0 -30 27 -69l16 -27h80l16 25q25 41 25 71q0 35 -21 55.5t-61 20.5 q-37 0 -59.5 -21.5t-22.5 -54.5z" />
<glyph unicode="&#x215f;" horiz-adv-x="761" d="M35 727v158h203v473h-15q-23 0 -61 -8.5t-64 -24.5l-30 160q77 39 188 39h72q57 0 87.5 -29t30.5 -82v-528h164v-158h-575zM299 0l698 1524h224l-697 -1524h-225z" />
<glyph unicode="&#x2202;" d="M66 502q0 242 125.5 373t367.5 131q97 0 232 -37v84q0 196 -222 196q-126 0 -319 -61l-100 -33l-52 279l107 34q217 68 389 68q245 0 394 -129.5t149 -355.5v-537q0 -243 -142 -383.5t-395 -140.5q-254 0 -394 139t-140 373zM416 498q0 -112 48.5 -171t137.5 -59 q189 0 189 244v188q-8 2 -40 9t-47 10t-39.5 6.5t-43.5 3.5q-111 0 -158 -60t-47 -171z" />
<glyph unicode="&#x2206;" d="M20 0l314 1364q40 174 276 174q234 0 271 -174l311 -1364h-1172zM410 293h391l-199 891z" />
<glyph unicode="&#x220f;" horiz-adv-x="1472" d="M63 1243v281h1346v-281h-178v-1243h-371v1243h-246v-1243h-370v1243h-181z" />
<glyph unicode="&#x2211;" d="M51 -184q0 83 58 164l403 600l-403 598q-58 81 -58 163t46.5 132.5t133.5 50.5h928v-471h-297v192h-440l440 -663l-440 -670h446v199h297v-478h-934q-88 0 -134 50t-46 133z" />
<glyph unicode="&#x2212;" d="M94 477v254h1020v-254h-1020z" />
<glyph unicode="&#x2215;" horiz-adv-x="40" d="M-440 0l698 1524h223l-696 -1524h-225z" />
<glyph unicode="&#x2219;" horiz-adv-x="770" d="M201 743q0 81 49 128t137 47q87 0 136.5 -47.5t49.5 -127.5q0 -82 -49.5 -129t-136.5 -47q-89 0 -137.5 47t-48.5 129z" />
<glyph unicode="&#x221a;" d="M20 881v247h394l157 -747l230 1143h411v-248h-139l-272 -1147q-20 -76 -81.5 -115t-154.5 -39q-189 0 -233 154l-199 752h-113z" />
<glyph unicode="&#x221e;" horiz-adv-x="1640" d="M76 610q0 208 103 330.5t304 122.5q125 0 248 -66l90 -45l90 45q126 66 248 66q201 0 304.5 -122.5t103.5 -330.5q0 -205 -104.5 -328.5t-303.5 -123.5q-124 0 -248 65l-90 47l-90 -47q-124 -65 -248 -65q-199 0 -303 123t-104 329zM360 610q0 -103 39 -155t105 -52 q58 0 112 29l50 23v313l-50 23q-53 30 -112 30q-67 0 -105.5 -53t-38.5 -158zM977 455l49 -23q54 -29 115 -29q64 0 102.5 52t38.5 155q0 105 -38 158t-103 53q-62 0 -115 -30l-49 -23v-313z" />
<glyph unicode="&#x222b;" d="M229 -131q76 1 109 37t33 110v1170q0 185 106 283t299 98q125 0 293 -49l-39 -244q-136 35 -190 35q-76 0 -109 -36t-33 -116v-1147q0 -188 -118 -284.5t-351 -96.5v240z" />
<glyph unicode="&#x2248;" d="M43 748q121 268 363 268q96 0 204 -62l86 -55q53 -33 101 -33q102 0 161 140l193 -125q-120 -265 -367 -265q-108 0 -206 64l-82 53q-53 33 -103 33q-94 0 -157 -135zM61 336q118 270 361 270q98 0 205 -63l86 -54q55 -34 102 -34q103 0 160 139l192 -125 q-121 -264 -364 -264q-109 0 -209 63l-82 56q-58 32 -102 32q-94 0 -158 -137z" />
<glyph unicode="&#x2260;" d="M94 303v238h344l70 141h-414v238h529l129 260h254l-127 -260h237v-238h-354l-66 -141h420v-238h-538l-111 -227h-258l113 227h-228z" />
<glyph unicode="&#x2264;" d="M90 715q0 78 36 122.5t110 65.5l884 242v-271l-678 -161l678 -162v-262l-880 237q-150 39 -150 189zM96 0v240h1022v-240h-1022z" />
<glyph unicode="&#x2265;" d="M88 289v262l676 162l-676 161v271l885 -242q74 -21 109.5 -65.5t35.5 -122.5q0 -150 -149 -189zM90 0v240h1022v-240h-1022z" />
<glyph unicode="&#x25ca;" d="M33 760l391 700q48 86 182 86q126 0 176 -86l392 -700l-394 -699q-49 -86 -178 -86q-127 0 -178 88zM371 762l237 -438l236 438l-236 436z" />
<glyph unicode="&#xe000;" horiz-adv-x="1126" d="M0 0v1126h1126v-1126h-1126z" />
<glyph unicode="&#xf6c3;" horiz-adv-x="1087" d="M375 -272l49 186h315l-73 -246q-16 -53 -51 -80.5t-99 -27.5q-86 0 -122.5 48.5t-18.5 119.5z" />
<glyph unicode="&#xfb04;" horiz-adv-x="2170" d="M33 874v248h153v72q0 188 114.5 283.5t334.5 95.5q247 0 467 -76q104 76 280 76q149 0 342 -47l344 61v-1587h-342v1282q-172 33 -274 33q-92 0 -130 -34t-38 -116v-43h315v-248h-315v-874h-328v874h-442v-874h-328v874h-153zM514 1122h442v72q0 42 9 80q-162 43 -277 43 q-95 0 -134.5 -35t-39.5 -117v-43z" />
<glyph horiz-adv-x="645" d="M45 256v283q0 128 72 198t205 70q134 0 205 -69t71 -199v-281q0 -129 -70.5 -198.5t-203.5 -69.5q-135 0 -207 69t-72 197zM248 252q0 -98 74 -98q75 0 75 98v291q0 98 -75 98q-74 0 -74 -98v-291z" />
<glyph horiz-adv-x="645" d="M39 0v158h203v473h-15q-23 0 -61 -8.5t-64 -24.5l-30 160q77 39 188 39h72q57 0 88 -29t31 -82v-528h163v-158h-575z" />
<glyph horiz-adv-x="645" d="M37 94q0 54 35 82l223 207q53 51 73.5 84t20.5 80q0 92 -102 92q-72 0 -158 -33l-59 -20l-29 162l63 20q101 37 211 37q128 0 202.5 -61.5t74.5 -186.5q0 -71 -32 -135t-109 -135l-144 -131h287v-156h-465q-44 0 -68 25.5t-24 68.5z" />
<glyph horiz-adv-x="645" d="M27 49l28 162l66 -21q104 -34 180 -34q107 0 107 77q0 36 -27 66l-23 25h-161v151h155l19 25q22 25 22 63q0 76 -100 76q-65 0 -160 -31l-59 -22l-29 162l64 22q103 35 208 35q277 0 277 -223q0 -79 -55 -150l-21 -26l23 -25q69 -69 69 -158q0 -113 -78.5 -172 t-216.5 -59q-107 0 -223 37z" />
<glyph horiz-adv-x="645" d="M18 217q0 32 25 80l260 434q43 76 131 76q125 0 125 -113v-415h70v-154h-70v-125h-199v125h-249q-46 0 -69.5 25t-23.5 67zM238 279h122v210z" />
<glyph horiz-adv-x="645" d="M35 49l28 160l64 -21q106 -32 168 -32q111 0 111 110q0 109 -111 109q-56 0 -150 -27l-71 -18v467h504v-166h-336v-113q35 14 106 14q258 0 258 -264q0 -135 -77 -205.5t-218 -70.5q-118 0 -213 35z" />
<glyph horiz-adv-x="645" d="M43 270v277q0 120 80 189t211 69q91 0 201 -35l63 -20l-31 -162l-61 20q-85 29 -160 29q-100 0 -100 -88v-33q56 16 110 16q256 0 256 -258q0 -127 -74 -203.5t-210 -76.5q-133 0 -209 75t-76 201zM246 270q0 -112 84 -112q39 0 60.5 27t21.5 79q0 107 -93 107 q-21 0 -73 -13v-88z" />
<glyph horiz-adv-x="645" d="M45 631v166h467q50 0 75 -26.5t25 -72.5q0 -32 -18 -88l-250 -610h-221l266 631h-344z" />
<glyph horiz-adv-x="645" d="M33 221q0 90 67 160l23 25l-21 26q-51 66 -51 152q0 106 74 164.5t199 58.5t198.5 -58.5t73.5 -164.5q0 -84 -49 -152l-23 -26l23 -25q67 -70 67 -160q0 -111 -76.5 -170t-211.5 -59q-137 0 -215 59t-78 170zM231 227q0 -36 25 -58t68 -22q44 0 69 21.5t25 58.5 q0 36 -29 68l-22 27h-86l-23 -27q-27 -34 -27 -68zM242 569q0 -32 26 -69l17 -27h80l16 25q25 41 25 71q0 35 -21 55.5t-61 20.5q-37 0 -59.5 -21.5t-22.5 -54.5z" />
<glyph horiz-adv-x="645" d="M33 524q0 126 75.5 203.5t213.5 77.5q133 0 207.5 -75.5t74.5 -203.5v-274q0 -120 -80 -189t-211 -69q-84 0 -200 35l-64 18l29 164l63 -21q86 -28 158 -28q53 0 77.5 21.5t24.5 66.5v33q-45 -17 -110 -17q-258 0 -258 258zM238 535q0 -107 90 -107q33 0 73 10v90 q0 113 -84 113q-79 0 -79 -106z" />
<glyph horiz-adv-x="645" d="M57 297q0 119 54.5 195t148.5 98v141h160v-137q46 -6 96 -21l55 -18l-24 -156l-55 17q-74 24 -125 24q-111 0 -111 -143t113 -143q56 0 120 22l60 19l22 -156l-55 -19q-37 -11 -96 -22v-137h-160v143q-95 22 -149 97t-54 196z" />
<glyph horiz-adv-x="645" d="M37 45l35 184l71 -24q96 -35 189 -35q33 0 54.5 17t21.5 49q0 46 -60 61l-102 25q-98 23 -152.5 80t-54.5 149q0 105 56 167.5t149 76.5v133h159v-131q53 -2 136 -27l71 -20l-32 -185l-74 25q-100 35 -182 35q-37 0 -57.5 -16.5t-20.5 -47.5q0 -51 57 -63l105 -23 q204 -54 204 -229q0 -105 -57 -168.5t-150 -79.5v-135h-159v133q-81 11 -133 27z" />
<glyph horiz-adv-x="645" d="M27 252v121h69v55h-69v121h71q10 125 88 190.5t201 65.5q85 0 170 -27l55 -16l-22 -158l-58 17q-74 24 -124 24q-101 0 -109 -96h188v-121h-192v-55h192v-121h-188q4 -48 33 -73t76 -25q54 0 124 24l58 17l22 -158l-57 -19q-79 -26 -168 -26q-124 0 -202 66.5t-87 193.5 h-71z" />
<glyph horiz-adv-x="483" d="M41 266v150h397v-150h-397z" />
<glyph horiz-adv-x="645" d="M49 252v147h184v203h170v-203h189v-147h-189v-203h-170v203h-184z" />
<glyph horiz-adv-x="645" d="M49 252v147h543v-147h-543z" />
<glyph horiz-adv-x="645" d="M49 158v139h543v-139h-543zM49 356v144h543v-144h-543z" />
<glyph horiz-adv-x="415" d="M43 365q0 108 20.5 188.5t52 126t77.5 73t88.5 36t93.5 8.5v-142q-137 -12 -137 -290q0 -78 10 -135t24 -87t35 -48t35.5 -22.5t32.5 -6.5v-144q-46 0 -87.5 9t-88 38t-79.5 76t-55 129t-22 191z" />
<glyph horiz-adv-x="415" d="M39 66q18 2 32.5 6.5t35.5 22.5t35 48t24 87t10 135q0 278 -137 290v142q51 0 93.5 -8.5t88.5 -36t77.5 -73t52 -126t20.5 -188.5q0 -109 -22 -191t-55 -129t-79.5 -76t-88 -38t-87.5 -9v144z" />
<glyph horiz-adv-x="294" d="M25 -39l49 219h198l-69 -254q-19 -63 -92 -63q-53 0 -74.5 28t-11.5 70z" />
<glyph horiz-adv-x="294" d="M39 90q0 45 28 71.5t78 26.5q52 0 80.5 -26.5t28.5 -71.5q0 -46 -28.5 -73t-80.5 -27q-50 0 -78 27t-28 73z" />
<glyph d="M61 365v149h125v49v39h-125v150h146q47 189 183.5 289t336.5 100q146 0 324 -56l96 -28l-39 -269l-92 29q-156 49 -250 49q-150 0 -205 -114h326v-150h-361v-39v-49h361v-149h-320q57 -103 199 -103q105 0 250 49l92 27l39 -268l-96 -29q-174 -55 -324 -55 q-199 0 -334 96t-184 283h-148z" />
<glyph d="M88 485v547q0 243 133.5 375.5t382.5 132.5q252 0 385 -131t133 -375v-545q0 -245 -131 -377t-381 -132q-253 0 -387.5 130.5t-134.5 374.5zM432 563l285 660q-40 34 -111 34q-174 0 -174 -215v-479zM498 295q39 -33 108 -33q172 0 172 215v467z" />
<glyph d="M88 485v547q0 243 133.5 375.5t382.5 132.5q252 0 385 -131t133 -375v-545q0 -245 -131 -377t-381 -132q-253 0 -387.5 130.5t-134.5 374.5zM432 477q0 -215 174 -215q172 0 172 215v565q0 215 -172 215q-174 0 -174 -215v-565z" />
<glyph d="M80 0v272h395v967h-45q-51 0 -121 -14t-112 -41l-52 270q69 35 164.5 52.5t179.5 17.5h136q99 0 154 -52t55 -143v-1057h319v-272h-1073z" />
<glyph d="M70 164q0 95 59 149l438 406q108 103 151.5 172.5t43.5 163.5q0 97 -58.5 145.5t-162.5 48.5q-131 0 -316 -61l-100 -35l-45 281l108 34q210 70 404 70q117 0 211 -27.5t164 -82.5t108.5 -146t38.5 -211q0 -132 -62 -252.5t-210 -261.5l-320 -291h592v-266h-887 q-77 0 -117 44.5t-40 119.5z" />
<glyph d="M51 92l49 277l111 -37q200 -66 354 -66q114 0 173 44.5t59 123.5q0 77 -58 141l-53 60h-305v258h295l45 55q47 59 47 139q0 164 -217 164q-131 0 -318 -63l-100 -33l-45 279l107 34q224 70 403 70q516 0 516 -418q0 -148 -102 -278l-51 -68l57 -59q66 -68 96.5 -138.5 t30.5 -156.5q0 -213 -146.5 -323.5t-406.5 -110.5q-202 0 -428 71z" />
<glyph d="M33 406q0 74 47 145l514 856q74 131 233 131q217 0 217 -197v-831h140v-266h-140v-244h-337v244h-517q-79 0 -118 44t-39 118zM403 510h304v504z" />
<glyph d="M78 88l47 274l106 -32q206 -64 334 -64q120 0 179 61.5t59 174.5q0 235 -240 235q-99 0 -295 -51l-121 -35v873h945v-289h-658v-262q129 33 225 33q242 0 366 -126t124 -374q0 -254 -145.5 -387t-411.5 -133q-193 0 -406 67z" />
<glyph d="M80 514v537q0 226 149 355.5t394 129.5q172 0 389 -68l106 -34l-51 -279l-100 33q-193 61 -320 61q-221 0 -221 -196v-84q135 37 238 37q487 0 487 -490q0 -237 -141 -381.5t-398 -144.5q-251 0 -391.5 141.5t-140.5 382.5zM426 512q0 -118 48 -181t144 -63 q88 0 135.5 59t47.5 171q0 111 -47 171t-158 60q-20 0 -44.5 -3t-39.5 -6.5t-45.5 -10.5t-40.5 -9v-188z" />
<glyph d="M88 1239v285h889q88 0 132 -44.5t44 -123.5q0 -75 -39 -168l-483 -1188h-383l524 1239h-684z" />
<glyph d="M59 416q0 88 29.5 159t93.5 138l58 59l-52 68q-94 123 -94 282q0 199 138.5 308.5t371.5 109.5q236 0 374 -109.5t138 -308.5q0 -159 -94 -282l-51 -68l57 -59q64 -67 93.5 -138t29.5 -159q0 -209 -143.5 -320.5t-399.5 -111.5t-402.5 112t-146.5 320zM399 422 q0 -77 54 -124.5t153 -47.5q98 0 152.5 47t54.5 125q0 81 -59 149l-54 60h-190l-53 -60q-58 -70 -58 -149zM420 1096q0 -69 53 -148l39 -57h186l41 57q54 80 54 148q0 76 -48.5 122t-138.5 46q-89 0 -137.5 -46.5t-48.5 -121.5z" />
<glyph d="M59 1010q0 236 141 381t398 145q251 0 391.5 -141.5t140.5 -382.5v-537q0 -226 -148.5 -355.5t-393.5 -129.5q-184 0 -389 65l-107 35l51 279l101 -33q198 -63 319 -60q219 0 219 197v84q-113 -37 -235 -37q-488 0 -488 490zM410 1028q0 -113 46.5 -172t157.5 -59 q62 0 168 28v189q0 243 -190 243q-88 0 -135 -59.5t-47 -169.5z" />
<glyph d="M109 563q0 233 105 376.5t290 184.5v269h268v-265q91 -12 201 -43l96 -28l-39 -269l-90 27q-149 49 -252 49q-119 0 -178 -73.5t-59 -227.5q0 -301 239 -301q90 0 250 49l90 27l39 -268l-96 -29q-102 -34 -201 -43v-268h-268v272q-185 39 -290 181.5t-105 379.5z" />
<glyph d="M74 84l55 319l123 -41q207 -69 377 -69q74 0 122 37t48 108q0 57 -32 92t-101 52l-209 49q-181 41 -282 148.5t-101 281.5q0 204 110 321t291 140v254h268v-252q136 -12 277 -58l125 -34l-55 -320l-125 43q-201 68 -371 68q-77 0 -123.5 -37.5t-46.5 -108.5 q0 -56 32.5 -90t102.5 -51l205 -49q385 -90 385 -428q0 -103 -31 -186t-86.5 -140t-128 -91.5t-160.5 -47.5v-258h-268v256q-138 12 -276 55z" />
<glyph d="M49 500v207h135v116h-135v209h139q15 242 163 375t380 133q150 0 324 -55l96 -29l-39 -270l-92 28q-153 48 -250 48q-107 0 -168 -57t-67 -173h372v-209h-381v-116h381v-207h-375q6 -119 68 -178.5t170 -59.5q105 0 250 49l92 27l39 -270l-96 -29q-168 -53 -324 -53 q-232 0 -381 134t-162 380h-139z" />
<glyph d="M88 485v158q0 244 133 376t383 132q252 0 385 -131t133 -375v-156q0 -245 -131 -377t-381 -132q-253 0 -387.5 130.5t-134.5 374.5zM432 512q0 -126 38.5 -188t135.5 -62q172 0 172 215v144q0 124 -38.5 185.5t-133.5 61.5q-96 0 -135 -61t-39 -186v-109z" />
<glyph d="M80 0v272h395v572h-45q-51 0 -121 -14t-112 -42l-52 271q69 35 164 52t180 17h136q99 0 154 -51.5t55 -142.5v-662h319v-272h-1073z" />
<glyph d="M70 164q0 109 90 160l370 206q94 51 134.5 99.5t40.5 109.5q0 66 -46 100.5t-133 34.5q-132 0 -301 -57l-100 -33l-45 263l113 34q217 68 432 68q225 0 352 -90t127 -260q0 -228 -262 -381l-258 -152h530v-266h-887q-77 0 -117 44.5t-40 119.5z" />
<glyph d="M51 -268l49 276l111 -35q203 -67 354 -67q113 0 172.5 43t59.5 121q0 71 -58 135l-53 57h-305v256h295l45 53q47 62 47 134q0 155 -217 155q-131 0 -318 -63l-100 -33l-45 278l107 35q213 70 407 70q247 0 379.5 -100t132.5 -310q0 -142 -102 -276l-51 -64l57 -57 q68 -71 97.5 -136t29.5 -151q0 -210 -145.5 -321t-405.5 -111q-188 0 -430 76z" />
<glyph d="M33 162q0 82 47 145l514 707q47 65 102 98t131 33q217 0 217 -197v-682h140v-266h-140v-365h-337v365h-517q-79 0 -118 44t-39 118zM397 266h310v434z" />
<glyph d="M78 -279l47 277l106 -35q210 -65 334 -63q120 0 179 60.5t59 170.5q0 229 -240 229q-114 0 -295 -51l-121 -35v854h945v-284h-658v-254q129 33 225 33q490 0 490 -490q0 -252 -145.5 -383t-411.5 -131q-183 0 -406 70z" />
<glyph d="M80 514v537q0 226 149 355.5t394 129.5q172 0 389 -68l106 -34l-51 -279l-100 33q-193 61 -320 61q-221 0 -221 -196v-84q135 37 238 37q487 0 487 -490q0 -237 -141 -381.5t-398 -144.5q-251 0 -391.5 141.5t-140.5 382.5zM426 512q0 -118 48 -181t144 -63 q88 0 135.5 59t47.5 171q0 111 -47 171t-158 60q-20 0 -44.5 -3t-39.5 -6.5t-45.5 -10.5t-40.5 -9v-188z" />
<glyph d="M88 844v284h889q88 0 132 -44t44 -123q0 -75 -39 -168l-483 -1158h-383l524 1209h-684z" />
<glyph d="M59 416q0 88 29.5 159t93.5 138l58 59l-52 68q-94 127 -94 282q0 199 138.5 308.5t371.5 109.5q236 0 374 -109.5t138 -308.5q0 -159 -94 -282l-51 -68l57 -59q64 -67 93.5 -138t29.5 -159q0 -209 -143.5 -320.5t-399.5 -111.5t-402.5 112t-146.5 320zM399 422 q0 -77 54 -124.5t153 -47.5q98 0 152.5 47t54.5 125q0 81 -59 149l-54 60h-190l-53 -60q-58 -70 -58 -149zM420 1096q0 -69 53 -148l39 -57h186l41 57q54 80 54 148q0 76 -48.5 122t-138.5 46q-89 0 -137.5 -46.5t-48.5 -121.5z" />
<glyph d="M59 627q0 235 140.5 377.5t398.5 142.5q251 0 391.5 -139t140.5 -379v-529q0 -224 -148.5 -351.5t-393.5 -127.5q-175 0 -389 68l-107 32l51 277l101 -33q184 -62 319 -59q114 0 166.5 48.5t52.5 145.5v80q-119 -39 -235 -39q-488 0 -488 486zM410 645q0 -112 46 -169.5 t158 -57.5q51 0 168 31v182q0 237 -190 237q-88 0 -135 -56.5t-47 -166.5z" />
<glyph d="M109 563q0 233 105 376.5t290 184.5v269h268v-265q91 -12 201 -43l96 -28l-39 -269l-90 27q-149 49 -252 49q-119 0 -178 -73.5t-59 -227.5q0 -301 239 -301q90 0 250 49l90 27l39 -268l-96 -29q-102 -34 -201 -43v-268h-268v272q-185 39 -290 181.5t-105 379.5z" />
<glyph d="M119 84l47 258l115 -39q226 -70 346 -70q139 0 139 101q0 80 -117 94l-200 33q-326 51 -326 319q0 151 95.5 241.5t254.5 111.5v260h270v-263q114 -15 232 -51l112 -35l-45 -260l-114 39q-214 70 -348 70q-61 0 -99.5 -23.5t-38.5 -74.5q0 -80 117 -97l199 -30 q327 -50 327 -318q0 -151 -93 -241t-249 -113v-264h-270v264q-112 11 -242 53z" />
<glyph d="M61 365v149h125v49v39h-125v150h146q47 189 183.5 289t336.5 100q146 0 324 -56l96 -28l-39 -269l-92 29q-156 49 -250 49q-150 0 -205 -114h326v-150h-361v-39v-49h361v-149h-320q57 -103 199 -103q105 0 250 49l92 27l39 -268l-96 -29q-174 -55 -324 -55 q-199 0 -334 96t-184 283h-148z" />
<glyph d="M88 485v158q0 244 133 376t383 132q252 0 385 -131t133 -375v-156q0 -245 -131 -377t-381 -132q-253 0 -387.5 130.5t-134.5 374.5zM432 512q0 -56 6 -102l240 446q-30 12 -72 12q-96 0 -135 -61t-39 -186v-109zM541 270q24 -8 65 -8q172 0 172 215v144q0 43 -6 84z" />
<glyph d="M88 485v158q0 244 133 376t383 132q252 0 385 -131t133 -375v-156q0 -245 -131 -377t-381 -132q-253 0 -387.5 130.5t-134.5 374.5zM432 512q0 -126 38.5 -188t135.5 -62q172 0 172 215v144q0 124 -38.5 185.5t-133.5 61.5q-96 0 -135 -61t-39 -186v-109z" />
<glyph d="M80 0v272h395v572h-45q-51 0 -121 -14t-112 -42l-52 271q69 35 164 52t180 17h136q99 0 154 -51.5t55 -142.5v-662h319v-272h-1073z" />
<glyph d="M70 164q0 109 90 160l370 206q94 51 134.5 99.5t40.5 109.5q0 66 -46 100.5t-133 34.5q-132 0 -301 -57l-100 -33l-45 263l113 34q217 68 432 68q225 0 352 -90t127 -260q0 -228 -262 -381l-258 -152h530v-266h-887q-77 0 -117 44.5t-40 119.5z" />
<glyph d="M51 -268l49 276l111 -35q203 -67 354 -67q113 0 172.5 43t59.5 121q0 71 -58 135l-53 57h-305v256h295l45 53q47 62 47 134q0 155 -217 155q-131 0 -318 -63l-100 -33l-45 278l107 35q213 70 407 70q247 0 379.5 -100t132.5 -310q0 -142 -102 -276l-51 -64l57 -57 q68 -71 97.5 -136t29.5 -151q0 -210 -145.5 -321t-405.5 -111q-188 0 -430 76z" />
<glyph d="M33 162q0 82 47 145l514 707q47 65 102 98t131 33q217 0 217 -197v-682h140v-266h-140v-365h-337v365h-517q-79 0 -118 44t-39 118zM397 266h310v434z" />
<glyph d="M78 -279l47 277l106 -35q210 -65 334 -63q120 0 179 60.5t59 170.5q0 229 -240 229q-114 0 -295 -51l-121 -35v854h945v-284h-658v-254q129 33 225 33q490 0 490 -490q0 -252 -145.5 -383t-411.5 -131q-183 0 -406 70z" />
<glyph d="M80 514v537q0 226 149 355.5t394 129.5q172 0 389 -68l106 -34l-51 -279l-100 33q-193 61 -320 61q-221 0 -221 -196v-84q135 37 238 37q487 0 487 -490q0 -237 -141 -381.5t-398 -144.5q-251 0 -391.5 141.5t-140.5 382.5zM426 512q0 -118 48 -181t144 -63 q88 0 135.5 59t47.5 171q0 111 -47 171t-158 60q-20 0 -44.5 -3t-39.5 -6.5t-45.5 -10.5t-40.5 -9v-188z" />
<glyph d="M88 844v284h889q88 0 132 -44t44 -123q0 -75 -39 -168l-483 -1158h-383l524 1209h-684z" />
<glyph d="M59 416q0 88 29.5 159t93.5 138l58 59l-52 68q-94 127 -94 282q0 199 138.5 308.5t371.5 109.5q236 0 374 -109.5t138 -308.5q0 -159 -94 -282l-51 -68l57 -59q64 -67 93.5 -138t29.5 -159q0 -209 -143.5 -320.5t-399.5 -111.5t-402.5 112t-146.5 320zM399 422 q0 -77 54 -124.5t153 -47.5q98 0 152.5 47t54.5 125q0 81 -59 149l-54 60h-190l-53 -60q-58 -70 -58 -149zM420 1096q0 -69 53 -148l39 -57h186l41 57q54 80 54 148q0 76 -48.5 122t-138.5 46q-89 0 -137.5 -46.5t-48.5 -121.5z" />
<glyph d="M59 627q0 235 140.5 377.5t398.5 142.5q251 0 391.5 -139t140.5 -379v-529q0 -224 -148.5 -351.5t-393.5 -127.5q-175 0 -389 68l-107 32l51 277l101 -33q184 -62 319 -59q114 0 166.5 48.5t52.5 145.5v80q-119 -39 -235 -39q-488 0 -488 486zM410 645q0 -112 46 -169.5 t158 -57.5q51 0 168 31v182q0 237 -190 237q-88 0 -135 -56.5t-47 -166.5z" />
<glyph d="M109 563q0 233 105 376.5t290 184.5v269h268v-265q91 -12 201 -43l96 -28l-39 -269l-90 27q-149 49 -252 49q-119 0 -178 -73.5t-59 -227.5q0 -301 239 -301q90 0 250 49l90 27l39 -268l-96 -29q-102 -34 -201 -43v-268h-268v272q-185 39 -290 181.5t-105 379.5z" />
<glyph d="M119 84l47 258l115 -39q226 -70 346 -70q139 0 139 101q0 80 -117 94l-200 33q-326 51 -326 319q0 151 95.5 241.5t254.5 111.5v260h270v-263q114 -15 232 -51l112 -35l-45 -260l-114 39q-214 70 -348 70q-61 0 -99.5 -23.5t-38.5 -74.5q0 -80 117 -97l199 -30 q327 -50 327 -318q0 -151 -93 -241t-249 -113v-264h-270v264q-112 11 -242 53z" />
<glyph horiz-adv-x="645" d="M57 92q0 119 54.5 195t148.5 98v141h160v-137q52 -7 96 -20l55 -19l-24 -155l-55 16q-77 25 -125 25q-111 0 -111 -144q0 -143 113 -143q56 0 120 22l60 19l22 -156l-55 -18q-48 -14 -96 -23v-137h-160v143q-95 22 -149 97t-54 196z" />
<glyph horiz-adv-x="645" d="M37 -160l35 185l71 -25q96 -35 189 -35q33 0 54.5 17t21.5 49q0 46 -60 61l-102 25q-98 23 -152.5 80t-54.5 149q0 105 56 167.5t149 76.5v133h159v-131q53 -2 136 -27l71 -20l-32 -185l-74 25q-100 35 -182 35q-37 0 -57.5 -16.5t-20.5 -47.5q0 -51 57 -63l105 -23 q204 -54 204 -229q0 -105 -57 -168.5t-150 -79.5v-135h-159v133q-81 11 -133 27z" />
<glyph horiz-adv-x="645" d="M27 47v121h69v55h-69v121h71q10 125 88 190.5t201 65.5q85 0 170 -27l55 -16l-22 -158l-58 17q-74 24 -124 24q-101 0 -109 -96h188v-121h-192v-55h192v-121h-188q4 -48 33 -73t76 -25q54 0 124 24l58 17l22 -158l-57 -18q-83 -27 -168 -27q-124 0 -202 66.5t-87 193.5 h-71z" />
<glyph horiz-adv-x="483" d="M41 61v150h397v-150h-397z" />
<glyph horiz-adv-x="645" d="M49 47v148h184v202h170v-202h189v-148h-189v-203h-170v203h-184z" />
<glyph horiz-adv-x="645" d="M49 47v148h543v-148h-543z" />
<glyph horiz-adv-x="645" d="M49 -47v139h543v-139h-543zM49 152v143h543v-143h-543z" />
<glyph horiz-adv-x="294" d="M25 -244l49 219h198l-69 -254q-19 -63 -92 -63q-53 0 -74.5 28t-11.5 70z" />
<glyph horiz-adv-x="294" d="M39 -115q0 45 28 72t78 27q52 0 80.5 -27t28.5 -72q0 -46 -28.5 -73t-80.5 -27q-50 0 -78 27t-28 73z" />
<glyph horiz-adv-x="645" d="M45 51v283q0 128 72 198t205 70q134 0 205 -69t71 -199v-281q0 -129 -70.5 -198.5t-203.5 -69.5q-135 0 -207 69t-72 197zM248 104l119 318q-14 14 -45 14q-74 0 -74 -98v-234zM281 -41q17 -10 41 -10q75 0 75 98v223z" />
<glyph horiz-adv-x="645" d="M45 256v283q0 128 72 198t205 70q134 0 205 -69t71 -199v-281q0 -129 -70.5 -198.5t-203.5 -69.5q-135 0 -207 69t-72 197zM248 305l121 322q-17 14 -47 14q-74 0 -74 -98v-238zM283 162q13 -8 39 -8q75 0 75 98v219z" />
<glyph horiz-adv-x="645" d="M45 983v283q0 128 72 198t205 70q134 0 205 -69t71 -199v-281q0 -129 -70.5 -198.5t-203.5 -69.5q-135 0 -207 69t-72 197zM248 979q0 -98 74 -98q75 0 75 98v291q0 98 -75 98q-74 0 -74 -98v-291z" />
<glyph horiz-adv-x="645" d="M39 727v158h203v473h-15q-23 0 -61 -8.5t-64 -24.5l-30 160q77 39 188 39h72q57 0 88 -29t31 -82v-528h163v-158h-575z" />
<glyph horiz-adv-x="645" d="M37 821q0 54 35 82l223 207q53 51 73.5 84t20.5 80q0 92 -102 92q-72 0 -158 -33l-59 -20l-29 162l63 20q101 37 211 37q128 0 202.5 -61.5t74.5 -186.5q0 -70 -32 -134.5t-109 -135.5l-144 -131h287v-156h-465q-44 0 -68 25.5t-24 68.5z" />
<glyph horiz-adv-x="645" d="M27 776l28 162l66 -20q107 -35 180 -35q107 0 107 78q0 35 -27 65l-23 25h-161v151h155l19 25q22 25 22 63q0 76 -100 76q-65 0 -160 -31l-59 -22l-29 162l64 22q103 35 208 35q277 0 277 -223q0 -79 -55 -150l-21 -26l23 -25q69 -69 69 -158q0 -113 -78.5 -172 t-216.5 -59q-107 0 -223 37z" />
<glyph horiz-adv-x="645" d="M18 944q0 32 25 80l260 434q43 76 131 76q125 0 125 -113v-415h70v-154h-70v-125h-199v125h-249q-46 0 -69.5 25t-23.5 67zM238 1006h122v211z" />
<glyph horiz-adv-x="645" d="M35 776l28 160l64 -21q106 -32 168 -32q111 0 111 110q0 109 -111 109q-56 0 -150 -27l-71 -18v467h504v-166h-336v-113q37 15 106 15q258 0 258 -265q0 -135 -77 -205.5t-218 -70.5q-118 0 -213 35z" />
<glyph horiz-adv-x="645" d="M43 997v277q0 120 80 189t211 69q91 0 201 -35l63 -20l-31 -162l-61 20q-85 29 -160 29q-100 0 -100 -88v-33q59 17 110 17q256 0 256 -259q0 -127 -74 -203.5t-210 -76.5q-133 0 -209 75t-76 201zM246 997q0 -112 84 -112q39 0 60.5 27t21.5 79q0 107 -93 107 q-21 0 -73 -13v-88z" />
<glyph horiz-adv-x="645" d="M45 1358v166h467q50 0 75 -26.5t25 -72.5q0 -32 -18 -88l-250 -610h-221l266 631h-344z" />
<glyph horiz-adv-x="645" d="M33 948q0 90 67 160l23 25l-21 26q-51 66 -51 152q0 106 74 164.5t199 58.5t198.5 -58.5t73.5 -164.5q0 -84 -49 -152l-23 -26l23 -25q67 -70 67 -160q0 -111 -76.5 -170t-211.5 -59q-137 0 -215 59t-78 170zM231 954q0 -36 25 -58t68 -22q44 0 69 21.5t25 58.5 q0 36 -29 68l-22 27h-86l-23 -27q-27 -34 -27 -68zM242 1296q0 -32 26 -69l17 -27h80l16 25q25 41 25 71q0 35 -21 55.5t-61 20.5q-37 0 -59.5 -21.5t-22.5 -54.5z" />
<glyph horiz-adv-x="645" d="M33 1251q0 126 75.5 203.5t213.5 77.5q133 0 207.5 -75.5t74.5 -203.5v-274q0 -120 -80 -189t-211 -69q-84 0 -200 35l-64 18l29 164l63 -20q89 -29 158 -29q53 0 77.5 21.5t24.5 66.5v33q-45 -17 -110 -17q-258 0 -258 258zM238 1262q0 -107 90 -107q33 0 73 10v90 q0 113 -84 113q-79 0 -79 -106z" />
<glyph horiz-adv-x="645" d="M57 1024q0 119 54.5 195t148.5 98v141h160v-137q46 -6 96 -21l55 -18l-24 -156l-55 17q-74 24 -125 24q-111 0 -111 -143t113 -143q56 0 120 22l60 19l22 -156l-55 -18q-48 -14 -96 -23v-137h-160v143q-95 22 -149 97t-54 196z" />
<glyph horiz-adv-x="645" d="M37 772l35 184l71 -24q96 -35 189 -35q33 0 54.5 17t21.5 49q0 46 -60 61l-102 25q-98 23 -152.5 80t-54.5 149q0 105 56 167.5t149 76.5v133h159v-131q53 -2 136 -27l71 -20l-32 -185l-74 25q-100 35 -182 35q-37 0 -57.5 -16.5t-20.5 -47.5q0 -51 57 -63l105 -23 q204 -54 204 -229q0 -105 -57 -168.5t-150 -79.5v-135h-159v133q-81 11 -133 27z" />
<glyph horiz-adv-x="645" d="M27 979v121h69v55h-69v121h71q10 125 88 190.5t201 65.5q85 0 170 -27l55 -16l-22 -158l-58 17q-74 24 -124 24q-101 0 -109 -96h188v-121h-192v-55h192v-121h-188q4 -48 33 -73t76 -25q54 0 124 24l58 17l22 -158l-57 -19q-79 -26 -168 -26q-124 0 -202 66.5t-87 193.5 h-71z" />
<glyph horiz-adv-x="483" d="M41 993v150h397v-150h-397z" />
<glyph horiz-adv-x="645" d="M49 979v147h184v203h170v-203h189v-147h-189v-203h-170v203h-184z" />
<glyph horiz-adv-x="645" d="M49 979v147h543v-147h-543z" />
<glyph horiz-adv-x="645" d="M49 885v139h543v-139h-543zM49 1083v144h543v-144h-543z" />
<glyph horiz-adv-x="415" d="M43 1092q0 108 20.5 188.5t52 126t77.5 73t88.5 36t93.5 8.5v-142q-137 -12 -137 -290q0 -78 10 -135t24 -87t35 -48t35.5 -22.5t32.5 -6.5v-144q-46 0 -87.5 9t-88 38t-79.5 76t-55 129t-22 191z" />
<glyph horiz-adv-x="415" d="M39 649v144q18 2 32.5 6.5t35.5 22.5t35 48t24 87t10 135q0 278 -137 290v142q51 0 93.5 -8.5t88.5 -36t77.5 -73t52 -126t20.5 -188.5q0 -109 -22 -191t-55 -129t-79.5 -76t-88 -38t-87.5 -9z" />
<glyph horiz-adv-x="294" d="M25 688l49 219h198l-69 -254q-19 -63 -92 -63q-53 0 -74.5 28t-11.5 70z" />
<glyph horiz-adv-x="294" d="M39 817q0 45 28 71.5t78 26.5q52 0 80.5 -26.5t28.5 -71.5q0 -46 -28.5 -73t-80.5 -27q-50 0 -78 27t-28 73z" />
<glyph horiz-adv-x="645" d="M45 983v283q0 128 72 198t205 70q134 0 205 -69t71 -199v-281q0 -129 -70.5 -198.5t-203.5 -69.5q-135 0 -207 69t-72 197zM248 1028l121 326q-21 14 -47 14q-74 0 -74 -98v-242zM285 889q13 -8 37 -8q75 0 75 98v215z" />
<glyph horiz-adv-x="645" d="M57 1225q0 119 54.5 195t148.5 98v141h160v-137q46 -6 96 -21l55 -18l-24 -156l-55 16q-77 25 -125 25q-111 0 -111 -143q0 -144 113 -144q53 0 120 23l60 18l22 -155l-55 -19q-37 -11 -96 -22v-138h-160v144q-95 22 -149 97t-54 196z" />
<glyph horiz-adv-x="645" d="M37 973l35 184l71 -24q96 -35 189 -35q33 0 54.5 16.5t21.5 48.5q0 47 -60 62l-102 24q-97 23 -152 80.5t-55 149.5q0 105 56 167t149 76v133h159v-131q57 -3 136 -26l71 -21l-32 -184l-74 25q-98 34 -182 34q-78 0 -78 -63q0 -52 57 -64l105 -22q204 -54 204 -229 q0 -105 -57 -168.5t-150 -79.5v-135h-159v133q-86 12 -133 26z" />
<glyph horiz-adv-x="645" d="M27 1180v120h69v56h-69v121h71q10 125 88 190.5t201 65.5q85 0 170 -27l55 -16l-22 -158l-58 16q-77 25 -124 25q-101 0 -109 -96h188v-121h-192v-56h192v-120h-188q4 -48 33 -73.5t76 -25.5q51 0 124 25l58 16l22 -157l-57 -19q-79 -26 -168 -26q-124 0 -202 66.5 t-87 193.5h-71z" />
<glyph horiz-adv-x="483" d="M41 1194v149h397v-149h-397z" />
<glyph horiz-adv-x="294" d="M25 889l49 219h198l-69 -254q-19 -63 -92 -63q-53 0 -74.5 28t-11.5 70z" />
<glyph horiz-adv-x="294" d="M39 1018q0 45 28 71.5t78 26.5q52 0 80.5 -26.5t28.5 -71.5q0 -46 -28.5 -73t-80.5 -27q-50 0 -78 27t-28 73z" />
<glyph horiz-adv-x="645" d="M45 1184v282q0 128 72 198.5t205 70.5q134 0 205 -69.5t71 -199.5v-280q0 -129 -70.5 -198.5t-203.5 -69.5q-135 0 -207 69t-72 197zM248 1233l121 321q-18 15 -47 15q-74 0 -74 -99v-237zM283 1090q15 -9 39 -9q75 0 75 99v219z" />
<glyph horiz-adv-x="1103" d="M338 1686q0 50 45 83l141 101h406l-350 -228q-67 -43 -134 -43q-53 0 -80.5 25.5t-27.5 61.5z" />
<glyph horiz-adv-x="1087" d="M178 1874h273q0 -51 32 -80t88 -29t88.5 29t32.5 80h271q0 -125 -112.5 -200t-279.5 -75q-109 0 -198 32.5t-142 95.5t-53 147z" />
<glyph horiz-adv-x="1087" d="M158 1868h325l95 -94l88 94h325l-241 -213q-63 -56 -172 -56q-110 0 -175 56z" />
<glyph horiz-adv-x="1087" d="M162 1608l241 211q64 57 172 57q112 0 175 -57l243 -211h-325l-93 92l-88 -92h-325z" />
<glyph horiz-adv-x="1146" d="M209 1747q0 66 45 105.5t123 39.5q76 0 121 -39.5t45 -105.5q0 -68 -45 -108t-121 -40q-78 0 -123 40t-45 108zM635 1747q0 67 44.5 106t121.5 39t121.5 -39t44.5 -106q0 -68 -44.5 -108t-121.5 -40t-121.5 40t-44.5 108z" />
<glyph horiz-adv-x="1087" d="M365 1749q0 68 47.5 107.5t132.5 39.5q84 0 131 -39.5t47 -107.5t-47 -109t-131 -41q-85 0 -132.5 40.5t-47.5 109.5z" />
<glyph horiz-adv-x="1103" d="M242 1870h407l142 -101q45 -35 45 -83q0 -35 -29 -61t-82 -26q-71 0 -133 43z" />
<glyph horiz-adv-x="1087" d="M150 1683q0 43 32 70l137 117h326l-262 -223q-51 -48 -131 -48q-48 0 -75 24.5t-27 59.5zM575 1681q0 40 33 70l135 119h332l-266 -225q-54 -48 -129 -48q-50 0 -77.5 24t-27.5 60z" />
<glyph horiz-adv-x="1087" d="M176 1618v205h733v-205h-733z" />
<glyph horiz-adv-x="1087" d="M311 1808q0 95 71.5 152t186.5 57q114 0 186 -57.5t72 -151.5q0 -93 -73.5 -153t-184.5 -60q-113 0 -185.5 59.5t-72.5 153.5zM471 1808q0 -37 27 -60.5t71 -23.5t72.5 23.5t28.5 60.5q0 34 -28 57t-73 23q-44 0 -71 -23t-27 -57z" />
<glyph horiz-adv-x="1087" d="M113 1688q91 202 286 202q92 0 166 -45l64 -35q33 -20 80 -20q35 0 62 22t54 76l158 -86q-47 -105 -122 -154t-165 -49q-87 0 -166 43l-63 37q-44 23 -78 23q-36 0 -64 -22t-55 -76z" />
<glyph horiz-adv-x="1110" d="M309 1333q0 57 47 99l148 131h420l-361 -281q-64 -51 -137 -51q-55 0 -86 30.5t-31 71.5z" />
<glyph horiz-adv-x="1087" d="M129 1563h285q0 -65 32.5 -97t90.5 -32t90 32t32 97h285q0 -152 -115.5 -240t-291.5 -88q-177 0 -292.5 88t-115.5 240z" />
<glyph horiz-adv-x="1087" d="M143 1565h336l99 -125l94 125h338l-254 -258q-61 -64 -178 -64q-118 0 -179 64z" />
<glyph horiz-adv-x="1087" d="M311 -360l41 127q90 -43 170 -43q58 0 58 38q0 32 -40 42.5t-128 5.5l-19 32l84 158h127l-41 -84q81 0 131.5 -37.5t50.5 -111.5q0 -83 -58.5 -130t-166.5 -47q-98 0 -209 50z" />
<glyph horiz-adv-x="1087" d="M145 1251l252 254q68 64 178 64q112 0 179 -64l258 -254h-336l-101 119l-94 -119h-336z" />
<glyph horiz-adv-x="1093" d="M375 -272l49 186h315l-73 -246q-16 -53 -51 -80.5t-99 -27.5q-86 0 -122.5 48.5t-18.5 119.5z" />
<glyph horiz-adv-x="1171" d="M195 1423q0 73 45.5 114.5t128.5 41.5q79 0 125.5 -42t46.5 -114q0 -71 -46.5 -112t-125.5 -41q-83 0 -128.5 41t-45.5 112zM635 1423q0 72 46.5 114t127.5 42t127.5 -42t46.5 -114q0 -71 -46.5 -112t-127.5 -41t-127.5 41t-46.5 112z" />
<glyph horiz-adv-x="1087" d="M356 1423q0 72 50 114t139 42q86 0 136 -42t50 -114q0 -71 -50 -112t-136 -41q-89 0 -139 41t-50 112z" />
<glyph horiz-adv-x="1110" d="M242 1563h420l147 -133q45 -45 45 -101q0 -41 -30 -71.5t-85 -30.5q-69 0 -139 53z" />
<glyph horiz-adv-x="1087" d="M92 1331q0 48 33 86l145 146h336l-270 -275q-53 -59 -135 -59q-51 0 -80 30t-29 72zM532 1327q0 48 35 86l144 150h342l-275 -279q-56 -59 -135 -59q-53 0 -82 29.5t-29 72.5z" />
<glyph horiz-adv-x="1087" d="M162 1274v242h762v-242h-762z" />
<glyph horiz-adv-x="1087" d="M287 -180q0 61 32 107t82 73l156 18l10 -18q-90 -55 -90 -123q0 -65 86 -65q92 0 199 45l37 -154q-133 -53 -260 -53q-112 0 -182 43t-70 127z" />
<glyph horiz-adv-x="1087" d="M297 1485q0 113 78 181.5t194 68.5q114 0 194.5 -69t80.5 -181q0 -110 -81.5 -181t-193.5 -71q-113 0 -192.5 71t-79.5 181zM463 1485q0 -44 30 -71.5t76 -27.5t77.5 27.5t31.5 71.5q0 41 -31 68.5t-78 27.5t-76.5 -27t-29.5 -69z" />
<glyph horiz-adv-x="1087" d="M88 1327q48 130 129 191t178 61q95 0 170 -57l66 -45q39 -27 80 -27q38 0 68 28.5t57 94.5l161 -90q-48 -129 -129.5 -189.5t-177.5 -60.5q-93 0 -172 55l-63 45q-45 31 -82 31q-74 0 -125 -123z" />
<glyph horiz-adv-x="1273" d="M37 0l371 1038q25 71 86 108.5t153 37.5q187 0 238 -144l352 -1040h-356l-58 190h-370l-62 -190h-354zM520 438h236l-115 381z" />
<glyph horiz-adv-x="1224" d="M113 160v850q0 77 46.5 119t133.5 42h426q187 0 284 -78.5t97 -236.5q0 -123 -84 -217l-31 -39l35 -33q119 -104 119 -245q0 -154 -106 -238t-310 -84h-430q-87 0 -133.5 42.5t-46.5 117.5zM459 240h219q58 0 89.5 26.5t31.5 69.5q0 45 -39 84l-49 51h-252v-231zM459 705 h246l32 47q31 42 31 90q0 41 -25.5 66.5t-78.5 25.5h-205v-229z" />
<glyph horiz-adv-x="1206" d="M86 586q0 193 76.5 328.5t207 200.5t304.5 65q162 0 344 -54l106 -32l-41 -275l-118 37q-124 41 -252 41q-264 0 -264 -311q0 -312 266 -312q113 0 252 43l116 35l41 -276l-108 -33q-175 -53 -344 -53q-268 0 -427 152.5t-159 443.5z" />
<glyph horiz-adv-x="1286" d="M113 160v850q0 76 45.5 118.5t132.5 42.5h315q274 0 434 -155.5t160 -431.5t-162.5 -430t-435.5 -154h-311q-86 0 -132 42.5t-46 117.5zM465 262h133q121 0 187.5 82.5t66.5 239.5q0 156 -69 242.5t-193 86.5h-125v-651z" />
<glyph horiz-adv-x="1116" d="M113 160v850q0 76 45.5 118.5t132.5 42.5h727v-251h-553v-199h483v-246h-483v-223h557v-252h-731q-86 0 -132 42.5t-46 117.5z" />
<glyph horiz-adv-x="1083" d="M113 0v1010q0 76 45.5 118.5t132.5 42.5h713v-256h-537v-225h487v-248h-487v-442h-354z" />
<glyph horiz-adv-x="1282" d="M86 586q0 190 78 325.5t213.5 202t316.5 66.5q171 0 361 -56l114 -32l-45 -275l-120 35q-158 45 -279 45q-140 0 -215.5 -80.5t-75.5 -236.5q0 -168 75 -253t218 -85q74 0 129 10v160h-223v239h373q85 0 131.5 -43.5t46.5 -118.5v-245q0 -50 -13 -97q-13 -45 -65 -77.5 t-126 -49t-145.5 -23.5t-144.5 -7q-277 0 -440.5 154t-163.5 442z" />
<glyph horiz-adv-x="1265" d="M113 0v1171h354v-450h332v450h352v-1171h-352v469h-332v-469h-354z" />
<glyph horiz-adv-x="575" d="M113 0v1171h356v-1171h-356z" />
<glyph horiz-adv-x="862" d="M57 45l41 260q141 -37 189 -37q59 0 85.5 28t26.5 89v786h353v-813q0 -174 -106.5 -267t-295.5 -93q-135 0 -293 47z" />
<glyph horiz-adv-x="1245" d="M113 0v1171h348v-434l344 434h399l-346 -417q218 -493 330 -754h-373l-211 485l-67 -75q-41 -49 -58.5 -87t-17.5 -96v-227h-348z" />
<glyph horiz-adv-x="1064" d="M113 160v1011h356v-897h514v-274h-692q-86 0 -132 42.5t-46 117.5z" />
<glyph horiz-adv-x="1548" d="M113 0v981q0 97 65.5 149t181.5 52t178 -45t85 -131l155 -498l162 498q23 86 85 131t177 45q110 0 172 -51t62 -146v-985h-312v676l-182 -567q-35 -117 -174 -117q-142 0 -176 117l-178 569v-678h-301z" />
<glyph horiz-adv-x="1392" d="M86 586q0 279 166.5 436.5t445.5 157.5q281 0 444 -156.5t163 -437.5q0 -285 -165.5 -440.5t-447.5 -155.5q-279 0 -442.5 157t-163.5 439zM440 586q0 -168 68 -259t190 -91t188 90t66 260q0 164 -68.5 255t-191.5 91q-122 0 -187 -90.5t-65 -255.5z" />
<glyph horiz-adv-x="1167" d="M113 0v1010q0 76 45.5 118.5t132.5 42.5h377q192 0 303.5 -105t111.5 -286t-118 -286t-318 -105h-186v-389h-348zM461 639h157q67 0 105.5 37t38.5 104t-37.5 105.5t-99.5 38.5h-164v-285z" />
<glyph horiz-adv-x="1390" d="M86 584q0 279 167 437.5t443 158.5q280 0 443.5 -155.5t163.5 -434.5q0 -156 -63 -270.5t-167 -178.5q70 -20 150 -20h67v-246h-92q-85 0 -149.5 18t-137.5 52q-5 2 -21.5 9t-22.5 9t-20.5 8t-22.5 8.5t-22 6.5t-24 6t-23.5 4t-27 3t-27.5 1q-135 0 -246.5 37t-194 108 t-128 183t-45.5 256zM440 586q0 -167 67.5 -256.5t190.5 -89.5q122 0 188 88.5t66 257.5q0 164 -68.5 255t-191.5 91q-122 0 -187 -90.5t-65 -255.5z" />
<glyph horiz-adv-x="1226" d="M113 0v1010q0 77 45.5 119t132.5 42h428q190 0 296.5 -92t106.5 -260q0 -141 -110 -260l-54 -59l228 -500h-369l-174 403h-178v-403h-352zM465 645h229l43 51q47 54 47 113q0 117 -122 117h-197v-281z" />
<glyph horiz-adv-x="1150" d="M86 82l55 280l127 -43q202 -65 332 -65q57 0 93 22.5t36 69.5q0 34 -25.5 57.5t-74.5 32.5l-203 41q-166 32 -250 114t-84 226q0 180 125 271.5t332 91.5q206 0 391 -58l125 -37l-57 -284l-127 45q-188 65 -328 65q-125 0 -125 -90q0 -75 100 -94l199 -37 q168 -32 251 -112.5t83 -225.5q0 -181 -126.5 -273.5t-330.5 -92.5q-211 0 -393 57z" />
<glyph horiz-adv-x="1161" d="M74 911v260h1013v-260h-329v-911h-352v911h-332z" />
<glyph horiz-adv-x="1282" d="M111 438v733h350v-731q0 -180 180 -180q176 0 176 180v731h354v-733q0 -218 -137.5 -339.5t-394.5 -121.5q-256 0 -392 121t-136 340z" />
<glyph horiz-adv-x="1249" d="M37 1171h356l230 -792l235 792h354l-364 -1042q-47 -139 -234 -139q-183 0 -227 139z" />
<glyph horiz-adv-x="1667" d="M49 1171h336l111 -743l170 633q12 51 59 80.5t115 29.5q145 0 172 -110l164 -633l112 743h328l-205 -1032q-29 -153 -213 -153q-187 0 -223 143l-141 518l-148 -518q-39 -143 -221 -143q-91 0 -145 40.5t-68 114.5z" />
<glyph horiz-adv-x="1296" d="M49 0l385 590l-377 581h394l200 -342l195 342h387l-367 -573l381 -598h-393l-207 365l-209 -365h-389z" />
<glyph horiz-adv-x="1294" d="M33 1171h391l229 -399l219 399h388l-435 -694v-477h-352v473z" />
<glyph horiz-adv-x="1181" d="M86 154q0 72 53 135l508 629h-528v253h811q80 0 121 -41.5t41 -111.5q0 -68 -54 -135l-503 -629h548v-254h-837q-77 0 -118.5 42t-41.5 112z" />
<glyph horiz-adv-x="1318" d="M98 317q0 77 28.5 137.5t69.5 96t101 67.5q-98 107 -98 244q0 152 102 236t270 84q169 0 269 -77.5t100 -217.5q0 -65 -19 -118t-56 -91t-75.5 -64t-91.5 -51l179 -184q67 95 67 221v127h260v-129q0 -241 -147 -401l192 -197h-360l-45 47q-148 -63 -320 -63 q-207 0 -316.5 92.5t-109.5 240.5zM399 326q0 -54 37.5 -88.5t106.5 -34.5q63 0 131 22l-211 219q-64 -51 -64 -118zM469 862q0 -64 72 -139q63 30 96 64t33 85q0 43 -24.5 69t-70.5 26q-53 0 -79.5 -28t-26.5 -77z" />
<glyph horiz-adv-x="1531" d="M125 549q0 135 52 254t141 203.5t214 133t267 48.5q273 0 441.5 -145.5t168.5 -383.5q0 -182 -108 -297.5t-254 -115.5q-38 0 -84 13t-68 13q-28 0 -89.5 -11t-109.5 -11q-142 0 -213 74t-71 202q0 92 40.5 170.5t124 129.5t195.5 51q22 0 102 -7l7 39h194l-71 -508 q23 -14 51 -14q67 0 113 68.5t46 187.5q0 175 -106.5 273t-308.5 98q-214 0 -344.5 -131t-130.5 -334q0 -183 103 -291t294 -108q65 0 182.5 29.5t179.5 29.5q59 0 115 -29l105 -57l-70 -148l-105 48q-35 10 -57 10q-36 0 -147 -28t-213 -28q-136 0 -247.5 44t-185 121 t-113.5 181.5t-40 225.5zM618 522q0 -121 99 -121q19 0 92 15l45 301q-72 8 -84 8q-74 0 -113 -58t-39 -145z" />
<glyph horiz-adv-x="1058" d="M106 379v409q0 190 109.5 293t312.5 103q206 0 314 -102t108 -291v-408q0 -191 -106.5 -294t-308.5 -103q-207 0 -318 102t-111 291zM410 373q0 -146 120 -146q119 0 119 146v424q0 143 -119 143q-120 0 -120 -143v-424z" />
<glyph horiz-adv-x="1058" d="M100 0v236h312v694h-27q-38 0 -93 -13.5t-95 -39.5l-50 235q123 59 291 59h105q88 0 136 -42t48 -119v-774h250v-236h-877z" />
<glyph horiz-adv-x="1058" d="M90 139q0 76 53 123l346 303q79 69 113.5 122t34.5 120q0 64 -41.5 95.5t-116.5 31.5q-103 0 -243 -45l-97 -31l-41 242l97 30q171 52 323 52q197 0 312.5 -90.5t115.5 -272.5q0 -211 -219 -399l-219 -189h440v-231h-715q-71 0 -107 37t-36 102z" />
<glyph horiz-adv-x="1058" d="M76 72l43 239l104 -32q168 -50 275 -50q83 0 124.5 29.5t41.5 83.5q0 50 -41 94l-37 41h-248v223h240l32 41q31 39 31 88q0 105 -154 105q-114 0 -247 -45l-97 -31l-39 244l97 28q161 52 323 52q422 0 422 -324q0 -131 -88 -225l-31 -35l37 -35q107 -93 107 -233 q0 -166 -120 -253t-333 -87q-166 0 -340 53z" />
<glyph horiz-adv-x="1058" d="M61 319q0 46 41 117l406 641q61 105 197 105q93 0 138.5 -40t45.5 -124v-604h112v-230h-112v-184h-287v184h-399q-69 0 -105.5 36.5t-36.5 98.5zM387 414h215v329z" />
<glyph horiz-adv-x="1058" d="M96 70l43 237l101 -28q170 -50 258 -50q86 0 129 42.5t43 119.5q0 79 -44 120.5t-130 41.5q-74 0 -226 -41l-116 -31v690h774v-245h-516v-160q81 18 161 18q400 0 400 -391q0 -196 -118.5 -299.5t-334.5 -103.5q-168 0 -325 49z" />
<glyph horiz-adv-x="1058" d="M100 393v402q0 180 118.5 282.5t318.5 102.5q152 0 317 -50l98 -28l-49 -242l-94 31q-138 43 -246 43q-157 0 -157 -131v-41q80 22 169 22q400 0 400 -383q0 -184 -115 -296.5t-323 -112.5t-322.5 107t-114.5 294zM406 397q0 -80 33.5 -123t99.5 -43q61 0 95 41t34 115 q0 160 -144 160q-25 0 -118 -19v-131z" />
<glyph horiz-adv-x="1058" d="M104 928v243h717q154 0 154 -141q0 -46 -33 -131l-385 -899h-336l414 928h-531z" />
<glyph horiz-adv-x="1058" d="M84 326q0 121 102 235l33 35l-29 39q-77 96 -77 221q0 157 112.5 242.5t304.5 85.5q191 0 304.5 -85.5t113.5 -242.5q0 -129 -78 -219l-32 -41l36 -35q53 -54 77 -109.5t24 -125.5q0 -162 -117.5 -250t-325.5 -88q-209 0 -328.5 88t-119.5 250zM381 332q0 -51 39.5 -82 t109.5 -31q71 0 109.5 30.5t38.5 82.5q0 53 -41 100l-39 41h-137l-37 -41q-43 -46 -43 -100zM399 836q0 -51 37 -101l27 -37h133l27 37q39 49 39 101q0 51 -34.5 80.5t-97.5 29.5q-64 0 -97.5 -30.5t-33.5 -79.5z" />
<glyph horiz-adv-x="1058" d="M84 770q0 185 115 297.5t325 112.5q207 0 320.5 -107t113.5 -295v-401q0 -179 -118 -283t-320 -104q-147 0 -315 51h2l-98 31l45 239l96 -28q161 -47 248 -45q157 0 157 133v39q-93 -21 -172 -21q-199 0 -299 97t-100 284zM393 784q0 -75 33 -115t111 -40q48 0 118 18 v127q0 166 -133 166q-63 0 -96 -40.5t-33 -115.5z" />
<glyph horiz-adv-x="1058" d="M90 68l49 270l113 -35q165 -51 295 -51q50 0 83.5 23t33.5 69q0 68 -97 92l-161 37q-147 34 -230.5 117.5t-83.5 220.5q0 153 86.5 244t231.5 114v205h241v-203q83 -5 207 -41l113 -32l-51 -271l-113 37q-155 51 -289 51q-53 0 -86 -24t-33 -70q0 -70 95 -92l161 -37 q314 -67 314 -332q0 -155 -87 -247t-231 -117v-207h-241v205q-82 7 -209 43z" />
<glyph horiz-adv-x="1058" d="M78 373v182h106v68h-106v182h110q15 182 133.5 281.5t301.5 99.5q135 0 266 -39l88 -27l-33 -235l-90 26q-122 35 -205 35q-154 0 -157 -141h292v-182h-299v-68h299v-182h-292q3 -146 165 -146q65 0 197 35l90 27l33 -234l-88 -26q-138 -41 -266 -41q-184 0 -303 100.5 t-132 284.5h-110z" />
<glyph horiz-adv-x="524" d="M78 147q0 79 49 124.5t137 45.5q87 0 137 -46t50 -124q0 -77 -50 -122t-137 -45q-88 0 -137 45t-49 122zM98 406v765h330v-708z" />
<glyph horiz-adv-x="524" d="M78 1022q0 77 48.5 122.5t135.5 45.5q88 0 138.5 -45.5t50.5 -122.5t-50.5 -123.5t-138.5 -46.5q-87 0 -135.5 46t-48.5 124zM98 0v707l332 57v-764h-332z" />
<glyph horiz-adv-x="925" d="M63 1110l91 25q151 43 331 43q178 0 277.5 -78t99.5 -207q0 -100 -41 -171t-133 -132l-90 -60v-92l-324 -47v92q0 129 86 179l80 53q54 32 72 61t18 74q0 40 -31.5 61t-90.5 21q-110 0 -220 -35l-84 -27zM250 141q0 78 49 121t137 43t137.5 -43t49.5 -121 q0 -75 -49.5 -118t-137.5 -43q-87 0 -136.5 43t-49.5 118z" />
<glyph horiz-adv-x="925" d="M63 272q0 183 166 285l101 70v92l323 47v-92q0 -62 -19 -105.5t-69 -72.5l-80 -54q-53 -32 -71.5 -61.5t-18.5 -73.5q0 -40 32 -61t91 -21q108 0 221 35l84 27l41 -240l-90 -24q-151 -43 -334 -43q-173 0 -275 76.5t-102 215.5zM305 1016q0 76 48.5 119t135.5 43 q89 0 139 -43.5t50 -118.5q0 -78 -50 -121t-139 -43q-88 0 -136 43t-48 121z" />
<glyph horiz-adv-x="671" d="M94 438v193q144 0 144 63q0 28 -20.5 67.5t-41 88t-20.5 98.5q0 105 73.5 164t210.5 59h146v-215h-88q-76 0 -76 -63q0 -38 38 -115t38 -121q0 -49 -23 -81t-49 -44q72 -35 72 -118q0 -45 -38 -124t-38 -118q0 -59 76 -59h88v-217h-146q-137 0 -210.5 59t-73.5 166 q0 51 20.5 99.5t41 87.5t20.5 67q0 63 -144 63z" />
<glyph horiz-adv-x="671" d="M86 -104v217h90q74 0 74 59q0 39 -37 118t-37 124q0 84 70 118q-25 12 -47.5 44t-22.5 81q0 44 37 121t37 115q0 63 -74 63h-90v215h145q137 0 211 -59t74 -164q0 -50 -20 -98.5t-40 -88t-20 -67.5q0 -63 142 -63v-193q-142 0 -142 -63q0 -28 20 -67t40 -87.5t20 -99.5 q0 -107 -74 -166t-211 -59h-145z" />
<glyph horiz-adv-x="661" d="M129 -100v1271h455v-213h-181v-843h181v-215h-455z" />
<glyph horiz-adv-x="661" d="M78 -100v215h182v843h-182v213h454v-1271h-454z" />
<glyph horiz-adv-x="679" d="M88 537q0 115 16.5 208.5t43.5 158.5t67.5 114t83 77.5t96 46t100.5 23.5t101 6v-210q-29 -3 -51 -10t-54.5 -33.5t-53.5 -68.5t-36.5 -122.5t-15.5 -189.5q0 -113 15.5 -196t37 -127t53 -71t54.5 -34t51 -9v-213q-49 0 -94.5 6.5t-98 25t-96.5 48.5t-85.5 80.5 t-70 116.5t-46 161.5t-17.5 211.5z" />
<glyph horiz-adv-x="679" d="M82 100q29 2 52 9t55 34t53.5 71t37 127t15.5 196q0 109 -15.5 189.5t-37 122.5t-53.5 68.5t-55 33.5t-52 10v210q54 0 101 -6t100.5 -23.5t96 -46t83 -77.5t67.5 -114t43.5 -158.5t16.5 -208.5q0 -116 -17.5 -211.5t-46 -161.5t-70 -116.5t-85.5 -80.5t-96.5 -48.5 t-98 -25t-94.5 -6.5v213z" />
<glyph horiz-adv-x="772" d="M61 573q0 70 54 127l264 275h358l-381 -402l381 -399h-358l-264 270q-54 57 -54 129z" />
<glyph horiz-adv-x="1206" d="M63 573q0 70 54 127l258 275h327l-380 -402l380 -399h-327l-258 270q-54 57 -54 129zM524 573q0 67 54 127l264 275h327l-385 -402l385 -399h-327l-264 270q-54 60 -54 129z" />
<glyph horiz-adv-x="1206" d="M35 174l387 399l-387 402h330l262 -275q55 -58 55 -127q0 -71 -55 -129l-262 -270h-330zM504 174l379 399l-379 402h327l259 -275q53 -56 53 -127q0 -73 -53 -129l-259 -270h-327z" />
<glyph horiz-adv-x="772" d="M35 174l381 399l-381 402h358l264 -275q54 -57 54 -127q0 -72 -54 -129l-264 -270h-358z" />
<glyph horiz-adv-x="888" d="M80 455v256h729v-256h-729z" />
<glyph horiz-adv-x="524" d="M49 -86l90 401h340l-125 -462q-32 -107 -159 -107q-89 0 -126.5 48t-19.5 120z" />
<glyph horiz-adv-x="524" d="M76 156q0 80 50 128t138 48q87 0 136 -48t49 -128t-49 -128t-136 -48q-88 0 -138 48t-50 128z" />
<glyph horiz-adv-x="524" d="M47 -86l84 401h340l-121 -462q-12 -51 -53 -79t-107 -28q-88 0 -123.5 47.5t-19.5 120.5zM90 805q0 81 49 128.5t137 47.5q87 0 137 -48t50 -128t-50 -128t-137 -48q-88 0 -137 47.5t-49 128.5z" />
<glyph horiz-adv-x="524" d="M76 156q0 80 50 128t138 48q87 0 136 -48t49 -128t-49 -128t-136 -48q-88 0 -138 48t-50 128zM76 805q0 80 50 128t138 48q87 0 136 -48t49 -128t-49 -128t-136 -48q-88 0 -138 48t-50 128z" />
<glyph horiz-adv-x="524" d="M41 692l125 455q29 108 160 108q88 0 123.5 -48t19.5 -120l-88 -395h-340z" />
<glyph horiz-adv-x="915" d="M41 688l123 459q32 108 149 108q79 0 110 -48t17 -122l-90 -397h-309zM459 688l123 459q29 108 147 108q81 0 112 -48t15 -122l-88 -397h-309z" />
<glyph horiz-adv-x="524" d="M47 842l88 399h342l-125 -459q-29 -108 -159 -108q-89 0 -125.5 48t-20.5 120z" />
<glyph horiz-adv-x="915" d="M47 840l90 401h309l-122 -463q-32 -108 -150 -108q-79 0 -111 48.5t-16 121.5zM465 840l90 401h309l-125 -463q-29 -108 -147 -108q-81 0 -112 48t-15 122z" />
<glyph horiz-adv-x="524" d="M47 -86l88 401h342l-127 -462q-29 -107 -160 -107q-88 0 -123.5 47.5t-19.5 120.5z" />
<glyph horiz-adv-x="915" d="M43 -90l92 405h309l-125 -469q-32 -106 -149 -106q-80 0 -111.5 47.5t-15.5 122.5zM461 -90l90 405h309l-125 -469q-29 -106 -147 -106q-81 0 -112 47.5t-15 122.5z" />
<glyph horiz-adv-x="524" d="M92 1235h340l-29 -537h-282z" />
<glyph horiz-adv-x="899" d="M92 1235h309l-28 -537h-252zM498 1235h309l-27 -537h-252z" />
<glyph horiz-adv-x="1314" d="M113 0v983q0 96 63 147.5t178 51.5q104 0 157 -41.5t93 -128.5l291 -516v675h307v-981q0 -97 -63.5 -148.5t-180.5 -51.5q-101 0 -154 42.5t-93 129.5l-289 514v-676h-309z" />
<glyph horiz-adv-x="1822" d="M37 0l438 1028q32 75 92.5 109t159.5 34h999v-251h-555v-199h490v-246h-490v-223h558v-252h-756q-80 0 -117 34t-37 107v49h-350l-74 -190h-358zM555 438h266v482h-82z" />
<glyph horiz-adv-x="1828" d="M94 584q0 276 159 431.5t431 155.5h1047v-251h-553v-199h483v-246h-483v-223h557v-252h-1047q-271 0 -432.5 154t-161.5 430zM440 584q0 -157 66.5 -239.5t187.5 -82.5h133v651h-122q-126 0 -195.5 -86.5t-69.5 -242.5z" />
<glyph horiz-adv-x="1392" d="M86 586q0 279 166.5 436.5t445.5 157.5q85 0 185 -21l45 86h231l-88 -166q112 -75 173 -200.5t61 -292.5q0 -285 -165.5 -440.5t-447.5 -155.5q-98 0 -180 18l-47 -88h-232l89 168q-114 74 -175 201t-61 297zM440 586q0 -122 35 -203l285 541q-46 8 -68 8 q-122 0 -187 -90.5t-65 -255.5zM633 242q30 -6 65 -6q122 0 188 90t66 260q0 118 -34 196z" />
<glyph horiz-adv-x="1175" d="M113 0v1171h348v-176h203q194 0 306.5 -105t112.5 -286q0 -180 -117.5 -284.5t-318.5 -104.5h-186v-215h-348zM461 467h157q67 0 105.5 37t38.5 102q0 64 -37.5 101.5t-99.5 37.5h-164v-278z" />
<glyph horiz-adv-x="1306" d="M43 500v186h90v324q0 76 46.5 118.5t131.5 42.5h318q274 0 433 -155.5t159 -431.5t-161.5 -430t-434.5 -154h-314q-85 0 -131.5 43t-46.5 117v340h-90zM485 262h133q121 0 186.5 82.5t65.5 239.5q0 156 -68 242.5t-192 86.5h-125v-227h224v-186h-224v-238z" />
<glyph horiz-adv-x="1114" d="M80 578q0 242 110 395t299 192v209h242v-203q66 -8 213 -51l100 -30l-40 -269l-95 31q-166 49 -252 47q-235 0 -235 -321q0 -160 57.5 -239t177.5 -79q96 0 252 49l95 31l40 -268l-100 -29q-109 -37 -213 -49v-205h-242v209q-191 39 -300 188t-109 392z" />
<glyph horiz-adv-x="1159" d="M94 446v252h336v363h289v-363h344v-252h-344v-362h-289v362h-336z" />
<glyph horiz-adv-x="1159" d="M96 440v252h967v-252h-967z" />
<glyph horiz-adv-x="1159" d="M94 270v244h969v-244h-969zM94 621v241h969v-241h-969z" />
<glyph horiz-adv-x="1273" d="M37 0l371 1038q25 71 86 108.5t153 37.5q187 0 238 -144l352 -1040h-356l-58 190h-370l-62 -190h-354zM303 1563h420l147 -133q45 -45 45 -101q0 -41 -29.5 -71.5t-84.5 -30.5q-69 0 -139 53zM520 438h236l-115 381z" />
<glyph horiz-adv-x="1273" d="M37 0l371 1038q25 71 86 108.5t153 37.5q187 0 238 -144l352 -1040h-356l-58 190h-370l-62 -190h-354zM377 1333q0 57 47 99l147 131h420l-360 -281q-64 -51 -137 -51q-55 0 -86 30.5t-31 71.5zM520 438h236l-115 381z" />
<glyph horiz-adv-x="1273" d="M37 0l371 1038q25 71 86 108.5t153 37.5q187 0 238 -144l352 -1040h-356l-58 190h-370l-62 -190h-354zM217 1251l252 254q68 64 178 64q111 0 178 -64l258 -254h-335l-101 119l-94 -119h-336zM520 438h236l-115 381z" />
<glyph horiz-adv-x="1273" d="M37 0l371 1038q25 71 86 108.5t153 37.5q187 0 238 -144l352 -1040h-356l-58 190h-370l-62 -190h-354zM186 1327q48 130 129.5 191t178.5 61q95 0 170 -57l65 -45q39 -27 80 -27q38 0 68 28.5t57 94.5l162 -90q-48 -129 -129.5 -189.5t-178.5 -60.5q-93 0 -172 55l-63 45 q-45 31 -82 31q-74 0 -125 -123zM520 438h236l-115 381z" />
<glyph horiz-adv-x="1273" d="M37 0l371 1038q25 71 86 108.5t153 37.5q187 0 238 -144l352 -1040h-356l-58 190h-370l-62 -190h-354zM256 1423q0 73 45.5 114.5t128.5 41.5q79 0 125.5 -42t46.5 -114q0 -71 -46.5 -112t-125.5 -41q-83 0 -128.5 41t-45.5 112zM520 438h236l-115 381zM696 1423 q0 72 46.5 114t127.5 42t127.5 -42t46.5 -114q0 -71 -46.5 -112t-127.5 -41t-127.5 41t-46.5 112z" />
<glyph horiz-adv-x="1273" d="M37 0l371 1038q25 71 86 108.5t153 37.5q187 0 238 -144l352 -1040h-356l-58 190h-370l-62 -190h-354zM371 1485q0 113 78 181.5t194 68.5q114 0 194.5 -69t80.5 -181q0 -110 -81.5 -181t-193.5 -71q-113 0 -192.5 71t-79.5 181zM520 438h236l-115 381zM537 1485 q0 -44 30 -71.5t76 -27.5t77.5 27.5t31.5 71.5q0 41 -31 68.5t-78 27.5t-76.5 -27t-29.5 -69z" />
<glyph horiz-adv-x="1273" d="M37 0l371 1038q25 71 86 108.5t153 37.5q187 0 238 -144l352 -1040h-356l-58 190h-370l-62 -190h-354zM254 1274v242h762v-242h-762zM520 438h236l-115 381z" />
<glyph horiz-adv-x="1273" d="M37 0l371 1038q25 71 86 108.5t153 37.5q187 0 238 -144l352 -1040h-356l-58 190h-370l-62 -190h-354zM240 1563h284q0 -65 32.5 -97t90.5 -32t90.5 32t32.5 97h285q0 -152 -116 -240t-292 -88q-177 0 -292 88t-115 240zM520 438h236l-115 381z" />
<glyph horiz-adv-x="1273" d="M37 0l371 1038q25 71 86 108.5t153 37.5q187 0 238 -144l352 -1040q-90 -55 -90 -123q0 -65 86 -65q92 0 199 45l36 -154q-133 -53 -260 -53q-112 0 -182 43t-70 127q0 60 32.5 106.5t82.5 73.5h-190l-58 190h-370l-62 -190h-354zM520 438h236l-115 381z" />
<glyph horiz-adv-x="1206" d="M86 586q0 193 76.5 328.5t207 200.5t304.5 65q162 0 344 -54l106 -32l-41 -275l-118 37q-124 41 -252 41q-264 0 -264 -311q0 -312 266 -312q113 0 252 43l116 35l41 -276l-108 -33q-148 -47 -309 -53l-35 -74q81 0 131.5 -37.5t50.5 -111.5q0 -83 -58.5 -130t-166.5 -47 q-98 0 -209 50l41 127q90 -43 170 -43q57 0 57 38q0 32 -40 42.5t-128 5.5l-18 32l80 154q-230 24 -363 174t-133 416z" />
<glyph horiz-adv-x="1206" d="M86 586q0 193 76.5 328.5t207 200.5t304.5 65q162 0 344 -54l106 -32l-41 -275l-118 37q-124 41 -252 41q-264 0 -264 -311q0 -312 266 -312q113 0 252 43l116 35l41 -276l-108 -33q-175 -53 -344 -53q-268 0 -427 152.5t-159 443.5zM479 1333q0 57 47 99l148 131h420 l-361 -281q-64 -51 -137 -51q-55 0 -86 30.5t-31 71.5z" />
<glyph horiz-adv-x="1206" d="M86 586q0 193 76.5 328.5t207 200.5t304.5 65q162 0 344 -54l106 -32l-41 -275l-118 37q-124 41 -252 41q-264 0 -264 -311q0 -312 266 -312q113 0 252 43l116 35l41 -276l-108 -33q-175 -53 -344 -53q-268 0 -427 152.5t-159 443.5zM246 1251l252 254q68 64 178 64 q111 0 178 -64l258 -254h-336l-100 119l-94 -119h-336z" />
<glyph horiz-adv-x="1206" d="M86 586q0 193 76.5 328.5t207 200.5t304.5 65q162 0 344 -54l106 -32l-41 -275l-118 37q-124 41 -252 41q-264 0 -264 -311q0 -312 266 -312q113 0 252 43l116 35l41 -276l-108 -33q-175 -53 -344 -53q-268 0 -427 152.5t-159 443.5zM485 1423q0 72 50 114t139 42 q86 0 136 -42t50 -114q0 -71 -50 -112t-136 -41q-89 0 -139 41t-50 112z" />
<glyph horiz-adv-x="1206" d="M86 586q0 193 76.5 328.5t207 200.5t304.5 65q162 0 344 -54l106 -32l-41 -275l-118 37q-124 41 -252 41q-264 0 -264 -311q0 -312 266 -312q113 0 252 43l116 35l41 -276l-108 -33q-175 -53 -344 -53q-268 0 -427 152.5t-159 443.5zM246 1565h336l98 -125l94 125h338 l-254 -258q-61 -64 -178 -64t-178 64z" />
<glyph horiz-adv-x="1286" d="M113 160v850q0 76 45.5 118.5t132.5 42.5h315q274 0 434 -155.5t160 -431.5t-162.5 -430t-435.5 -154h-311q-86 0 -132 42.5t-46 117.5zM172 1565h336l98 -125l94 125h338l-254 -258q-61 -64 -178 -64t-178 64zM465 262h133q121 0 187.5 82.5t66.5 239.5q0 156 -69 242.5 t-193 86.5h-125v-651z" />
<glyph horiz-adv-x="1306" d="M43 500v186h90v324q0 76 46.5 118.5t131.5 42.5h318q274 0 433 -155.5t159 -431.5t-161.5 -430t-434.5 -154h-314q-85 0 -131.5 43t-46.5 117v340h-90zM485 262h133q121 0 186.5 82.5t65.5 239.5q0 156 -68 242.5t-192 86.5h-125v-227h224v-186h-224v-238z" />
<glyph horiz-adv-x="1116" d="M113 160v850q0 76 45.5 118.5t132.5 42.5h727v-251h-553v-199h483v-246h-483v-223h557v-252h-731q-86 0 -132 42.5t-46 117.5zM184 1563h420l148 -133q45 -45 45 -101q0 -41 -30 -71.5t-85 -30.5q-69 0 -139 53z" />
<glyph horiz-adv-x="1116" d="M113 160v850q0 76 45.5 118.5t132.5 42.5h727v-251h-553v-199h483v-246h-483v-223h557v-252h-731q-86 0 -132 42.5t-46 117.5zM356 1333q0 57 47 99l148 131h420l-361 -281q-64 -51 -137 -51q-55 0 -86 30.5t-31 71.5z" />
<glyph horiz-adv-x="1116" d="M113 160v850q0 76 45.5 118.5t132.5 42.5h727v-251h-553v-199h483v-246h-483v-223h557v-252h-731q-86 0 -132 42.5t-46 117.5zM147 1251l252 254q68 64 179 64t178 -64l258 -254h-336l-100 119l-95 -119h-336z" />
<glyph horiz-adv-x="1116" d="M113 160v850q0 76 45.5 118.5t132.5 42.5h727v-251h-553v-199h483v-246h-483v-223h557v-252h-731q-86 0 -132 42.5t-46 117.5zM182 1423q0 73 45.5 114.5t128.5 41.5q79 0 125.5 -42t46.5 -114q0 -71 -46.5 -112t-125.5 -41q-83 0 -128.5 41t-45.5 112zM623 1423 q0 72 46.5 114t127.5 42t127.5 -42t46.5 -114q0 -71 -46.5 -112t-127.5 -41t-127.5 41t-46.5 112z" />
<glyph horiz-adv-x="1116" d="M113 160v850q0 76 45.5 118.5t132.5 42.5h727v-251h-553v-199h483v-246h-483v-223h557v-252h-731q-86 0 -132 42.5t-46 117.5zM190 1274v242h762v-242h-762z" />
<glyph horiz-adv-x="1116" d="M113 160v850q0 76 45.5 118.5t132.5 42.5h727v-251h-553v-199h483v-246h-483v-223h557v-252h-731q-86 0 -132 42.5t-46 117.5zM168 1563h285q0 -65 32 -97t90 -32t90.5 32t32.5 97h285q0 -152 -116 -240t-292 -88q-177 0 -292 88t-115 240z" />
<glyph horiz-adv-x="1116" d="M113 160v850q0 76 45.5 118.5t132.5 42.5h727v-251h-553v-199h483v-246h-483v-223h557v-252h-731q-86 0 -132 42.5t-46 117.5zM397 1423q0 72 50 114t139 42q86 0 136 -42t50 -114q0 -71 -50 -112t-136 -41q-89 0 -139 41t-50 112z" />
<glyph horiz-adv-x="1116" d="M113 160v850q0 76 45.5 118.5t132.5 42.5h727v-251h-553v-199h483v-246h-483v-223h557v-252h-115q-90 -55 -90 -123q0 -65 86 -65q92 0 199 45l37 -154q-133 -53 -260 -53q-112 0 -182 43t-70 127q0 61 32 107t82 73h-450q-86 0 -132 42.5t-46 117.5z" />
<glyph horiz-adv-x="1116" d="M113 160v850q0 76 45.5 118.5t132.5 42.5h727v-251h-553v-199h483v-246h-483v-223h557v-252h-731q-86 0 -132 42.5t-46 117.5zM150 1565h335l99 -125l94 125h338l-254 -258q-61 -64 -178 -64t-178 64z" />
<glyph horiz-adv-x="1282" d="M86 586q0 190 78 325.5t213.5 202t316.5 66.5q171 0 361 -56l114 -32l-45 -275l-120 35q-158 45 -279 45q-140 0 -215.5 -80.5t-75.5 -236.5q0 -168 75 -253t218 -85q74 0 129 10v160h-223v239h373q85 0 131.5 -43.5t46.5 -118.5v-245q0 -50 -13 -97q-13 -45 -65 -77.5 t-126 -49t-145.5 -23.5t-144.5 -7q-277 0 -440.5 154t-163.5 442zM252 1251l252 254q68 64 178 64q111 0 178 -64l258 -254h-336l-100 119l-94 -119h-336z" />
<glyph horiz-adv-x="1282" d="M86 586q0 190 78 325.5t213.5 202t316.5 66.5q171 0 361 -56l114 -32l-45 -275l-120 35q-158 45 -279 45q-140 0 -215.5 -80.5t-75.5 -236.5q0 -168 75 -253t218 -85q74 0 129 10v160h-223v239h373q85 0 131.5 -43.5t46.5 -118.5v-245q0 -50 -13 -97q-13 -45 -65 -77.5 t-126 -49t-145.5 -23.5t-144.5 -7q-277 0 -440.5 154t-163.5 442zM270 1563h285q0 -65 32.5 -97t90.5 -32t90.5 32t32.5 97h284q0 -152 -115.5 -240t-291.5 -88q-177 0 -292.5 88t-115.5 240z" />
<glyph horiz-adv-x="1282" d="M86 586q0 190 78 325.5t213.5 202t316.5 66.5q171 0 361 -56l114 -32l-45 -275l-120 35q-158 45 -279 45q-140 0 -215.5 -80.5t-75.5 -236.5q0 -168 75 -253t218 -85q74 0 129 10v160h-223v239h373q85 0 131.5 -43.5t46.5 -118.5v-245q0 -50 -13 -97q-13 -45 -65 -77.5 t-126 -49t-145.5 -23.5t-144.5 -7q-277 0 -440.5 154t-163.5 442zM487 1427q0 72 50 114t139 42q86 0 136 -42t50 -114q0 -71 -50 -112t-136 -41q-89 0 -139 41t-50 112z" />
<glyph horiz-adv-x="1282" d="M86 586q0 190 78 325.5t213.5 202t316.5 66.5q171 0 361 -56l114 -32l-45 -275l-120 35q-158 45 -279 45q-140 0 -215.5 -80.5t-75.5 -236.5q0 -168 75 -253t218 -85q74 0 129 10v160h-223v239h373q85 0 131.5 -43.5t46.5 -118.5v-245q0 -50 -13 -97q-13 -45 -65 -77.5 t-126 -49t-145.5 -23.5t-144.5 -7q-277 0 -440.5 154t-163.5 442zM467 -272l49 186h315l-73 -246q-16 -53 -51 -80.5t-99 -27.5q-86 0 -122.5 48.5t-18.5 119.5z" />
<glyph horiz-adv-x="1265" d="M113 0v1171h354v-450h332v450h352v-1171h-352v469h-332v-469h-354zM199 1251l252 254q68 64 178 64q111 0 178 -64l258 -254h-336l-100 119l-94 -119h-336z" />
<glyph horiz-adv-x="1263" d="M25 829v191h88v151h354v-151h332v151h352v-151h88v-191h-88v-829h-352v469h-332v-469h-354v829h-88zM467 721h332v108h-332v-108z" />
<glyph horiz-adv-x="1437" d="M113 0v1171h356v-1171h-356zM633 45l41 260q141 -37 188 -37q59 0 86 28t27 89v786h352v-813q0 -175 -106 -267.5t-295 -92.5q-135 0 -293 47z" />
<glyph horiz-adv-x="575" d="M-104 1563h419l148 -133q45 -45 45 -101q0 -41 -30 -71.5t-85 -30.5q-69 0 -139 53zM113 0v1171h356v-1171h-356z" />
<glyph horiz-adv-x="575" d="M76 1333q0 57 47 99l147 131h420l-360 -281q-64 -51 -137 -51q-55 0 -86 30.5t-31 71.5zM113 0v1171h356v-1171h-356z" />
<glyph horiz-adv-x="575" d="M-141 1251l252 254q68 64 178 64q111 0 178 -64l258 -254h-336l-100 119l-94 -119h-336zM113 0v1171h356v-1171h-356z" />
<glyph horiz-adv-x="575" d="M-100 1423q0 73 45.5 114.5t128.5 41.5q79 0 125.5 -42t46.5 -114q0 -71 -46.5 -112t-125.5 -41q-83 0 -128.5 41t-45.5 112zM113 0v1171h356v-1171h-356zM340 1423q0 72 46.5 114t127.5 42t127.5 -42t46.5 -114q0 -71 -46.5 -112t-127.5 -41t-127.5 41t-46.5 112z" />
<glyph horiz-adv-x="575" d="M-172 1327q48 130 129 191t178 61q95 0 170 -57l66 -45q39 -27 80 -27q38 0 67.5 28.5t56.5 94.5l162 -90q-48 -129 -129.5 -189.5t-177.5 -60.5q-93 0 -172 55l-63 45q-45 31 -82 31q-74 0 -125 -123zM113 0v1171h356v-1171h-356z" />
<glyph horiz-adv-x="575" d="M-86 1274v242h762v-242h-762zM113 0v1171h356v-1171h-356z" />
<glyph horiz-adv-x="575" d="M-111 1563h285q0 -65 32.5 -97t90.5 -32t90.5 32t32.5 97h285q0 -152 -116 -240t-292 -88q-177 0 -292.5 88t-115.5 240zM113 0v1171h356v-1171h-356z" />
<glyph horiz-adv-x="575" d="M113 0v1171h356v-1167l2 -4q-90 -55 -90 -123q0 -65 86 -65q92 0 199 45l36 -154q-133 -53 -260 -53q-112 0 -182 43t-70 127q0 60 32.5 106.5t82.5 73.5h-192z" />
<glyph horiz-adv-x="575" d="M109 1423q0 73 49.5 114.5t138.5 41.5q86 0 136 -42t50 -114q0 -71 -50 -112t-136 -41q-89 0 -138.5 41t-49.5 112zM113 0v1171h356v-1171h-356z" />
<glyph horiz-adv-x="1089" d="M43 428v238l90 30v475h356v-348l248 90v-237l-248 -90v-312h512v-274h-694q-85 0 -129.5 42.5t-44.5 117.5v299z" />
<glyph horiz-adv-x="862" d="M57 45l41 260q141 -37 189 -37q59 0 85.5 28t26.5 89v786h353v-813q0 -174 -106.5 -267t-295.5 -93q-135 0 -293 47zM141 1251l252 254q68 64 178 64q112 0 179 -64l258 -254h-336l-101 119l-94 -119h-336z" />
<glyph horiz-adv-x="1245" d="M113 0v1171h348v-434l344 434h399l-346 -417q218 -493 330 -754h-373l-211 485l-67 -75q-41 -49 -58.5 -87t-17.5 -96v-227h-348zM412 -272l49 186h315l-74 -246q-16 -54 -51 -81t-98 -27q-86 0 -122.5 48.5t-18.5 119.5z" />
<glyph horiz-adv-x="1064" d="M113 160v1011h356v-897h514v-274h-692q-86 0 -132 42.5t-46 117.5zM309 1333q0 57 47 99l148 131h420l-361 -281q-64 -51 -137 -51q-55 0 -86 30.5t-31 71.5z" />
<glyph horiz-adv-x="1064" d="M113 160v1011h356v-897h514v-274h-692q-86 0 -132 42.5t-46 117.5zM319 -272l50 186h315l-74 -246q-16 -54 -51 -81t-98 -27q-86 0 -123 48.5t-19 119.5z" />
<glyph horiz-adv-x="1064" d="M113 160v1011h356v-897h514v-274h-692q-86 0 -132 42.5t-46 117.5zM580 907l82 342h292l-118 -403q-29 -107 -138 -107q-82 0 -109.5 46.5t-8.5 121.5z" />
<glyph horiz-adv-x="1064" d="M113 160v1011h356v-897h514v-274h-692q-86 0 -132 42.5t-46 117.5zM600 627q0 89 46 131.5t114 42.5q71 0 117.5 -42.5t46.5 -131.5q0 -88 -46.5 -131t-117.5 -43q-68 0 -114 43t-46 131z" />
<glyph horiz-adv-x="1314" d="M113 0v983q0 96 63 147.5t178 51.5q104 0 157 -41.5t93 -128.5l291 -516v675h307v-981q0 -97 -63.5 -148.5t-180.5 -51.5q-101 0 -154 42.5t-93 129.5l-289 514v-676h-309zM209 1327q48 130 129 191t178 61q95 0 170 -57l66 -45q39 -27 79 -27q38 0 68 28.5t57 94.5 l162 -90q-48 -129 -129.5 -189.5t-177.5 -60.5q-93 0 -172 55l-64 45q-45 31 -81 31q-74 0 -125 -123z" />
<glyph horiz-adv-x="1314" d="M113 0v983q0 96 63 147.5t178 51.5q104 0 157 -41.5t93 -128.5l291 -516v675h307v-981q0 -97 -63.5 -148.5t-180.5 -51.5q-101 0 -154 42.5t-93 129.5l-289 514v-676h-309zM461 1333q0 57 47 99l147 131h420l-360 -281q-64 -51 -137 -51q-55 0 -86 30.5t-31 71.5z" />
<glyph horiz-adv-x="1314" d="M113 0v983q0 96 63 147.5t178 51.5q104 0 157 -41.5t93 -128.5l291 -516v675h307v-981q0 -97 -63.5 -148.5t-180.5 -51.5q-101 0 -154 42.5t-93 129.5l-289 514v-676h-309zM426 -272l49 186h316l-74 -246q-16 -53 -51 -80.5t-99 -27.5q-86 0 -122.5 48.5t-18.5 119.5z " />
<glyph horiz-adv-x="1314" d="M113 0v983q0 96 63 147.5t178 51.5q104 0 157 -41.5t93 -128.5l291 -516v675h307v-981q0 -97 -63.5 -148.5t-180.5 -51.5q-101 0 -154 42.5t-93 129.5l-289 514v-676h-309zM233 1565h336l99 -125l94 125h338l-254 -258q-61 -64 -178 -64q-118 0 -179 64z" />
<glyph horiz-adv-x="1392" d="M86 586q0 279 166.5 436.5t445.5 157.5q281 0 444 -156.5t163 -437.5q0 -285 -165.5 -440.5t-447.5 -155.5q-279 0 -442.5 157t-163.5 439zM317 1563h420l148 -133q45 -45 45 -101q0 -41 -30 -71.5t-85 -30.5q-69 0 -139 53zM440 586q0 -168 68 -259t190 -91t188 90 t66 260q0 164 -68.5 255t-191.5 91q-122 0 -187 -90.5t-65 -255.5z" />
<glyph horiz-adv-x="1392" d="M86 586q0 279 166.5 436.5t445.5 157.5q281 0 444 -156.5t163 -437.5q0 -285 -165.5 -440.5t-447.5 -155.5q-279 0 -442.5 157t-163.5 439zM432 1333q0 57 47 99l148 131h420l-361 -281q-64 -51 -137 -51q-55 0 -86 30.5t-31 71.5zM440 586q0 -168 68 -259t190 -91 t188 90t66 260q0 164 -68.5 255t-191.5 91q-122 0 -187 -90.5t-65 -255.5z" />
<glyph horiz-adv-x="1392" d="M86 586q0 279 166.5 436.5t445.5 157.5q281 0 444 -156.5t163 -437.5q0 -285 -165.5 -440.5t-447.5 -155.5q-279 0 -442.5 157t-163.5 439zM260 1251l252 254q68 64 178 64q111 0 178 -64l258 -254h-335l-101 119l-94 -119h-336zM440 586q0 -168 68 -259t190 -91t188 90 t66 260q0 164 -68.5 255t-191.5 91q-122 0 -187 -90.5t-65 -255.5z" />
<glyph horiz-adv-x="1392" d="M86 586q0 279 166.5 436.5t445.5 157.5q281 0 444 -156.5t163 -437.5q0 -285 -165.5 -440.5t-447.5 -155.5q-279 0 -442.5 157t-163.5 439zM236 1327q48 130 129 191t178 61q95 0 170 -57l65 -45q39 -27 80 -27q38 0 68 28.5t57 94.5l162 -90q-48 -129 -129.5 -189.5 t-177.5 -60.5q-93 0 -172 55l-64 45q-45 31 -82 31q-74 0 -125 -123zM440 586q0 -168 68 -259t190 -91t188 90t66 260q0 164 -68.5 255t-191.5 91q-122 0 -187 -90.5t-65 -255.5z" />
<glyph horiz-adv-x="1392" d="M86 586q0 279 166.5 436.5t445.5 157.5q281 0 444 -156.5t163 -437.5q0 -285 -165.5 -440.5t-447.5 -155.5q-279 0 -442.5 157t-163.5 439zM301 1423q0 73 45.5 114.5t128.5 41.5q79 0 125.5 -42t46.5 -114q0 -71 -46.5 -112t-125.5 -41q-83 0 -128.5 41t-45.5 112z M440 586q0 -168 68 -259t190 -91t188 90t66 260q0 164 -68.5 255t-191.5 91q-122 0 -187 -90.5t-65 -255.5zM741 1423q0 72 46.5 114t127.5 42q82 0 128.5 -42t46.5 -114q0 -71 -47 -112t-128 -41t-127.5 41t-46.5 112z" />
<glyph horiz-adv-x="1323" d="M117 0v983q0 96 62.5 147.5t178.5 51.5q71 0 121 -19.5t75 -46t52 -72.5l291 -448v575h307v-1230q0 -312 -420 -312v213q113 0 113 105v63l-473 705v-715h-307z" />
<glyph horiz-adv-x="1392" d="M86 586q0 279 166.5 436.5t445.5 157.5q281 0 444 -156.5t163 -437.5q0 -285 -165.5 -440.5t-447.5 -155.5q-279 0 -442.5 157t-163.5 439zM313 1274v242h762v-242h-762zM440 586q0 -168 68 -259t190 -91t188 90t66 260q0 164 -68.5 255t-191.5 91q-122 0 -187 -90.5 t-65 -255.5z" />
<glyph horiz-adv-x="1392" d="M86 586q0 279 166.5 436.5t445.5 157.5q281 0 444 -156.5t163 -437.5q0 -285 -165.5 -440.5t-447.5 -155.5q-279 0 -442.5 157t-163.5 439zM287 1563h284q0 -65 32.5 -97t90.5 -32t90.5 32t32.5 97h285q0 -152 -116 -240t-292 -88q-177 0 -292 88t-115 240zM440 586 q0 -168 68 -259t190 -91t188 90t66 260q0 164 -68.5 255t-191.5 91q-122 0 -187 -90.5t-65 -255.5z" />
<glyph horiz-adv-x="1392" d="M86 586q0 279 166.5 436.5t445.5 157.5q281 0 444 -156.5t163 -437.5q0 -285 -165.5 -440.5t-447.5 -155.5q-279 0 -442.5 157t-163.5 439zM338 1331q0 48 33 86l145 146h336l-270 -275q-53 -59 -136 -59q-51 0 -79.5 29.5t-28.5 72.5zM440 586q0 -168 68 -259t190 -91 t188 90t66 260q0 164 -68.5 255t-191.5 91q-122 0 -187 -90.5t-65 -255.5zM778 1327q0 48 35 86l143 150h342l-274 -279q-56 -59 -135 -59q-53 0 -82 29.5t-29 72.5z" />
<glyph horiz-adv-x="1226" d="M113 0v1010q0 77 45.5 119t132.5 42h428q190 0 296.5 -92t106.5 -260q0 -141 -110 -260l-54 -59l228 -500h-369l-174 403h-178v-403h-352zM424 1333q0 57 47 99l147 131h420l-360 -281q-64 -51 -137 -51q-55 0 -86 30.5t-31 71.5zM465 645h229l43 51q47 54 47 113 q0 117 -122 117h-197v-281z" />
<glyph horiz-adv-x="1226" d="M113 0v1010q0 77 45.5 119t132.5 42h428q190 0 296.5 -92t106.5 -260q0 -141 -110 -260l-54 -59l228 -500h-369l-174 403h-178v-403h-352zM403 -272l50 186h315l-74 -246q-16 -54 -51 -81t-98 -27q-86 0 -123 48.5t-19 119.5zM465 645h229l43 51q47 54 47 113 q0 117 -122 117h-197v-281z" />
<glyph horiz-adv-x="1226" d="M113 0v1010q0 77 45.5 119t132.5 42h428q190 0 296.5 -92t106.5 -260q0 -141 -110 -260l-54 -59l228 -500h-369l-174 403h-178v-403h-352zM166 1565h336l98 -125l94 125h338l-254 -258q-61 -64 -178 -64t-178 64zM465 645h229l43 51q47 54 47 113q0 117 -122 117h-197 v-281z" />
<glyph horiz-adv-x="1150" d="M86 82l55 280l127 -43q202 -65 332 -65q57 0 93 22.5t36 69.5q0 34 -25.5 57.5t-74.5 32.5l-203 41q-166 32 -250 114t-84 226q0 180 125 271.5t332 91.5q206 0 391 -58l125 -37l-57 -284l-127 45q-188 65 -328 65q-125 0 -125 -90q0 -75 100 -94l199 -37 q168 -32 251 -112.5t83 -225.5q0 -181 -126.5 -273.5t-330.5 -92.5q-211 0 -393 57zM360 1333q0 56 48 99l147 131h420l-361 -281q-64 -51 -137 -51q-55 0 -86 30.5t-31 71.5z" />
<glyph horiz-adv-x="1150" d="M86 82l55 280l127 -43q202 -65 332 -65q57 0 93 22.5t36 69.5q0 34 -25.5 57.5t-74.5 32.5l-203 41q-166 32 -250 114t-84 226q0 180 125 271.5t332 91.5q206 0 391 -58l125 -37l-57 -284l-127 45q-188 65 -328 65q-125 0 -125 -90q0 -75 100 -94l199 -37 q168 -32 251 -112.5t83 -225.5q0 -181 -126.5 -273.5t-330.5 -92.5q-211 0 -393 57zM145 1251l252 254q68 64 178 64q112 0 179 -64l258 -254h-336l-101 119l-94 -119h-336z" />
<glyph horiz-adv-x="1150" d="M86 82l55 280l127 -43q202 -65 332 -65q57 0 93 22.5t36 69.5q0 34 -25.5 57.5t-74.5 32.5l-203 41q-166 32 -250 114t-84 226q0 180 125 271.5t332 91.5q206 0 391 -58l125 -37l-57 -284l-127 45q-188 65 -328 65q-125 0 -125 -90q0 -75 100 -94l199 -37 q168 -32 251 -112.5t83 -225.5q0 -177 -120 -269t-318 -97l-33 -70q81 0 131.5 -37.5t50.5 -111.5q0 -83 -58.5 -130t-166.5 -47q-98 0 -209 50l41 127q90 -43 170 -43q57 0 57 38q0 32 -40 42.5t-128 5.5l-18 32l78 148q-156 10 -287 53z" />
<glyph horiz-adv-x="1150" d="M86 82l55 280l127 -43q202 -65 332 -65q57 0 93 22.5t36 69.5q0 34 -25.5 57.5t-74.5 32.5l-203 41q-166 32 -250 114t-84 226q0 180 125 271.5t332 91.5q206 0 391 -58l125 -37l-57 -284l-127 45q-188 65 -328 65q-125 0 -125 -90q0 -75 100 -94l199 -37 q168 -32 251 -112.5t83 -225.5q0 -181 -126.5 -273.5t-330.5 -92.5q-211 0 -393 57zM360 -272l50 186h315l-74 -246q-16 -54 -51 -81t-98 -27q-86 0 -123 48.5t-19 119.5z" />
<glyph horiz-adv-x="1150" d="M86 82l55 280l127 -43q202 -65 332 -65q57 0 93 22.5t36 69.5q0 34 -25.5 57.5t-74.5 32.5l-203 41q-166 32 -250 114t-84 226q0 180 125 271.5t332 91.5q206 0 391 -58l125 -37l-57 -284l-127 45q-188 65 -328 65q-125 0 -125 -90q0 -75 100 -94l199 -37 q168 -32 251 -112.5t83 -225.5q0 -181 -126.5 -273.5t-330.5 -92.5q-211 0 -393 57zM143 1565h336l99 -125l94 125h338l-254 -258q-61 -64 -178 -64q-118 0 -179 64z" />
<glyph horiz-adv-x="1161" d="M74 911v260h1013v-260h-329v-911h-352v911h-332zM365 -272l49 186h315l-74 -246q-16 -54 -51 -81t-98 -27q-86 0 -122.5 48.5t-18.5 119.5z" />
<glyph horiz-adv-x="1161" d="M74 911v260h1013v-260h-329v-911h-352v911h-332zM150 1565h335l99 -125l94 125h338l-254 -258q-61 -64 -178 -64t-178 64z" />
<glyph horiz-adv-x="1161" d="M74 911v260h1013v-260h-329v-241h223v-207h-223v-463h-352v463h-211v207h211v241h-332z" />
<glyph horiz-adv-x="1282" d="M111 438v733h350v-731q0 -180 180 -180q176 0 176 180v731h354v-733q0 -218 -137.5 -339.5t-394.5 -121.5q-256 0 -392 121t-136 340zM213 1563h420l147 -133q45 -45 45 -101q0 -41 -29.5 -71.5t-84.5 -30.5q-70 0 -140 53z" />
<glyph horiz-adv-x="1282" d="M111 438v733h350v-731q0 -180 180 -180q176 0 176 180v731h354v-733q0 -218 -137.5 -339.5t-394.5 -121.5q-256 0 -392 121t-136 340zM463 1333q0 57 47 99l147 131h420l-360 -281q-64 -51 -137 -51q-55 0 -86 30.5t-31 71.5z" />
<glyph horiz-adv-x="1282" d="M111 438v733h350v-731q0 -180 180 -180q176 0 176 180v731h354v-733q0 -218 -137.5 -339.5t-394.5 -121.5q-256 0 -392 121t-136 340zM209 1251l252 254q68 64 178 64q111 0 178 -64l258 -254h-336l-100 119l-94 -119h-336z" />
<glyph horiz-adv-x="1282" d="M111 438v733h350v-731q0 -180 180 -180q176 0 176 180v731h354v-733q0 -218 -137.5 -339.5t-394.5 -121.5q-256 0 -392 121t-136 340zM248 1423q0 73 45.5 114.5t128.5 41.5q79 0 125.5 -42t46.5 -114q0 -71 -46.5 -112t-125.5 -41q-83 0 -128.5 41t-45.5 112zM688 1423 q0 72 46.5 114t127.5 42t127.5 -42t46.5 -114q0 -71 -46.5 -112t-127.5 -41t-127.5 41t-46.5 112z" />
<glyph horiz-adv-x="1282" d="M111 438v733h350v-731q0 -180 180 -180q176 0 176 180v731h354v-733q0 -218 -137.5 -339.5t-394.5 -121.5q-256 0 -392 121t-136 340zM188 1327q48 130 129.5 191t178.5 61q95 0 170 -57l65 -45q39 -27 80 -27q38 0 68 28.5t57 94.5l162 -90q-48 -129 -129.5 -189.5 t-177.5 -60.5q-94 0 -173 55l-63 45q-45 31 -82 31q-74 0 -125 -123z" />
<glyph horiz-adv-x="1282" d="M111 438v733h350v-731q0 -180 180 -180q176 0 176 180v731h354v-733q0 -218 -137.5 -339.5t-394.5 -121.5q-256 0 -392 121t-136 340zM262 1274v242h762v-242h-762z" />
<glyph horiz-adv-x="1282" d="M111 438v733h350v-731q0 -180 180 -180q176 0 176 180v731h354v-733q0 -218 -137.5 -339.5t-394.5 -121.5q-256 0 -392 121t-136 340zM236 1563h284q0 -65 32.5 -97t90.5 -32t90.5 32t32.5 97h285q0 -152 -116 -240t-292 -88q-177 0 -292 88t-115 240z" />
<glyph horiz-adv-x="1282" d="M111 438v733h350v-731q0 -180 180 -180q176 0 176 180v731h354v-733q0 -218 -137.5 -339.5t-394.5 -121.5q-256 0 -392 121t-136 340zM369 1485q0 113 78 181.5t194 68.5q114 0 194 -69t80 -181q0 -110 -81 -181t-193 -71q-113 0 -192.5 71t-79.5 181zM535 1485 q0 -44 30 -71.5t76 -27.5t77.5 27.5t31.5 71.5q0 41 -31 68.5t-78 27.5t-76.5 -27t-29.5 -69z" />
<glyph horiz-adv-x="1282" d="M111 438v733h350v-731q0 -180 180 -180q176 0 176 180v731h354v-733q0 -218 -137.5 -339.5t-394.5 -121.5q-256 0 -392 121t-136 340zM279 1331q0 49 32 86l146 146h336l-271 -275q-53 -59 -135 -59q-51 0 -79.5 29.5t-28.5 72.5zM719 1327q0 48 35 86l143 150h342 l-274 -279q-56 -59 -136 -59q-53 0 -81.5 29.5t-28.5 72.5z" />
<glyph horiz-adv-x="1282" d="M111 438v733h350v-731q0 -180 180 -180q176 0 176 180v731h354v-733q0 -168 -83 -280t-242 -156q-80 -48 -80 -117q0 -65 86 -65q92 0 199 45l36 -154q-133 -53 -260 -53q-112 0 -182 43t-70 127q0 89 70 149h-6q-256 0 -392 121t-136 340z" />
<glyph horiz-adv-x="1667" d="M49 1171h336l111 -743l170 633q12 51 59 80.5t115 29.5q145 0 172 -110l164 -633l112 743h328l-205 -1032q-29 -153 -213 -153q-187 0 -223 143l-141 518l-148 -518q-39 -143 -221 -143q-91 0 -145 40.5t-68 114.5zM408 1251l251 254q68 64 179 64t178 -64l258 -254h-336 l-100 119l-95 -119h-335z" />
<glyph horiz-adv-x="1667" d="M49 1171h336l111 -743l170 633q12 51 59 80.5t115 29.5q145 0 172 -110l164 -633l112 743h328l-205 -1032q-29 -153 -213 -153q-187 0 -223 143l-141 518l-148 -518q-39 -143 -221 -143q-91 0 -145 40.5t-68 114.5zM453 1423q0 73 45.5 114.5t128.5 41.5q79 0 125.5 -42 t46.5 -114q0 -71 -46.5 -112t-125.5 -41q-83 0 -128.5 41t-45.5 112zM893 1423q0 72 46.5 114t127.5 42t127.5 -42t46.5 -114q0 -71 -46.5 -112t-127.5 -41t-127.5 41t-46.5 112z" />
<glyph horiz-adv-x="1667" d="M49 1171h336l111 -743l170 633q12 51 59 80.5t115 29.5q145 0 172 -110l164 -633l112 743h328l-205 -1032q-29 -153 -213 -153q-187 0 -223 143l-141 518l-148 -518q-39 -143 -221 -143q-91 0 -145 40.5t-68 114.5zM598 1333q0 57 47 99l148 131h419l-360 -281 q-64 -51 -137 -51q-55 0 -86 30.5t-31 71.5z" />
<glyph horiz-adv-x="1667" d="M49 1171h336l111 -743l170 633q12 51 59 80.5t115 29.5q145 0 172 -110l164 -633l112 743h328l-205 -1032q-29 -153 -213 -153q-187 0 -223 143l-141 518l-148 -518q-39 -143 -221 -143q-91 0 -145 40.5t-68 114.5zM469 1563h420l147 -133q45 -45 45 -101 q0 -41 -29.5 -71.5t-84.5 -30.5q-70 0 -140 53z" />
<glyph horiz-adv-x="1294" d="M33 1171h391l229 -399l219 399h388l-435 -694v-477h-352v473zM463 1333q0 57 47 99l147 131h420l-360 -281q-64 -51 -137 -51q-55 0 -86 30.5t-31 71.5z" />
<glyph horiz-adv-x="1294" d="M33 1171h391l229 -399l219 399h388l-435 -694v-477h-352v473zM258 1423q0 73 45.5 114.5t128.5 41.5q79 0 125.5 -42t46.5 -114q0 -71 -46.5 -112t-125.5 -41q-83 0 -128.5 41t-45.5 112zM698 1423q0 72 46.5 114t127.5 42q82 0 128.5 -42t46.5 -114q0 -71 -47 -112 t-128 -41t-127.5 41t-46.5 112z" />
<glyph horiz-adv-x="1294" d="M33 1171h391l229 -399l219 399h388l-435 -694v-477h-352v473zM219 1251l252 254q68 64 178 64q111 0 178 -64l258 -254h-335l-101 119l-94 -119h-336z" />
<glyph horiz-adv-x="1294" d="M33 1171h391l229 -399l219 399h388l-435 -694v-477h-352v473zM250 1563h420l147 -133q45 -45 45 -101q0 -41 -29.5 -71.5t-84.5 -30.5q-70 0 -140 53z" />
<glyph horiz-adv-x="1181" d="M86 154q0 72 53 135l508 629h-528v253h811q80 0 121 -41.5t41 -111.5q0 -68 -54 -135l-503 -629h548v-254h-837q-77 0 -118.5 42t-41.5 112zM166 1565h336l98 -125l94 125h338l-254 -258q-61 -64 -178 -64t-178 64z" />
<glyph horiz-adv-x="1181" d="M86 154q0 72 53 135l508 629h-528v253h811q80 0 121 -41.5t41 -111.5q0 -68 -54 -135l-503 -629h548v-254h-837q-77 0 -118.5 42t-41.5 112zM379 1333q0 57 47 99l147 131h420l-360 -281q-64 -51 -137 -51q-55 0 -86 30.5t-31 71.5z" />
<glyph horiz-adv-x="1181" d="M86 154q0 72 53 135l508 629h-528v253h811q80 0 121 -41.5t41 -111.5q0 -68 -54 -135l-503 -629h548v-254h-837q-77 0 -118.5 42t-41.5 112zM410 1423q0 73 49.5 114.5t138.5 41.5q86 0 136 -42t50 -114q0 -71 -50 -112t-136 -41q-89 0 -138.5 41t-49.5 112z" />
<glyph horiz-adv-x="1247" d="M113 0v786q0 178 134.5 287t393.5 109q95 0 175 -17t133.5 -43.5t95 -62t63.5 -68.5t33 -67l-244 -269q270 -49 270 -305q0 -163 -100.5 -262.5t-294.5 -99.5q-108 0 -194 26l-58 17l53 252l48 -15q49 -14 104 -14q62 0 95.5 31t33.5 84q0 47 -34.5 74.5t-94.5 27.5h-20 q-66 0 -99 31t-33 88q0 31 8 51t31 47l166 191q-17 22 -54.5 39.5t-90.5 17.5q-87 0 -129.5 -41t-42.5 -104v-791h-348z" />
<glyph horiz-adv-x="1058" d="M106 379v409q0 190 109.5 293t312.5 103q206 0 314 -102t108 -291v-408q0 -191 -106.5 -294t-308.5 -103q-207 0 -318 102t-111 291zM410 457l172 475q-19 8 -52 8q-120 0 -120 -143v-340zM479 236q21 -9 51 -9q119 0 119 146v340z" />
<glyph horiz-adv-x="1058" d="M106 379v409q0 190 109.5 293t312.5 103q206 0 314 -102t108 -291v-408q0 -191 -106.5 -294t-308.5 -103q-207 0 -318 102t-111 291zM410 373q0 -146 120 -146q119 0 119 146v424q0 143 -119 143q-120 0 -120 -143v-424z" />
<glyph horiz-adv-x="1058" d="M100 0v236h312v694h-27q-38 0 -93 -13.5t-95 -39.5l-50 235q123 59 291 59h105q88 0 136 -42t48 -119v-774h250v-236h-877z" />
<glyph horiz-adv-x="1058" d="M90 139q0 76 53 123l346 303q79 69 113.5 122t34.5 120q0 64 -41.5 95.5t-116.5 31.5q-103 0 -243 -45l-97 -31l-41 242l97 30q171 52 323 52q197 0 312.5 -90.5t115.5 -272.5q0 -211 -219 -399l-219 -189h440v-231h-715q-71 0 -107 37t-36 102z" />
<glyph horiz-adv-x="1058" d="M76 72l43 239l104 -32q168 -50 275 -50q83 0 124.5 29.5t41.5 83.5q0 50 -41 94l-37 41h-248v223h240l32 41q31 39 31 88q0 105 -154 105q-114 0 -247 -45l-97 -31l-39 244l97 28q161 52 323 52q422 0 422 -324q0 -131 -88 -225l-31 -35l37 -35q107 -93 107 -233 q0 -166 -120 -253t-333 -87q-166 0 -340 53z" />
<glyph horiz-adv-x="1058" d="M61 319q0 46 41 117l406 641q61 105 197 105q93 0 138.5 -40t45.5 -124v-604h112v-230h-112v-184h-287v184h-399q-69 0 -105.5 36.5t-36.5 98.5zM387 414h215v329z" />
<glyph horiz-adv-x="1058" d="M96 70l43 237l101 -28q170 -50 258 -50q86 0 129 42.5t43 119.5q0 79 -44 120.5t-130 41.5q-74 0 -226 -41l-116 -31v690h774v-245h-516v-160q81 18 161 18q400 0 400 -391q0 -196 -118.5 -299.5t-334.5 -103.5q-168 0 -325 49z" />
<glyph horiz-adv-x="1058" d="M100 393v402q0 180 118.5 282.5t318.5 102.5q152 0 317 -50l98 -28l-49 -242l-94 31q-138 43 -246 43q-157 0 -157 -131v-41q80 22 169 22q400 0 400 -383q0 -184 -115 -296.5t-323 -112.5t-322.5 107t-114.5 294zM406 397q0 -80 33.5 -123t99.5 -43q61 0 95 41t34 115 q0 160 -144 160q-25 0 -118 -19v-131z" />
<glyph horiz-adv-x="1058" d="M104 928v243h717q154 0 154 -141q0 -46 -33 -131l-385 -899h-336l414 928h-531z" />
<glyph horiz-adv-x="1058" d="M84 326q0 121 102 235l33 35l-29 39q-77 96 -77 221q0 157 112.5 242.5t304.5 85.5q191 0 304.5 -85.5t113.5 -242.5q0 -129 -78 -219l-32 -41l36 -35q53 -54 77 -109.5t24 -125.5q0 -162 -117.5 -250t-325.5 -88q-209 0 -328.5 88t-119.5 250zM381 332q0 -51 39.5 -82 t109.5 -31q71 0 109.5 30.5t38.5 82.5q0 53 -41 100l-39 41h-137l-37 -41q-43 -46 -43 -100zM399 836q0 -51 37 -101l27 -37h133l27 37q39 49 39 101q0 51 -34.5 80.5t-97.5 29.5q-64 0 -97.5 -30.5t-33.5 -79.5z" />
<glyph horiz-adv-x="1058" d="M84 770q0 185 115 297.5t325 112.5q207 0 320.5 -107t113.5 -295v-401q0 -179 -118 -283t-320 -104q-147 0 -315 51h2l-98 31l45 239l96 -28q161 -47 248 -45q157 0 157 133v39q-93 -21 -172 -21q-199 0 -299 97t-100 284zM393 784q0 -75 33 -115t111 -40q48 0 118 18 v127q0 166 -133 166q-63 0 -96 -40.5t-33 -115.5z" />
<glyph horiz-adv-x="1114" d="M80 578q0 242 110 395t299 192v209h242v-203q66 -8 213 -51l100 -30l-40 -269l-95 31q-166 49 -252 47q-235 0 -235 -321q0 -160 57.5 -239t177.5 -79q96 0 252 49l95 31l40 -268l-100 -29q-109 -37 -213 -49v-205h-242v209q-191 39 -300 188t-109 392z" />
<glyph horiz-adv-x="1058" d="M90 68l49 270l113 -35q165 -51 295 -51q50 0 83.5 23t33.5 69q0 68 -97 92l-161 37q-147 34 -230.5 117.5t-83.5 220.5q0 153 86.5 244t231.5 114v205h241v-203q83 -5 207 -41l113 -32l-51 -271l-113 37q-155 51 -289 51q-53 0 -86 -24t-33 -70q0 -70 95 -92l161 -37 q314 -67 314 -332q0 -155 -87 -247t-231 -117v-207h-241v205q-82 7 -209 43z" />
<glyph horiz-adv-x="1058" d="M78 373v182h106v68h-106v182h110q15 182 133.5 281.5t301.5 99.5q135 0 266 -39l88 -27l-33 -235l-90 26q-122 35 -205 35q-154 0 -157 -141h292v-182h-299v-68h299v-182h-292q3 -146 165 -146q65 0 197 35l90 27l33 -234l-88 -26q-138 -41 -266 -41q-184 0 -303 100.5 t-132 284.5h-110z" />
<glyph horiz-adv-x="804" d="M70 1044q0 115 81 166.5t216 51.5h108v22q0 39 -22 55.5t-66 16.5q-80 0 -192 -33l-76 -25l-31 168l78 25q136 39 244 39q274 0 274 -238v-280l72 -45l-82 -142l-68 37q-40 21 -88 8l-33 -8q-77 -24 -170 -24q-116 0 -180.5 54t-64.5 152zM281 1051q0 -27 19 -41.5 t52 -14.5q46 0 92 13l33 10v96h-104q-92 0 -92 -63z" />
<glyph horiz-adv-x="798" d="M88 989v768l215 39v-287q67 19 121 19q299 0 299 -340q0 -161 -88 -254.5t-244 -93.5q-114 0 -213 30q-47 17 -68.5 45t-21.5 74zM303 1024q39 -10 80 -10q127 0 127 172q0 168 -119 168q-24 0 -88 -17v-313z" />
<glyph horiz-adv-x="714" d="M70 1184q0 166 88 256t237 90q83 0 191 -31l65 -18l-26 -181l-66 21q-101 29 -143 29q-127 0 -127 -166t129 -166q50 0 141 26l66 21l26 -176l-65 -21q-105 -30 -191 -30q-149 0 -237 88.5t-88 257.5z" />
<glyph horiz-adv-x="798" d="M70 1184q0 165 77 254.5t228 89.5q29 0 114 -19v248l216 39v-807q0 -86 -91 -112q-101 -37 -215 -37q-157 0 -243 90t-86 254zM283 1186q0 -172 125 -172q42 0 81 10v313q-67 17 -88 17q-118 0 -118 -168z" />
<glyph horiz-adv-x="778" d="M70 1184q0 171 92 260.5t233 89.5q147 0 230.5 -84.5t83.5 -249.5q0 -45 -20.5 -65.5t-67.5 -20.5h-340q17 -102 145 -102q81 0 176 26l74 23l29 -162l-74 -22q-125 -41 -219 -41q-159 0 -250.5 89t-91.5 259zM279 1260h219q-2 50 -29 81t-80 31q-46 0 -75 -29t-35 -83z " />
<glyph horiz-adv-x="579" d="M45 1356v162h88v45q0 112 64.5 168.5t181.5 56.5q72 0 184 -33l-26 -162q-84 25 -119 25q-40 0 -56 -16t-16 -56v-28h182v-162h-182v-512h-213v512h-88z" />
<glyph horiz-adv-x="808" d="M70 1296q0 113 81 169.5t224 56.5h63q65 0 105 8l180 49l39 -158l-100 -26q30 -40 30 -99q0 -103 -79.5 -156t-221.5 -53h-35q4 -8 4 -22q0 -21 -8 -37h154q121 0 180 -48t59 -134q0 -106 -87.5 -162.5t-260.5 -56.5q-97 0 -167 19t-113 65t-43 116q0 77 45 129l53 68 q18 24 18 51q0 21 -19 42.5t-41 39.5t-41 54.5t-19 84.5zM268 829q0 -31 32.5 -44t100.5 -13q152 0 152 66q0 39 -64 39h-208q-13 -10 -13 -48zM272 1298q0 -77 107 -77q106 0 106 77q0 72 -106 72q-107 0 -107 -72z" />
<glyph horiz-adv-x="776" d="M86 844v913l219 39v-285q74 19 123 19q258 0 258 -246v-440h-217v424q0 78 -76 78q-24 0 -88 -17v-485h-219z" />
<glyph horiz-adv-x="389" d="M74 1681q0 50 31.5 79.5t87.5 29.5t88 -29.5t32 -79.5q0 -48 -32 -78t-88 -30t-87.5 30t-31.5 78zM86 844v680h215v-680h-215z" />
<glyph horiz-adv-x="397" d="M12 627v159q43 1 61.5 19.5t18.5 56.5v662h215v-666q0 -114 -75 -172.5t-220 -58.5zM80 1681q0 50 32 79.5t89 29.5q55 0 86.5 -29.5t31.5 -79.5q0 -48 -31.5 -78t-86.5 -30q-56 0 -88.5 30t-32.5 78z" />
<glyph horiz-adv-x="780" d="M88 844v913l213 39v-502l184 230h260l-196 -232l194 -448h-247l-113 266l-31 -35q-27 -31 -39 -56.5t-12 -68.5v-106h-213z" />
<glyph horiz-adv-x="393" d="M84 844v913l221 39v-952h-221z" />
<glyph horiz-adv-x="1130" d="M90 844v534q0 45 28.5 77t76 47t94.5 21.5t100 6.5q118 0 178 -43q92 43 203 43q134 0 198 -63.5t64 -176.5v-446h-213v428q0 36 -16 55t-55 19q-46 0 -86 -17q6 -24 6 -49v-436h-213v428q0 76 -72 76q-21 0 -80 -15v-489h-213z" />
<glyph horiz-adv-x="819" d="M70 1184q0 164 91.5 256t248.5 92t245 -91.5t88 -256.5q0 -164 -91 -256t-246 -92q-158 0 -247 91.5t-89 256.5zM289 1184q0 -183 121 -183q116 0 116 183q0 184 -120 184q-117 0 -117 -184z" />
<glyph horiz-adv-x="798" d="M88 616v762q0 92 84 119q112 33 221 33q150 0 240 -91t90 -251q0 -166 -77.5 -256t-227.5 -90q-48 0 -115 16v-203zM303 1032q65 -14 88 -16q119 0 119 170q0 172 -127 172q-26 0 -80 -12v-314z" />
<glyph horiz-adv-x="798" d="M70 1184q0 160 87 253t244 93q118 0 224 -37q80 -26 80 -115v-725l-216 -39v244q-59 -16 -122 -16q-154 0 -225.5 86t-71.5 256zM283 1186q0 -85 28 -127.5t90 -42.5q25 0 88 16v316q-48 10 -81 10q-63 0 -94 -45t-31 -127z" />
<glyph horiz-adv-x="546" d="M86 844v532q0 52 24 81.5t74 41.5q108 31 314 31v-176q-118 0 -199 -19v-491h-213z" />
<glyph horiz-adv-x="737" d="M72 899l28 168l80 -27q113 -36 199 -36q70 0 70 47q0 14 -16.5 27t-41.5 16l-117 18q-200 31 -200 199q0 107 75.5 164t198.5 57q120 0 236 -35l78 -24l-33 -170l-78 26q-112 39 -201 39q-29 0 -48 -12.5t-19 -36.5q0 -38 57 -47l115 -19q101 -15 150.5 -62t49.5 -132 q0 -106 -75 -163.5t-197 -57.5q-126 0 -238 36z" />
<glyph horiz-adv-x="610" d="M41 1354v164h86v143l213 37v-180h190v-164h-190v-269q0 -41 17 -59t55 -18q43 0 114 22l29 -164q-102 -30 -180 -30q-118 0 -183 59.5t-65 173.5v285h-86z" />
<glyph horiz-adv-x="782" d="M86 1085v439h215v-422q0 -78 80 -78q33 0 86 14v486h221v-533q0 -93 -98 -121q-104 -30 -215 -30q-149 0 -219 65t-70 180z" />
<glyph horiz-adv-x="772" d="M35 1524h231l117 -414l119 414h229l-203 -596q-31 -97 -151 -97q-119 0 -150 97z" />
<glyph horiz-adv-x="1073" d="M45 1524h225l60 -400l92 328q9 35 40 55.5t75 20.5q45 0 75 -19.5t39 -54.5l88 -324l62 394h219l-125 -588q-22 -105 -143 -105q-59 0 -97.5 25.5t-50.5 71.5l-72 239l-73 -239q-28 -97 -148 -97q-123 0 -145 105z" />
<glyph horiz-adv-x="794" d="M37 844l219 342l-215 338h252l102 -178l97 178h247l-204 -332l217 -348h-252l-107 186l-108 -186h-248z" />
<glyph horiz-adv-x="778" d="M37 1524h239l125 -394l107 394h227l-237 -719q-59 -178 -246 -178q-81 0 -176 28l26 164q77 -24 125 -24q50 0 64 49l4 16z" />
<glyph horiz-adv-x="743" d="M70 948q0 55 34 92l279 322h-301v162h483q53 0 80 -28.5t27 -76.5q0 -49 -37 -92l-277 -319h310v-164h-496q-50 0 -76 28.5t-26 75.5z" />
<glyph horiz-adv-x="1423" d="M102 0v1026q0 111 38.5 202.5t115.5 161t202 108t287 38.5q117 0 214 -20t159.5 -51t110 -74t72 -82t38.5 -82l-333 -387q189 -26 277.5 -124t88.5 -270q0 -101 -30.5 -184t-90 -145.5t-155 -97.5t-219.5 -35q-144 0 -252 34l-56 17l62 291l49 -13q75 -20 135 -20 q95 0 147 48.5t52 129.5q0 75 -51 117.5t-138 42.5h-30q-72 0 -109 36.5t-37 100.5q0 36 9.5 60.5t33.5 56.5l228 282q-16 33 -66.5 55.5t-120.5 22.5q-117 0 -173 -57t-56 -154v-1034h-402z" />
<glyph horiz-adv-x="774" d="M18 0l451 1171h287l-441 -1171h-297z" />
</font>
</defs>
</svg>
